<?xml version="1.0" encoding="UTF-8"?>
<svg width="805px" height="710px" viewBox="0 0 805 710" version="1.1" xmlns="http://www.w3.org/2000/svg" xmlns:xlink="http://www.w3.org/1999/xlink">
    <!-- Generator: Sketch 52.2 (67145) - http://www.bohemiancoding.com/sketch -->
    <title>Group 24</title>
    <desc>Created with Sketch.</desc>
    <defs>
        <rect id="path-1" x="0" y="0" width="525.343362" height="707"></rect>
    </defs>
    <g id="Home" stroke="none" stroke-width="1" fill="none" fill-rule="evenodd">
        <g id="Home-Iex" transform="translate(0.000000, -1258.000000)">
            <g id="Group-24" transform="translate(0.000000, 1257.000000)">
                <g id="Group-21" transform="translate(0.000000, 1.000000)">
                    <mask id="mask-2" fill="white">
                        <use xlink:href="#path-1"></use>
                    </mask>
                    <g id="Mask"></g>
                    <g mask="url(#mask-2)" fill="#FFA866">
                        <g transform="translate(-97.858077, -0.459184)">
                            <polygon id="Line-8-Copy" fill-rule="nonzero" points="356.862192 473.543864 361.014041 480.66143 74.743433 647.650014 70.5915841 640.532447"></polygon>
                            <path d="M279.147029,0.459183673 L279.147029,225.647959 C279.147029,278.841207 255.100275,326.41516 217.289688,358.081633 L203.956835,358.081633 C244.562046,328.152986 270.906349,279.978568 270.906349,225.647959 L270.906349,0.459183673 L279.147029,0.459183673 Z" id="Combined-Shape-Copy-2" fill-rule="nonzero"></path>
                            <path d="M247.751061,728.955076 L237.033107,728.955076 C225.350834,715.474521 211.25822,703.679233 194.939982,694.257894 L-0.0792179576,581.663507 L4.04112213,574.526868 L199.060322,687.121256 C218.341483,698.253239 234.663831,712.541224 247.751062,728.955074 Z" id="Combined-Shape-Copy-4" fill-rule="nonzero"></path>
                            <path d="M596.216934,728.955076 L585.951262,728.955076 C573.224205,712.453095 557.126748,698.11052 537.958295,687.043609 L342.939095,574.449221 L347.059435,567.312582 L542.078635,679.90697 C564.134141,692.640723 582.318095,709.504046 596.216934,728.955076 Z" id="Combined-Shape-Copy-6" fill-rule="nonzero"></path>
                            <path d="M520.193998,187.883647 L520.193998,413.072422 C520.193998,466.26567 496.147243,513.839623 458.336657,545.506096 L445.003803,545.506096 C485.609014,515.577449 511.953318,467.403031 511.953318,413.072422 L511.953318,187.883647 L520.193998,187.883647 Z" id="Combined-Shape-Copy-8" fill-rule="nonzero" transform="translate(482.598900, 366.694871) scale(-1, 1) rotate(-240.000000) translate(-482.598900, -366.694871) "></path>
                            <path d="M92.898406,444.74148 L92.5168981,436.510316 C93.9496334,436.44391 95.3869174,436.410612 96.8279922,436.410612 C147.460399,436.410612 188.505219,477.47644 188.505219,528.132653 C188.505219,578.788866 147.460399,619.854694 96.8279922,619.854694 C95.3869174,619.854694 93.9496334,619.821396 92.5168981,619.75499 L92.898406,611.523826 C94.204071,611.584343 95.5141517,611.614694 96.8279922,611.614694 C142.908628,611.614694 180.265219,574.238983 180.265219,528.132653 C180.265219,482.026323 142.908628,444.650612 96.8279922,444.650612 C95.5141517,444.650612 94.204071,444.680963 92.898406,444.74148 Z" id="Path-Copy" fill-rule="nonzero"></path>
                            <polygon id="Path-3-Copy-2" fill-rule="evenodd" transform="translate(105.885870, 623.214638) scale(1, -1) translate(-105.885870, -623.214638) " points="121.124259 633.786418 90.647482 631.832651 90.647482 612.642857"></polygon>
                            <path d="M623.201439,83.9412245 L623.201439,92.1812245 C572.569032,92.1812245 531.524212,51.1153962 531.524212,0.459183673 L539.764212,0.459183673 C539.764212,46.5655135 577.120803,83.9412245 623.201439,83.9412245 Z" id="Path-Copy-2" fill-rule="nonzero"></path>
                            <path d="M623.142199,699.198655 L623.260679,707.437804 C622.383276,707.450421 621.50511,707.456735 620.626226,707.456735 C521.352849,707.456735 440.87673,626.939426 440.87673,527.617347 C440.87673,428.295267 521.352849,347.777959 620.626226,347.777959 C621.50511,347.777959 622.383276,347.784273 623.260679,347.79689 L623.142199,356.036038 C622.304286,356.023989 621.465615,356.017959 620.626226,356.017959 C525.904619,356.017959 449.11673,432.84515 449.11673,527.617347 C449.11673,622.389544 525.904619,699.216735 620.626226,699.216735 C621.465615,699.216735 622.304286,699.210705 623.142199,699.198655 Z" id="Path-Copy-3" fill-rule="nonzero"></path>
                            <path d="M264.696756,0.376280792 L272.935088,0.542086555 C270.967515,98.3042037 191.121362,176.691429 93.2226946,176.691429 C93.1351849,176.691415 93.1351849,176.691415 93.0490027,176.691373 C92.87863,176.691292 92.87863,176.691292 92.7135725,176.691424 L92.7017316,168.451433 C92.879946,168.451291 92.879946,168.451291 93.0529479,168.451374 C93.1384721,168.451415 93.1384721,168.451415 93.2226946,168.451429 C186.632071,168.451429 262.819393,93.6561813 264.696756,0.376280792 Z" id="Path-Copy-4" fill-rule="nonzero"></path>
                            <polygon id="Line-7-Copy" fill-rule="nonzero" points="356.028409 572.516193 351.840735 579.612741 70.584181 413.643213 74.7718547 406.546665"></polygon>
                            <polygon id="Path-3" fill-rule="evenodd" points="121.124259 441.061928 90.647482 439.108161 90.647482 419.918367"></polygon>
                            <path d="M212.512143,351.57179 L217.112854,358.407802 C210.529862,362.838229 203.429207,367.50725 195.810617,372.415114 C188.133587,377.360623 142.554341,404.206413 58.7323432,453.156846 L54.5770093,446.041314 C138.12912,397.248489 183.833034,370.329272 191.348215,365.488024 C198.921835,360.609131 205.976569,355.970304 212.512143,351.57179 Z" id="Path-3-Copy" fill-rule="nonzero"></path>
                        </g>
                    </g>
                </g>
                <g id="Group-21-Copy" transform="translate(663.156638, 355.500000) scale(-1, 1) translate(-663.156638, -355.500000) translate(488.656638, 0.000000)" fill="#FFA866" fill-rule="nonzero">
                    <g id="Group-21" transform="translate(0.141923, 0.540816)">
                        <path d="M258.804948,710 C249.64828,701.347937 239.345141,693.617807 227.958295,687.043609 L32.9390947,574.449221 L37.0594348,567.312582 L232.078635,679.90697 C246.604599,688.293539 259.451213,698.471377 270.500331,710 L258.804948,710 Z" id="Combined-Shape"></path>
                        <path d="M211.530027,187.611881 L211.530027,412.800656 C211.530027,465.993904 187.483272,513.567857 149.672686,545.23433 L136.339832,545.23433 C176.945043,515.305683 203.289347,467.131265 203.289347,412.800656 L203.289347,187.611881 L211.530027,187.611881 Z" id="Combined-Shape-Copy-8" transform="translate(173.934930, 366.423105) scale(-1, 1) rotate(-240.000000) translate(-173.934930, -366.423105) "></path>
                        <path d="M313.201439,83.9412245 L313.201439,92.1812245 C262.569032,92.1812245 221.524212,51.1153962 221.524212,0.459183673 L229.764212,0.459183673 C229.764212,46.5655135 267.120803,83.9412245 313.201439,83.9412245 Z" id="Path-Copy-2"></path>
                        <path d="M313.142199,699.198655 L313.260679,707.437804 C312.383276,707.450421 311.50511,707.456735 310.626226,707.456735 C211.352849,707.456735 130.87673,626.939426 130.87673,527.617347 C130.87673,428.295267 211.352849,347.777959 310.626226,347.777959 C311.50511,347.777959 312.383276,347.784273 313.260679,347.79689 L313.142199,356.036038 C312.304286,356.023989 311.465615,356.017959 310.626226,356.017959 C215.904619,356.017959 139.11673,432.84515 139.11673,527.617347 C139.11673,622.389544 215.904619,699.216735 310.626226,699.216735 C311.465615,699.216735 312.304286,699.210705 313.142199,699.198655 Z" id="Path-Copy-3"></path>
                        <polygon id="Combined-Shape-Copy-9" points="309.514716 1.45918367 316.514716 1.45918367 316.514716 263.459184 309.514716 263.459184"></polygon>
                    </g>
                </g>
            </g>
        </g>
    </g>
</svg>