<?xml version="1.0" encoding="UTF-8"?>
<svg width="57px" height="57px" viewBox="0 0 57 57" version="1.1" xmlns="http://www.w3.org/2000/svg" xmlns:xlink="http://www.w3.org/1999/xlink">
    <!-- Generator: Sketch 52.2 (67145) - http://www.bohemiancoding.com/sketch -->
    <title>Group 22</title>
    <desc>Created with Sketch.</desc>
    <g id="Home" stroke="none" stroke-width="1" fill="none" fill-rule="evenodd">
        <g id="Home-Iex" transform="translate(-1152.000000, -2150.000000)">
            <g id="Group-20" transform="translate(43.000000, 2059.000000)">
                <g id="Group-17" transform="translate(1111.000000, 93.000000)">
                    <g id="Group-22">
                        <circle id="Oval" stroke="#262626" stroke-width="4" cx="26.5" cy="26.5" r="26.5"></circle>
                        <g id="drop" transform="translate(16.000000, 12.000000)" fill="#262626">
                            <path d="M11.902385,2.97137288 C11.2958122,2.05611864 10.7606009,1.21408475 10.2610704,0.445271186 C10.1897089,0.335440678 10.0826667,0.225610169 9.97562441,0.152389831 C9.5474554,-0.140491525 8.97656338,0.00594915254 8.69111737,0.445271186 C8.22726761,1.21408475 7.69205634,2.01950847 7.04980282,2.97137288 C4.23102347,7.21815254 0.0206948357,13.6249322 0.0206948357,17.2859492 C0.0206948357,19.9584915 1.09111737,22.3747627 2.80379343,24.1320508 C4.51646948,25.8527288 6.87139906,26.9510339 9.4760939,26.9510339 C12.0807887,26.9510339 14.4357183,25.8527288 16.1483944,24.0954407 C17.8610704,22.3381525 18.931493,19.9218814 18.931493,17.249339 C18.931493,13.588322 14.7211643,7.21815254 11.902385,2.97137288 Z M14.8638873,22.7774746 C13.472338,24.2052712 11.5812582,25.0473051 9.4760939,25.0473051 C7.37092958,25.0473051 5.47984977,24.168661 4.08830047,22.7774746 C2.69675117,21.349678 1.8760939,19.409339 1.8760939,17.249339 C1.8760939,14.1740847 5.90801878,8.06018644 8.58407512,3.99645763 C8.90520188,3.52052542 9.19064789,3.04459322 9.4760939,2.64188136 C9.76153991,3.04459322 10.0469859,3.52052542 10.3681127,3.99645763 C13.044169,8.09679661 17.0760939,14.1740847 17.0760939,17.249339 C17.0760939,19.409339 16.2197559,21.349678 14.8638873,22.7774746 Z" id="Shape" fill-rule="nonzero"></path>
                            <path d="M15.0066103,16.5903559 C14.5070798,16.5537458 14.0789108,16.9564576 14.04323,17.469 C14.0075493,18.2744237 13.757784,19.0432373 13.3652958,19.7022203 C12.9728075,20.3612034 12.4019155,20.9469661 11.7239812,21.3130678 C11.2958122,21.569339 11.1174085,22.1551017 11.3671737,22.5944237 C11.6526197,23.1069661 12.2235117,23.2534068 12.6516808,22.9971356 C13.615061,22.4479831 14.4000376,21.6425593 14.9352488,20.7273051 C15.5061408,19.8120508 15.8272676,18.7137458 15.8629484,17.5788305 C15.8986291,17.0662881 15.5061408,16.6269661 15.0066103,16.5903559 Z" id="Path"></path>
                        </g>
                    </g>
                </g>
            </g>
        </g>
    </g>
</svg>