<?xml version="1.0" encoding="UTF-8"?>
<svg width="34px" height="34px" viewBox="0 0 34 34" version="1.1" xmlns="http://www.w3.org/2000/svg" xmlns:xlink="http://www.w3.org/1999/xlink">
    <!-- Generator: Sketch 52.2 (67145) - http://www.bohemiancoding.com/sketch -->
    <title>icon-linkedin</title>
    <desc>Created with Sketch.</desc>
    <g id="Detalle-servicio" stroke="none" stroke-width="1" fill="none" fill-rule="evenodd">
        <g id="Detalle-consolidacion" transform="translate(-86.000000, -741.000000)">
            <g id="sidebar-top">
                <g id="icon-linkedin" transform="translate(88.000000, 743.000000)">
                    <circle id="Oval-Copy" stroke="#262626" stroke-width="3" cx="15" cy="15" r="15"></circle>
                    <g id="linkedin-logo" transform="translate(7.000000, 7.000000)" fill="#000000" fill-rule="nonzero">
                        <path d="M15.9672204,9.1945267 L15.9672204,14.9839806 L12.5449281,14.9839806 L12.5449281,9.58226942 C12.5449281,8.22531553 12.0499304,7.29924757 10.811174,7.29924757 C9.8655406,7.29924757 9.3027935,7.92334951 9.05522042,8.52706311 C8.96493735,8.74288835 8.94169838,9.04328883 8.94169838,9.34540049 L8.94169838,14.9839806 L5.51825522,14.9839806 C5.51825522,14.9839806 5.56436195,5.83525485 5.51825522,4.88737864 L8.94136427,4.88737864 L8.94136427,6.31853155 C8.93442227,6.32923544 8.92540139,6.3407767 8.91886775,6.35115291 L8.94136427,6.35115291 L8.94136427,6.31853155 C9.39615777,5.6315534 10.2083712,4.65018204 12.0263573,4.65018204 C14.2787193,4.65014563 15.9672204,6.09324029 15.9672204,9.1945267 Z M1.93718794,0.020315534 C0.766032483,0.020315534 0,0.773701456 0,1.76442961 C0,2.73356796 0.74387007,3.50981796 1.89174942,3.50981796 L1.91461717,3.50981796 C3.10845476,3.50981796 3.85091415,2.73371359 3.85091415,1.76442961 C3.82841763,0.773701456 3.10845476,0.020315534 1.93718794,0.020315534 Z M0.203322506,14.9839806 L3.62546636,14.9839806 L3.62546636,4.88737864 L0.203322506,4.88737864 L0.203322506,14.9839806 Z" id="LinkedIn"></path>
                    </g>
                </g>
            </g>
        </g>
    </g>
</svg>