<?xml version="1.0" encoding="UTF-8"?>
<svg width="57px" height="57px" viewBox="0 0 57 57" version="1.1" xmlns="http://www.w3.org/2000/svg" xmlns:xlink="http://www.w3.org/1999/xlink">
    <!-- Generator: Sketch 52.2 (67145) - http://www.bohemiancoding.com/sketch -->
    <title>Group 13</title>
    <desc>Created with Sketch.</desc>
    <g id="Home" stroke="none" stroke-width="1" fill="none" fill-rule="evenodd">
        <g id="Home-Iex" transform="translate(-1265.000000, -2150.000000)">
            <g id="Group-20" transform="translate(43.000000, 2059.000000)">
                <g id="Group-11-Copy-2" transform="translate(1181.000000, 93.000000)">
                    <g id="Group-13" transform="translate(43.000000, 0.000000)">
                        <circle id="Oval-Copy-9" stroke="#262626" stroke-width="4" cx="26.5" cy="26.5" r="26.5"></circle>
                        <g id="shield" transform="translate(16.000000, 17.000000)" fill="#000000" fill-rule="nonzero">
                            <path d="M10,0.0510204082 C4.51408163,0.0510204082 0.0510204082,4.51408163 0.0510204082,10 C0.0510204082,15.4859184 4.51408163,19.9489796 10,19.9489796 C15.4859184,19.9489796 19.9489796,15.4859184 19.9489796,10 C19.9489796,4.51408163 15.4859184,0.0510204082 10,0.0510204082 Z M18.3820408,9.23469388 L15.3422449,9.23469388 C15.2323469,6.4294898 14.5221429,3.98204082 13.442551,2.32061224 C16.1509184,3.53959184 18.102449,6.14867347 18.3820408,9.23469388 Z M9.23469388,1.77438776 L9.23469388,9.23469388 L6.19061224,9.23469388 C6.27765306,7.1894898 6.71214286,5.29928571 7.43755102,3.84836735 C7.95571429,2.81214286 8.58459184,2.09602041 9.23469388,1.77438776 Z M9.23469388,10.7653061 L9.23469388,18.2256122 C8.58459184,17.9039796 7.95571429,17.1879592 7.43755102,16.1516327 C6.71214286,14.7008163 6.27765306,12.8105102 6.19061224,10.7653061 L9.23469388,10.7653061 Z M10.7653061,18.2256122 L10.7653061,10.7653061 L13.8093878,10.7653061 C13.7223469,12.8105102 13.2878571,14.7007143 12.562449,16.1516327 C12.0442857,17.1878571 11.4154082,17.9039796 10.7653061,18.2256122 Z M10.7653061,9.23469388 L10.7653061,1.77438776 C11.4154082,2.09602041 12.0442857,2.81204082 12.562449,3.84836735 C13.2878571,5.29918367 13.7223469,7.1894898 13.8093878,9.23469388 L10.7653061,9.23469388 Z M6.55755102,2.32061224 C5.47785714,3.98204082 4.76765306,6.42938776 4.65785714,9.23469388 L1.61806122,9.23469388 C1.89755102,6.14867347 3.84908163,3.53959184 6.55755102,2.32061224 Z M1.61795918,10.7653061 L4.6577551,10.7653061 C4.76765306,13.5705102 5.47785714,16.0179592 6.55744898,17.6793878 C3.84908163,16.4604082 1.89755102,13.8513265 1.61795918,10.7653061 Z M13.442449,17.6793878 C14.5221429,16.0179592 15.2323469,13.5706122 15.3421429,10.7653061 L18.3819388,10.7653061 C18.102449,13.8513265 16.1509184,16.4604082 13.442449,17.6793878 Z" id="Shape"></path>
                        </g>
                    </g>
                </g>
            </g>
        </g>
    </g>
</svg>