<?xml version="1.0" encoding="UTF-8"?>
<svg width="57px" height="57px" viewBox="0 0 57 57" version="1.1" xmlns="http://www.w3.org/2000/svg" xmlns:xlink="http://www.w3.org/1999/xlink">
    <!-- Generator: Sketch 52.2 (67145) - http://www.bohemiancoding.com/sketch -->
    <title>Group 25</title>
    <desc>Created with Sketch.</desc>
    <g id="Home" stroke="none" stroke-width="1" fill="none" fill-rule="evenodd">
        <g id="Home-Iex" transform="translate(-954.000000, -2150.000000)">
            <g id="Group-20" transform="translate(43.000000, 2059.000000)">
                <g id="Group-14" transform="translate(913.000000, 93.000000)">
                    <g id="Group-25">
                        <circle id="Oval" stroke="#262626" stroke-width="4" cx="26.5" cy="26.5" r="26.5"></circle>
                        <g id="idea" transform="translate(17.000000, 15.000000)" fill="#000000">
                            <path d="M4.5086,17.6661184 L4.9233,19.3492544 C5.0064,19.6864868 5.3066,19.9232456 5.6511,19.9232456 L13.3488,19.9232456 C13.6933,19.9232456 13.9935,19.686386 14.0766,19.3492544 L14.4913,17.6661184 C17.2601,15.9294167 18.9669,12.8495351 18.9669,9.55004386 C18.967,4.28415351 14.7201,0 9.5,0 C4.2799,0 0.033,4.28415351 0.033,9.55004386 C0.033,12.8495351 1.7398,15.9294167 4.5086,17.6661184 Z M9.5,1.51315789 C13.893,1.51315789 17.467,5.11850877 17.467,9.55004386 C17.467,12.4189912 15.9335,15.0908246 13.4649,16.5225746 C13.2879,16.6252675 13.1601,16.7961535 13.1109,16.9958904 L12.7624,18.4100877 L6.2376,18.4100877 L5.8891,16.9958904 C5.8399,16.7961535 5.712,16.6251667 5.5351,16.5225746 C3.0665,15.0908246 1.533,12.4189912 1.533,9.55004386 C1.533,5.11850877 5.107,1.51315789 9.5,1.51315789 Z" id="Shape" stroke="#262626" stroke-width="1.2" fill-rule="nonzero"></path>
                            <path d="M13.3488,21.4364035 L5.6511,21.4364035 C5.2368,21.4364035 4.9011,21.7750482 4.9011,22.1929825 C4.9011,22.6109167 5.2368,22.9495614 5.6511,22.9495614 L13.3488,22.9495614 C13.7631,22.9495614 14.0988,22.6109167 14.0988,22.1929825 C14.0988,21.7750482 13.7631,21.4364035 13.3488,21.4364035 Z" id="Path"></path>
                        </g>
                    </g>
                </g>
            </g>
        </g>
    </g>
</svg>