<?xml version="1.0" encoding="UTF-8"?>
<svg width="57px" height="57px" viewBox="0 0 57 57" version="1.1" xmlns="http://www.w3.org/2000/svg" xmlns:xlink="http://www.w3.org/1999/xlink">
    <!-- Generator: Sketch 52.2 (67145) - http://www.bohemiancoding.com/sketch -->
    <title>Group 23</title>
    <desc>Created with Sketch.</desc>
    <g id="Home" stroke="none" stroke-width="1" fill="none" fill-rule="evenodd">
        <g id="Home-Iex" transform="translate(-1054.000000, -2150.000000)">
            <g id="Group-20" transform="translate(43.000000, 2059.000000)">
                <g id="Group-11-Copy" transform="translate(998.000000, 93.000000)">
                    <g id="Group-23" transform="translate(14.059121, 0.000000)">
                        <circle id="Oval-Copy-8" stroke="#262626" stroke-width="4" cx="27.4408788" cy="26.5" r="26.5"></circle>
                        <path d="M41.9647999,22.9594939 L30.1554495,10.9389777 C28.9346375,9.69626518 26.9479553,9.69619433 25.7270041,10.9389777 C24.6294635,12.0560729 24.5349391,13.7598077 25.3454263,14.9763765 L25.3289994,15.0600506 C24.4775841,19.3936032 22.4047999,23.3359919 19.3345679,26.4610526 L13.9179321,31.9745445 C12.694127,33.2203036 12.6939182,35.236417 13.9179321,36.4821761 L16.8701827,39.4872166 C18.0939182,40.7329049 20.0747535,40.7329757 21.2986282,39.4872166 L22.0367256,38.7359211 L27.2032686,43.9948482 C28.4270737,45.2406073 30.4077697,45.2406781 31.6316444,43.9948482 C32.8525957,42.7521356 32.8525957,40.73 31.6316444,39.4872874 L29.4174217,37.2334717 L30.1555191,36.4821761 C31.3793242,35.2365587 31.3794635,33.2204453 30.1555191,31.9746154 L29.6539414,31.463998 C32.1213892,29.7055668 34.9236398,28.4813462 37.916192,27.8721053 L37.9994403,27.8551721 C39.2212268,28.6948178 40.891134,28.5598482 41.9647999,27.4669838 L41.9648695,27.4669838 C43.185612,26.2243421 43.185612,24.2022773 41.9647999,22.9594939 Z M19.8225029,37.9846964 C19.4146143,38.3998077 18.7541966,38.3998785 18.346308,37.9846255 L15.3940574,34.979585 C14.9860992,34.5642611 14.9860992,33.8923178 15.3940574,33.4770648 L20.5605307,28.2181377 L24.9889762,32.7257692 C24.4835006,33.2402834 20.3404379,37.4574291 19.8225029,37.9846964 Z M30.1554495,40.9897368 C30.5623637,41.4039271 30.5623637,42.077996 30.1554495,42.4922571 C29.7485354,42.9064474 29.0862384,42.9064474 28.6793242,42.4922571 L23.5127813,37.23333 L24.9889762,35.7308097 L30.1554495,40.9897368 Z M26.4651015,34.2282895 C26.7788834,33.9088968 27.2485818,33.4196761 27.9898811,32.7752227 L28.6793242,33.4770648 C29.0872825,33.8923178 29.0872825,34.5642611 28.6793242,34.979585 L27.9412268,35.7308806 L26.4651015,34.2282895 Z M26.5094403,31.2684514 L21.9921781,26.670415 C24.4129901,23.8251417 26.1465864,20.4664879 27.0740806,16.8177024 L36.189069,26.0956781 C32.6043823,27.0396862 29.3047999,28.8042814 26.5094403,31.2684514 Z M40.4884658,25.9643927 C40.0805075,26.3795749 39.4202987,26.3795749 39.0123405,25.9643927 L27.2031294,13.9440182 C26.7951711,13.5286943 26.7951711,12.856751 27.2031294,12.441498 C27.6110876,12.0262449 28.271366,12.0262449 28.6793242,12.441498 L40.4884658,24.4618016 C40.8953799,24.8760628 40.8953799,25.5500607 40.4884658,25.9643927 Z" id="Shape" fill="#262626" fill-rule="nonzero"></path>
                    </g>
                </g>
            </g>
        </g>
    </g>
</svg>