<?xml version="1.0" encoding="UTF-8"?>
<svg width="86px" height="102px" viewBox="0 0 86 102" version="1.1" xmlns="http://www.w3.org/2000/svg" xmlns:xlink="http://www.w3.org/1999/xlink">
    <!-- Generator: Sketch 52.2 (67145) - http://www.bohemiancoding.com/sketch -->
    <title>Group 2</title>
    <desc>Created with Sketch.</desc>
    <g id="Detalle-servicio" stroke="none" stroke-width="1" fill="none" fill-rule="evenodd">
        <g id="Detalle-consolidacion" transform="translate(-41.000000, -1058.000000)">
            <g id="Group-2" transform="translate(40.000000, 1058.000000)">
                <g id="Group-36" transform="translate(0.858000, 0.000000)" fill="#333333">
                    <path d="M30.6605468,2.57334086 C30.6616581,2.94978691 30.9872625,3.25371173 31.3878782,3.25371173 C31.7884939,3.25260453 32.1135427,2.94757252 32.1124314,2.57112647 C32.1118758,2.19468043 31.7862714,1.89186281 31.3856557,1.8924164 C30.98504,1.89297 30.6605468,2.19744842 30.6605468,2.57334086 L30.6605468,2.57334086 Z M25.8748284,9.11741245 C25.9409495,8.22778187 26.1554261,7.32984734 26.4660283,6.47786137 C26.3443434,6.69154986 26.1037517,6.83825309 25.8259322,6.83880669 C25.4253165,6.83936029 25.0997121,6.53598906 25.0991565,6.16009662 C25.0986008,5.78475777 25.423094,5.47861856 25.8237097,5.47806496 C26.2254366,5.47751137 26.5504854,5.78198978 26.5510411,6.15788223 C26.5510411,6.20106281 26.5477072,6.24424338 26.538817,6.28576317 C26.9455447,5.23005345 27.4972942,4.25184734 28.0884941,3.45577468 C27.9629197,3.55154698 27.8028956,3.60967468 27.6278694,3.61022827 C27.2272537,3.61078187 26.9016492,3.30630345 26.9010936,2.93041101 C26.8999823,2.55507216 27.2244755,2.24893295 27.6250912,2.24837935 C28.0273738,2.24782576 28.3524226,2.55230417 28.3535339,2.92819662 C28.3535339,3.01511137 28.3357534,3.09649014 28.3057489,3.17344014 C28.7274789,2.64475489 29.1630998,2.21294914 29.5753839,1.9128995 C31.8585044,0.0987617266 33.8621385,-0.385635755 35.3890344,0.868261727 C36.8014686,1.94888331 31.8057187,6.67660273 30.3877281,9.34936964 C29.3486832,11.283638 29.6970689,11.3423193 32.3480223,13.751574 C34.1532933,15.433402 34.2371948,15.4721538 34.9839736,16.2361178 C35.6729659,16.9386326 35.8229884,17.3637952 35.1867818,18.2135668 C33.9571528,19.5023409 33.0586846,20.6676628 30.8200152,22.8161732 C30.4288454,23.2263887 30.5377506,23.4976513 31.0267129,23.940529 C32.1729961,24.9995603 34.4783421,26.9554189 35.7613125,28.4667391 C36.2124913,28.9611013 36.2474966,29.5362887 35.81132,30.0749387 C35.0423157,31.1085045 33.718228,32.5323563 32.5586095,33.8250056 C31.9974142,34.4926437 32.0074157,34.6692412 32.6358433,35.1209765 C34.8295059,36.7236401 36.0619132,37.6619873 37.0337257,38.4337017 C38.4283795,39.3786919 37.9738668,39.8127121 37.2370896,41.0278578 C35.7807598,42.9543758 34.4827872,44.5913624 32.8908816,45.6553761 C32.0940953,46.141988 30.7650069,46.2870304 30.5594205,44.9993635 C30.5010784,44.3516549 31.0072655,43.6098347 31.7629345,42.83037 C31.6456947,42.9056592 31.5045624,42.9505006 31.3506504,42.9505006 C30.9500347,42.9516078 30.6244303,42.6487901 30.6238746,42.2712369 C30.6227634,41.8970053 30.9478122,41.590866 31.3484279,41.590866 C31.7490435,41.5903124 32.074648,41.8947909 32.0757593,42.2690225 C32.0757593,42.3980106 32.0379758,42.5153732 31.9735217,42.6183423 C32.596393,42.0055103 33.3548401,41.3727488 34.1005076,40.7455232 C34.4411143,40.4654031 34.3094279,40.2982168 33.7587897,39.8381776 C33.2020394,39.4296229 32.668626,39.0155322 32.1329901,38.589816 C32.2396727,38.7071786 32.3024599,38.8588642 32.3024599,39.025497 C32.3035712,39.4002822 31.9790781,39.7053142 31.5779067,39.7064214 C31.1772911,39.7064214 30.8516866,39.4024966 30.8516866,39.0277114 C30.8505753,38.6523725 31.1750685,38.3462333 31.5756842,38.3462333 C31.7123714,38.3462333 31.8401683,38.3811099 31.9490736,38.441452 C31.1522873,37.8037081 30.3471664,37.1349628 29.4581441,36.4136258 C29.5253764,36.5165948 29.5642711,36.6378326 29.5642711,36.7668207 C29.5648268,37.1427132 29.239778,37.446638 28.8397179,37.4477452 C28.4391023,37.4488524 28.1134978,37.1449276 28.1129422,36.7690351 C28.1123865,36.3936963 28.4368797,36.0886642 28.8374954,36.0875571 C28.9369548,36.0875571 29.0325247,36.1058258 29.1208713,36.1407024 L28.5891248,35.716647 C27.8756843,35.0357225 27.8745731,34.5618434 28.6530233,33.6827312 L29.0436374,33.243175 C28.9325096,33.3090531 28.8019345,33.3455905 28.6624691,33.3455905 C28.2612978,33.3466977 27.9356934,33.0422193 27.9345821,32.6668804 C27.9345821,32.2904344 28.2590752,31.9865096 28.6602466,31.9854024 C29.0603066,31.9848488 29.3864667,32.2876664 29.3864667,32.6641124 C29.3870223,32.752688 29.3692419,32.8362812 29.3375705,32.9132312 C29.9148793,32.2605401 30.5116356,31.5790621 31.0294911,30.98007 C30.903361,31.0791639 30.7416701,31.1378452 30.5649769,31.1383988 C30.1638056,31.1389524 29.8387568,30.8350276 29.8382012,30.4585815 C29.8376455,30.0832427 30.1621387,29.7782106 30.5627544,29.7776571 C30.9639257,29.7765499 31.2889745,30.0804747 31.2900858,30.4558135 C31.2900858,30.5709617 31.2600813,30.6794668 31.2067399,30.7735783 L31.7890495,30.090993 C32.1935547,29.5545574 32.4397028,29.475393 31.95463,28.9699588 C31.4767805,28.512134 30.8561317,27.9408218 30.2060341,27.3434905 C30.2710439,27.4453524 30.3088274,27.5654829 30.3088274,27.6928103 C30.3099386,28.0692563 29.9848898,28.3737347 29.5842741,28.3748419 C29.1831028,28.3748419 28.858054,28.0714707 28.858054,27.6955783 C28.8569427,27.3191322 29.1808803,27.0146538 29.5820516,27.0135466 C29.713738,27.0135466 29.8376455,27.0462088 29.9443282,27.1037829 C29.2442231,26.4610567 28.5268932,25.8028297 27.9268031,25.2315175 C27.9779219,25.3245218 28.0057039,25.4285981 28.0062595,25.5393175 C28.0062595,25.9163171 27.6817663,26.2213491 27.2811507,26.2219027 C26.8794237,26.2224563 26.5543749,25.9190851 26.5538193,25.5420855 C26.5532636,25.166193 26.8772011,24.861161 27.2789281,24.8600538 C27.4039469,24.8600538 27.522298,24.8899481 27.6239799,24.9419862 C27.2983755,24.6269894 27.0216673,24.3485301 26.8199703,24.1293056 C26.1470915,23.3420905 26.1859863,22.7829574 26.8566425,22.0660491 C27.074453,21.8462711 27.3367146,21.5716869 27.6306476,21.2627797 C27.5150747,21.3353009 27.3778318,21.3768207 27.2294762,21.3773743 C26.8288605,21.3773743 26.5032561,21.0745567 26.5021448,20.6981106 C26.5015892,20.321111 26.8260823,20.0177398 27.226698,20.0171862 C27.6273137,20.016079 27.9529182,20.3188966 27.9529182,20.6953427 C27.9534738,20.8077229 27.9251362,20.9134599 27.8745731,21.0064642 C28.4268782,20.4257409 29.0697525,19.7531204 29.7304072,19.1115013 C29.627614,19.1652002 29.5070403,19.1956481 29.379799,19.1962017 C28.9791833,19.1962017 28.6541345,18.8928304 28.6535789,18.5174916 C28.6530233,18.1410455 28.9769608,17.8360135 29.3775765,17.8354599 C29.7793034,17.8349063 30.1049079,18.1388312 30.1049079,18.5147236 C30.1054635,18.6276574 30.075459,18.736716 30.0226733,18.8308276 C30.2427063,18.6210142 30.4660732,18.4167369 30.6866618,18.2213171 C31.1972941,17.8111017 31.2806399,17.5149272 30.9800392,17.1916265 C30.2938251,16.5538826 29.6731764,16.0141254 29.1030908,15.5114592 C29.1758795,15.6183035 29.2192194,15.7445236 29.2192194,15.8807085 C29.2203306,16.2566009 28.8947262,16.5616329 28.4946661,16.5627401 C28.0940505,16.5632937 27.768446,16.2588153 27.7678904,15.8829229 C27.7673347,15.5070304 28.0918279,15.2014448 28.4924436,15.2008912 C28.6224631,15.2003376 28.7447037,15.2335535 28.8508307,15.2889132 C28.1351677,14.6555981 27.4967386,14.0704459 26.8999823,13.4055758 C26.9538793,13.5002409 26.9844395,13.6081923 26.9849951,13.7227869 C26.9849951,14.0981258 26.6610576,14.4037114 26.2598862,14.404265 C25.8581593,14.4053722 25.5336661,14.1003401 25.5331105,13.7255549 C25.5325548,13.3480017 25.8564924,13.0429696 26.2576637,13.0429696 C26.4315787,13.042416 26.5904914,13.0994365 26.7149546,13.1941017 L26.5871576,13.0429696 C26.2965584,12.6914355 25.8075961,11.8460927 25.8075961,10.2179635 C25.7609225,10.5506754 25.4569879,10.8086517 25.089155,10.8092053 C24.6879836,10.8103124 24.3629348,10.5052804 24.3623792,10.1288344 C24.3618236,9.75404914 24.6857611,9.44846353 25.0869324,9.44790993 C25.4614331,9.44680273 25.7687014,9.71086856 25.8098187,10.0513308 C25.8153751,9.76235309 25.8353781,9.45233871 25.8748284,9.11741245 L25.8748284,9.11741245 Z M42.7562514,44.488947 C45.2599605,36.170043 46.3223422,26.986974 46.30734,18.3403405 C46.3006723,14.2376322 45.8644957,10.1083513 44.9682501,6.0875754 L48.7971581,6.08093223 C49.5072647,10.314843 49.8028647,14.6079887 49.8106436,18.893384 C49.8267571,28.859793 48.4837778,38.4945973 44.6426456,47.8160657 L44.054224,47.8398704 L42.7523619,47.8415312 L41.4399427,47.8437455 L40.8531879,47.8210481 C36.98094,38.5139732 35.6062892,28.8830441 35.5901757,18.9171887 C35.5829524,14.6312398 35.8641057,10.3364333 36.5608769,6.10086173 L40.2364287,6.09532576 C39.3524071,10.1188696 39.0829222,14.2498114 39.0895899,18.3525196 C39.1040365,26.9985995 40.1975339,36.178347 42.7279138,44.488947 L42.7562514,44.488947 Z M58.8036602,6.10473691 C58.8036602,5.72939806 59.1292646,5.42325885 59.528769,5.42270525 C59.930496,5.42215165 60.2549892,5.72663007 60.2561004,6.10252252 C60.2561004,6.47896856 59.9327186,6.78289338 59.5309916,6.78344698 C59.2542834,6.78344698 59.0120248,6.63895813 58.8903399,6.42471604 C59.2042759,7.27559482 59.422642,8.17297576 59.4898743,9.06260633 C59.5254352,9.36154878 59.5471051,9.64056173 59.5559953,9.90185957 C59.6360074,9.6078995 59.9204945,9.39033583 60.258323,9.39033583 C60.6594943,9.38978223 60.9850988,9.69426065 60.9856544,10.0695995 C60.98621,10.4449383 60.6617169,10.750524 60.2599899,10.7516312 C59.9282735,10.7521847 59.6471201,10.5423714 59.5615517,10.2550545 C59.5482164,11.8233952 59.0753676,12.6449333 58.7919918,12.9903779 L58.7158692,13.0817214 C58.8225519,13.0235937 58.947015,12.9887171 59.0792571,12.9887171 C59.4798728,12.9881635 59.8054772,13.2920883 59.8054772,13.669088 C59.8065885,14.0444268 59.4820954,14.3500124 59.0814797,14.350566 C58.680864,14.3511196 58.3547039,14.0466412 58.3547039,13.6713024 C58.3541483,13.5926916 58.3674836,13.5185096 58.3924874,13.4487563 C57.839071,14.0604812 57.2478711,14.6085423 56.5888833,15.1964624 C56.6922321,15.1438707 56.8105832,15.1123157 56.9350464,15.1123157 C57.3351064,15.1117621 57.6601552,15.4162405 57.6612665,15.7937937 C57.6612665,16.1691326 57.337329,16.473611 56.9372689,16.4741646 C56.535542,16.4747182 56.2104932,16.1707934 56.2099375,15.7960081 C56.2099375,15.6636984 56.2488323,15.5407999 56.3171758,15.4372772 C55.7393113,15.9493545 55.1097724,16.5001837 54.4118898,17.1528747 C54.1135117,17.4783898 54.1968576,17.7734571 54.7091567,18.1814581 C54.936413,18.3824139 55.1664476,18.5927808 55.3953708,18.8070229 C55.3420295,18.7140186 55.3125806,18.6071743 55.312025,18.4947941 C55.3114693,18.1177945 55.6359625,17.8122088 56.0365782,17.8116553 C56.4383051,17.8111017 56.7633539,18.1150265 56.7639096,18.4925797 C56.7639096,18.8679186 56.4399721,19.172397 56.0388007,19.1729506 C55.9126707,19.1735042 55.7926527,19.1436099 55.6887482,19.0904646 C56.3371788,19.7165829 56.9644952,20.3681668 57.5079101,20.933943 C57.4584583,20.8425995 57.4290094,20.737416 57.4290094,20.6266966 C57.4284538,20.2502506 57.7523913,19.9463258 58.1535626,19.9457722 C58.5552896,19.944665 58.880894,20.2474826 58.880894,20.6239286 C58.8820053,20.9998211 58.5575121,21.3054067 58.1557852,21.3059603 C58.0085408,21.3059603 57.8707424,21.2655477 57.7562808,21.1946873 C58.0596596,21.509684 58.3274776,21.7903578 58.5519557,22.014011 C59.2237232,22.7287049 59.2648405,23.287838 58.5941843,24.0772675 C58.4024889,24.288188 58.1407829,24.5528074 57.8346258,24.8523035 C57.9279732,24.8124445 58.0302108,24.789747 58.1402273,24.789747 C58.5397317,24.7886398 58.8647805,25.0925646 58.8658918,25.4673499 C58.8658918,25.8449031 58.5425099,26.1499351 58.1424498,26.1504887 C57.7390559,26.1510423 57.4145628,25.8471175 57.4134515,25.4701178 C57.4134515,25.3754527 57.4356771,25.2846628 57.4717936,25.2027304 C56.8778156,25.7701675 56.1704872,26.4245193 55.4803836,27.0622632 C55.5870662,27.0041355 55.7098625,26.9709196 55.8421045,26.9709196 C56.2427202,26.970366 56.5683247,27.2737373 56.5688803,27.6501833 C56.5694359,28.0260758 56.2449428,28.3305542 55.8443271,28.3316614 C55.444267,28.332215 55.1175513,28.0282901 55.1175513,27.6529513 C55.1169957,27.5250704 55.1558904,27.4043862 55.2203445,27.3025243 C54.5713582,27.90207 53.9529321,28.4755966 53.4767495,28.9345286 C52.9922323,29.4416236 53.2400473,29.5202344 53.6456637,30.0555628 L54.2296403,30.7348265 C54.1890786,30.6517869 54.1668531,30.558229 54.1668531,30.4613495 C54.1662974,30.0849035 54.4907906,29.780425 54.8919619,29.7798714 C55.2931332,29.7787642 55.6176264,30.0821355 55.618182,30.4585815 C55.6187377,30.834474 55.2953558,31.1400596 54.8941845,31.1411668 C54.7358274,31.1411668 54.5891387,31.0935574 54.4702319,31.0132858 C54.9947551,31.6167067 55.5970677,32.2976312 56.1743766,32.9453398 C56.1249248,32.8534427 56.0976985,32.7515808 56.0971428,32.641415 C56.0971428,32.2666297 56.4210803,31.9604905 56.8228073,31.9593833 C57.2228673,31.9588297 57.5484718,32.2644153 57.5490274,32.6397542 C57.5495831,33.0145394 57.2250899,33.3206786 56.8250299,33.3217858 C56.6605607,33.3217858 56.5105382,33.2708549 56.3882976,33.1856009 L56.7939141,33.6367826 C57.5751425,34.5131268 57.5751425,34.987006 56.8644802,35.6701448 L56.3521811,36.0820211 C56.4283036,36.056002 56.5105382,36.0421621 56.5966622,36.0421621 C56.9967223,36.0416085 57.3223267,36.3455333 57.3228824,36.7214258 C57.323438,37.0973182 56.9989448,37.401243 56.5988848,37.4023502 C56.1977135,37.4034574 55.8726647,37.0995326 55.8715534,36.7236401 C55.8715534,36.6084919 55.9010023,36.4994333 55.9560105,36.4047682 C55.1392212,37.0696383 54.3941094,37.6929887 53.6595547,38.2869984 C53.7356772,38.2620865 53.8201344,38.2465858 53.9073697,38.2465858 C54.3068741,38.2465858 54.6330342,38.5494035 54.6335898,38.9269567 C54.6341454,39.3022955 54.3090966,39.606774 53.9095922,39.6078812 C53.5078653,39.6078812 53.1822608,39.3045099 53.1811495,38.9302783 C53.1811495,38.8101477 53.2139322,38.6988747 53.2700518,38.6025488 C52.757197,39.0133178 52.2426753,39.4135686 51.7092619,39.8093905 C51.1586237,40.2699833 51.0286042,40.4382768 51.3697665,40.7172898 C52.1165453,41.3423009 52.877215,41.9728481 53.5023089,42.5823585 C53.4384104,42.4810502 53.39896,42.3620268 53.3984044,42.2346995 C53.3984044,41.8593606 53.7228975,41.5543286 54.1246245,41.5532214 C54.5246846,41.5532214 54.850289,41.8571463 54.8508446,42.2324851 C54.8514003,42.6083776 54.5274627,42.9123024 54.1262914,42.9134096 C53.9723794,42.9134096 53.8306915,42.870229 53.712896,42.7943862 C54.4718989,43.5710829 54.9797529,44.3117959 54.924189,44.9589509 C54.7236033,46.2482786 53.3934036,46.107665 52.5960617,45.6232675 C50.999711,44.5647898 49.6972933,42.9316783 48.2337402,41.0106963 C47.4925179,39.7972114 47.0368939,39.364852 48.4282139,38.4154329 C49.3978039,37.640397 50.6268772,36.6976211 52.8160947,35.0877606 C53.4417442,34.6332574 53.4506344,34.4583207 52.8894391,33.7923434 C51.7237086,32.5030157 50.3951758,31.0835927 49.6239489,30.0522412 C49.1844385,29.515252 49.2188881,28.9400646 49.6678444,28.4440416 C50.945814,26.9282927 53.245048,24.9646837 54.3868861,23.9017772 C54.8747371,23.4577923 54.9836423,23.1859761 54.5908056,22.7774214 C52.3454685,20.6361078 51.441444,19.4735538 50.2084811,18.1892085 C49.5694963,17.3410977 49.7184075,16.9159351 50.4051773,16.2100988 C51.1486222,15.444474 51.2325237,15.4057222 53.0327939,13.7178045 C55.6748572,11.3002459 56.0232428,11.2404574 54.9786416,9.30951065 C53.5517607,6.64117252 48.5404529,1.93006101 49.9495533,0.84445705 C51.4720041,-0.413869209 53.4773051,0.0638851079 55.7665376,1.86971892 C56.1882676,2.17364374 56.6338901,2.61762863 57.0661772,3.15849302 C57.0322832,3.07877504 57.0133915,2.99241388 57.0133915,2.90162396 C57.0122802,2.52628511 57.3367733,2.22125309 57.737389,2.2206995 C58.1385604,2.2201459 58.4641648,2.52407072 58.4647204,2.89940957 C58.4652761,3.27640921 58.1407829,3.58088763 57.7401672,3.58088763 C57.5590289,3.58144122 57.3934485,3.52054554 57.2662072,3.41868367 C57.857407,4.21032755 58.4086009,5.1824441 58.8181068,6.23317144 C58.8081053,6.19109806 58.8036602,6.14791748 58.8036602,6.10473691 L58.8036602,6.10473691 Z M53.0489075,2.53680345 C53.0494631,2.9126959 53.3750675,3.21717432 53.7756832,3.21662072 C54.1762989,3.21606712 54.5007921,2.91048151 54.5002364,2.53458906 C54.4996808,2.15869662 54.1740764,1.8553254 53.7734607,1.8553254 C53.372845,1.85643259 53.0483518,2.16091101 53.0489075,2.53680345 L53.0489075,2.53680345 Z" id="Fill-2"></path>
                    <path d="M41.1764031,70.0927585 C40.9802625,70.5511369 40.6968867,70.961906 40.3318319,71.3156546 C39.9617763,71.6788143 39.5378238,71.9589344 39.0699758,72.1460503 C38.5999052,72.3331661 38.0887174,72.4283848 37.5497476,72.429492 C37.0263357,72.4305992 36.5173704,72.3331661 36.0367427,72.1427287 C35.5583376,71.9533985 35.1349407,71.6788143 34.7821099,71.3267265 C34.4137213,70.9718708 34.1297898,70.5622089 33.9358718,70.1065985 C33.7413982,69.6515416 33.6424944,69.1660369 33.6413832,68.6622636 C33.6408275,68.1551686 33.7380643,67.6630208 33.9308711,67.2013208 C34.1236778,66.7418351 34.4048311,66.3366021 34.7659964,65.9950326 C35.1477204,65.6324265 35.5833413,65.3495384 36.0595239,65.1546722 C36.5334839,64.9609132 37.0307808,64.8618193 37.5364123,64.8607121 C38.0637136,64.8596049 38.5721233,64.9559308 39.044972,65.1469218 C39.5150426,65.3362521 39.9389951,65.6163722 40.3040499,65.9784247 C40.6879965,66.3537636 40.9808182,66.7711758 41.1752918,67.2201431 C41.3697655,67.6663423 41.4681136,68.1485254 41.4686692,68.6495308 C41.4692248,69.1533042 41.371988,69.6388089 41.1764031,70.0927585 L41.1764031,70.0927585 Z M42.0193074,64.4128521 C41.4325527,63.8559333 40.7446716,63.423574 39.9740004,63.1262923 C39.2055517,62.8312251 38.384873,62.682861 37.5330784,62.6839682 C36.6973974,62.6850754 35.8878315,62.8356538 35.1299399,63.1329355 C34.3703815,63.4268956 33.6808335,63.8614693 33.0785209,64.4261384 C32.4862098,64.9797355 32.0222512,65.6274441 31.7022032,66.3526564 C31.3799326,67.0795294 31.2171304,67.8374038 31.2182416,68.6091182 C31.2193529,69.43121 31.3810439,70.2139963 31.6966468,70.9381013 C32.0116941,71.6638672 32.4817646,72.3198797 33.0918562,72.8945136 C33.6797222,73.4458963 34.3659364,73.8760413 35.1349407,74.1733229 C35.9028337,74.4717118 36.7162892,74.6245046 37.5530814,74.6222902 C38.4098767,74.621183 39.2283329,74.4717118 39.9840019,74.1799661 C40.7413378,73.8848988 41.4347752,73.4497715 42.0465337,72.8812272 C42.6338441,72.3320589 43.0939132,71.6876718 43.4117386,70.9641204 C43.7317867,70.2422297 43.892922,69.4766049 43.8918107,68.6893898 C43.8906994,67.8567797 43.731231,67.0728862 43.4178507,66.3581923 C43.1050259,65.6446056 42.6343997,64.9902538 42.0193074,64.4128521 L42.0193074,64.4128521 Z M79.4865982,72.2833423 L79.4821531,69.5856636 L84.957975,69.576806 L84.9546412,67.456529 L79.4788192,67.4664938 L79.4743741,64.8662481 L85.111887,64.8562833 L85.1085532,62.7520607 L77.0151161,62.765347 L77.0345635,74.4069409 L85.3080276,74.393101 L85.3041381,72.2733776 L79.4865982,72.2833423 Z M73.507923,69.8978923 C73.5084786,70.6031751 73.2645531,71.1523434 72.7600329,71.5797204 C72.2455112,72.0154013 71.5454062,72.2368402 70.6774981,72.2379474 C70.1596426,72.2390546 69.6940171,72.1526934 69.2928458,71.9849535 C68.8988978,71.8205351 68.5527347,71.5653269 68.2638025,71.227079 C68.1215589,71.0560175 68.0154318,70.8462042 67.952089,70.6064967 C67.9054153,70.4249168 67.8481845,70.0335236 67.8465176,69.1986992 L67.8359605,62.7315776 L65.5517287,62.7360064 L65.5628415,69.2656844 C65.5645084,70.1769053 65.6278512,70.842329 65.7567595,71.2962787 C65.8895572,71.7624074 66.1162579,72.1892308 66.4324164,72.5678913 C66.9274908,73.1762945 67.5464726,73.6468521 68.2704701,73.9635096 C68.9866887,74.2773992 69.7979216,74.4351744 70.6813876,74.4340672 C72.1805015,74.4318528 73.4162425,74.0166549 74.3574949,73.1956704 C75.3126383,72.3647211 75.7960442,71.2691524 75.7938217,69.9405193 L75.7815976,62.7188449 L73.4956989,62.72272 L73.507923,69.8978923 Z M62.0434243,70.0473636 C61.848395,70.5168139 61.5661304,70.9381013 61.2038538,71.3018146 C60.8243524,71.6876718 60.3965104,71.9816319 59.9303293,72.1776053 C59.4641482,72.3730251 58.9635175,72.4726726 58.4401056,72.4737797 C57.9339185,72.4737797 57.4377329,72.3719179 56.9609947,72.1709621 C56.4825896,71.967792 56.0558588,71.6788143 55.692471,71.312333 C55.3268605,70.9502805 55.0451516,70.5284395 54.8495667,70.0600963 C54.6573156,69.5934139 54.5573006,69.0935157 54.5561893,68.5747952 C54.555078,68.0505387 54.6539817,67.5434438 54.8451215,67.0706718 C55.0379283,66.5990071 55.3179703,66.1810413 55.67858,65.8295071 C56.0569701,65.4597042 56.4892572,65.1707265 56.9632173,64.9708779 C57.4332878,64.7721366 57.9266952,64.6713819 58.4273259,64.6702747 C58.9507378,64.6691675 59.4541467,64.768815 59.9225504,64.9609132 C60.3903984,65.1568866 60.8115727,65.4425427 61.1749606,65.8140064 C61.5577958,66.19931 61.8489506,66.6272405 62.0428686,67.0889405 C62.2373423,67.5495333 62.3351347,68.0450028 62.336246,68.5615089 C62.3373573,69.0796758 62.2395648,69.5801276 62.0434243,70.0473636 L62.0434243,70.0473636 Z M63.4369668,72.5136387 C64.3087643,71.4678938 64.7488304,70.232265 64.7466078,68.8372003 C64.7454966,67.9874287 64.5860282,67.1874808 64.2759816,66.4578398 C63.9664907,65.7276452 63.4986427,65.0572391 62.8874399,64.4659974 C62.3034633,63.8974531 61.6211387,63.4540218 60.8543569,63.150097 C60.090909,62.8472794 59.2730084,62.693933 58.4239921,62.6950402 C57.5916449,62.6961474 56.7865241,62.8517082 56.0314107,63.1545258 C55.2757417,63.4584506 54.588972,63.9035427 53.993327,64.4787301 C53.4043497,65.0467208 52.9448363,65.7093765 52.6258995,66.4511967 C52.3064071,67.1930168 52.1447162,67.9669456 52.1463831,68.7541607 C52.1486057,70.192406 52.5886717,71.4701082 53.4526903,72.5501762 C54.301151,73.6130826 55.4352101,74.3255621 56.8226406,74.6770963 C57.8400155,75.3973262 58.819607,75.9542449 59.7308549,76.3317981 C60.6765524,76.7231913 61.5455718,76.9219326 62.3179099,76.9208254 C62.4218144,76.9197182 62.5023821,76.918611 62.5573903,76.9163967 C62.6251783,76.9108607 62.6935219,76.9025567 62.7629767,76.8881632 L62.8552128,76.8698945 L62.9252233,76.8084452 L64.4348944,75.4936521 L64.623256,75.3314481 L64.5343537,75.1000445 L64.4698996,74.9323046 L64.3626613,74.6510772 L64.0670614,74.7097585 C63.859808,74.7507247 63.6658901,74.7822797 63.4941976,74.8027628 C63.3247277,74.8232459 63.1685932,74.8309963 63.0296834,74.8321035 C62.5907287,74.8321035 62.1234363,74.7712078 61.6433642,74.6472021 C61.3849921,74.5807704 61.1038388,74.4888733 60.8015712,74.3787074 C61.8717318,73.9496697 62.757976,73.3268729 63.4369668,72.5136387 L63.4369668,72.5136387 Z M48.865335,67.5700164 C48.8608899,67.5678021 48.6158532,67.4316172 48.6158532,67.4316172 C46.9500475,66.4716797 46.7689092,65.95462 46.7683536,65.7763618 C46.7683536,65.5178319 46.8778145,65.3179833 47.1128498,65.1469218 C47.375667,64.9559308 47.7301646,64.8596049 48.1674525,64.8584977 C48.5463983,64.8573905 48.9336786,64.9343405 49.3154026,65.0854726 C49.7115732,65.2421405 50.1544174,65.5028848 50.6311557,65.8577405 L51.1829052,66.2662952 L51.1790157,63.657192 L51.0039894,63.5586517 C50.5439203,63.298461 50.0794062,63.1035949 49.6260048,62.9779283 C49.1681583,62.8517082 48.6980877,62.7880445 48.2263502,62.7891517 C47.153967,62.7902589 46.2588327,63.0864333 45.5670622,63.6671567 C44.8597338,64.26172 44.5013466,65.0345416 44.5035692,65.9612632 C44.5046805,66.6228118 44.6958203,67.2035351 45.0736548,67.6890398 C45.4348201,68.1507398 46.2649447,68.7663398 47.6112579,69.5662877 C48.6069629,70.1492254 48.9759072,70.4581326 49.1092605,70.6159078 C49.2781748,70.81631 49.3604094,71.038856 49.3604094,71.3018146 C49.360965,71.6129362 49.2498372,71.8421254 49.0086899,72.0225981 C48.7436501,72.2230003 48.3608149,72.3232013 47.8724082,72.3243085 C47.3951144,72.3254157 46.9394904,72.2174643 46.5183161,72.002115 C46.0832508,71.7784618 45.6137358,71.4031229 45.122551,70.8844024 L44.5263504,70.2538553 L44.5313511,73.2875675 L44.6652601,73.3905366 C45.1542224,73.7658754 45.6731892,74.0437812 46.206047,74.2131819 C46.7372378,74.3864578 47.3351053,74.4717118 47.9852029,74.4706046 C49.053141,74.4694974 49.9460528,74.1733229 50.6406015,73.5948139 C51.352375,73.0002506 51.7129847,72.235733 51.7107622,71.3256193 C51.7096509,70.5444938 51.5162885,69.8763021 51.1367871,69.3382056 C50.7639534,68.8095204 50.0210641,68.2310114 48.865335,67.5700164 L48.865335,67.5700164 Z M27.748832,71.8781092 C27.4287839,72.1200312 26.8875916,72.2434833 26.1385903,72.2456977 L24.2155238,72.2479121 L24.2099674,69.2750956 L25.8585482,69.2734348 C26.7036751,69.2712204 27.3193231,69.4007621 27.6860448,69.659292 C28.0188725,69.8918028 28.1816747,70.2627128 28.182786,70.7891837 C28.1833416,71.2984931 28.0416537,71.6550096 27.748832,71.8781092 L27.748832,71.8781092 Z M24.2010772,64.1609654 L25.4807137,64.158751 C26.1263662,64.1576438 26.5886578,64.2650416 26.8570314,64.4765157 C27.1054021,64.6724891 27.2259757,64.9980042 27.2259757,65.4702226 C27.227087,65.9961398 27.067063,66.3670499 26.7386803,66.6111862 C26.3808488,66.8741449 25.7974279,67.0092226 25.0056424,67.0103297 L24.2066336,67.0114369 L24.2010772,64.1609654 Z M28.5561754,67.7648826 C28.8362174,67.5744452 29.0706971,67.3541136 29.2507241,67.1000125 C29.5852187,66.6327765 29.7530217,66.0476244 29.7519104,65.3622711 C29.7502435,64.2661488 29.378521,63.4008765 28.644522,62.7963485 C27.9321928,62.2084283 26.9248194,61.9100395 25.6490723,61.9122538 L21.7768244,61.9183434 L21.7973831,74.5159995 L26.3219511,74.5088028 C27.6449275,74.5065884 28.716755,74.1832877 29.5057624,73.543883 C30.3175509,72.8889776 30.7281681,72.0010078 30.7265012,70.9070999 C30.7248342,70.0517923 30.4531268,69.3110794 29.9180465,68.7098729 C29.5635488,68.3096222 29.1051467,67.995179 28.5561754,67.7648826 L28.5561754,67.7648826 Z M12.0281388,62.8140636 L9.58443869,62.8179387 L9.60333042,74.5259643 L17.8817953,74.5115708 L17.8784615,72.41842 L12.0436967,72.4283848 L12.0281388,62.8140636 Z M2.70396144,69.303329 L8.1470007,69.2939179 L8.14311123,67.0673503 L2.70007197,67.0762078 L2.69507122,64.1759125 L8.29924578,64.1676085 L8.2953563,61.9576488 L0.260261289,61.9703815 L0.280819931,74.5398042 L8.49427505,74.5259643 L8.49038558,72.2982895 L2.70896219,72.3082542 L2.70396144,69.303329 Z" id="Fill-4"></path>
                    <path d="M6.56459651,55.4516094 C6.56626342,56.3262928 6.81018893,57.0216108 7.29803993,57.5364561 C7.7853353,58.0507478 8.43598853,58.3070633 9.25166652,58.3059561 C10.0667889,58.3048489 10.7163308,58.0463191 11.2025149,57.5298129 C11.6881434,57.0138604 11.930402,56.3174353 11.9281794,55.4427518 L11.9209561,50.6618871 L12.5966131,50.6607799 L12.6049477,55.4062144 C12.6066146,56.5034439 12.3049026,57.373145 11.6992561,58.0186392 C11.0936097,58.6630263 10.277376,58.986327 9.2499996,58.9885414 C8.22651264,58.9896486 7.41194592,58.670223 6.80852201,58.0302647 C6.20454246,57.3880921 5.90338614,56.5189446 5.90116359,55.4172863 L5.89338464,50.6712982 L6.55626192,50.670191 L6.56459651,55.4516094 Z" id="Fill-6"></path>
                    <polygon id="Fill-8" points="15.201393 58.2401334 15.1897245 51.0544428 15.7864808 51.0533356 21.0161547 57.3156262 21.0061532 51.044478 21.5795726 51.0433708 21.591241 58.2290615 21.0617171 58.2301687 15.7653665 51.8848385 15.775368 58.2390262"></polygon>
                    <polygon id="Fill-10" points="24.1914646 51.1439594 24.8076683 51.1428522 24.8198923 58.3290965 24.2031331 58.3296501"></polygon>
                    <polygon id="Fill-12" points="26.8812017 51.1396414 27.5090738 51.1385342 29.9605529 57.165546 32.4136989 51.1307838 33.0210123 51.1296766 30.0144498 58.447677 29.9227694 58.447677"></polygon>
                    <polygon id="Fill-14" points="34.7572729 58.3125993 34.7456045 51.1269086 38.6117403 51.1202655 38.612296 51.5830727 35.3218021 51.5886086 35.3256915 54.4396338 38.5100584 54.435205 38.5111697 54.8980122 35.3268028 54.9035482 35.3312479 57.8282018 38.7039764 57.8226658 38.7045321 58.3059561"></polygon>
                    <path d="M41.2404683,51.1158367 L42.9762844,51.1136223 C43.7336203,51.1114079 44.3148186,51.2658615 44.7198794,51.5753223 C45.1243846,51.8858903 45.3271928,52.328768 45.3277485,52.907277 C45.3283041,53.3496011 45.2166207,53.7149752 44.9910313,54.0072745 C44.7659975,54.2979129 44.4242795,54.5182446 43.9697669,54.6666086 C44.0992307,54.7413442 44.2170262,54.8277054 44.322042,54.9273529 C44.4276134,55.027554 44.522072,55.1404878 44.608196,55.2667079 L46.5757136,58.2932234 L45.9289498,58.2943306 L44.7893343,56.5283558 C44.5631893,56.1834647 44.3703825,55.8983622 44.2070247,55.6752626 C44.0436668,55.4516094 43.914203,55.2916198 43.8180774,55.1975083 C43.6919474,55.0712881 43.526367,54.9799446 43.3180023,54.9262457 C43.1113047,54.8753147 42.8073701,54.8481885 42.4073101,54.8492957 L41.8222223,54.8504029 L41.8277787,58.3009737 L41.2521367,58.3015273 L41.2404683,51.1158367 Z M41.8166659,51.599127 L41.821111,54.3554871 L42.2583989,54.3543799 C42.8023694,54.3532727 43.178537,54.3399863 43.3880129,54.3117529 C43.5997113,54.284073 43.7764045,54.2386781 43.9186481,54.1722464 C44.180354,54.055991 44.3759389,53.8926799 44.5059584,53.6850809 C44.635978,53.4752676 44.7015434,53.2167378 44.7004321,52.9094914 C44.7004321,52.4909719 44.5537434,52.166564 44.2586991,51.938482 C43.9642105,51.7092928 43.5474812,51.5958054 43.0085114,51.5969126 L41.8166659,51.599127 Z" id="Fill-18"></path>
                    <path d="M51.8035539,52.1202833 C51.5079539,51.9193276 51.2256894,51.7720707 50.9595383,51.6746376 C50.6928316,51.5794189 50.4277918,51.5329168 50.1666415,51.5329168 C49.7332431,51.534024 49.380968,51.6619049 49.1064824,51.9171132 C48.8314411,52.1734286 48.6936426,52.4956222 48.6947539,52.8803722 C48.6947539,53.1959225 48.7836561,53.452238 48.9609049,53.6504258 C49.1375981,53.8480599 49.5187665,54.0728204 50.1032987,54.3219391 C50.1360813,54.3346718 50.1883114,54.3562621 50.256655,54.3833883 C50.9178654,54.6535437 51.3579314,54.9131808 51.5796314,55.1628531 C51.7346546,55.330593 51.8507832,55.5226912 51.9307952,55.7369333 C52.0113628,55.9533898 52.0513688,56.182579 52.0524801,56.4256081 C52.0530358,56.9991347 51.8563396,57.4691387 51.4618359,57.8378344 C51.066221,58.2076373 50.5617008,58.3914315 49.9449415,58.3925387 C49.6371176,58.3936459 49.3298492,58.3405006 49.0248034,58.2347635 C48.7208689,58.1290265 48.4136006,57.9695905 48.103554,57.755902 L48.1024428,57.0583696 C48.4386043,57.3202211 48.759208,57.5167481 49.0603643,57.644629 C49.3604094,57.7719563 49.6521198,57.83562 49.9343844,57.83562 C50.4005655,57.8345128 50.7689541,57.7049711 51.0401059,57.4486556 C51.3118134,57.1901258 51.446278,56.8419132 51.4457224,56.3995891 C51.4451667,56.0762883 51.352375,55.8083473 51.1679029,55.6018556 C50.9817638,55.3953639 50.5594782,55.1534419 49.9004904,54.8766434 C49.2176101,54.5943088 48.7503178,54.3075455 48.4986133,54.0191214 C48.2474645,53.7290365 48.1218901,53.3592337 48.1207788,52.9119272 C48.1196676,52.3527941 48.3102517,51.8966301 48.6914201,51.5417743 C49.073144,51.186365 49.5715522,51.0075531 50.1872001,51.0064459 C50.4650196,51.0064459 50.7372827,51.0446441 51.0023225,51.1210405 C51.2668066,51.1979905 51.534069,51.3170139 51.8029982,51.4781106 L51.8035539,52.1202833 Z" id="Fill-20"></path>
                    <polygon id="Fill-22" points="54.3370453 51.094191 54.9526932 51.0930838 54.9649173 58.2793281 54.3487137 58.2798817"></polygon>
                    <path d="M60.0996325,51.0855549 C60.6441587,51.0844477 61.1075616,51.1364859 61.4898412,51.2400085 C61.8726764,51.3429776 62.2171726,51.5073959 62.5244409,51.7343708 C62.9722859,52.0681898 63.3228941,52.4933524 63.5729317,53.0093049 C63.8240805,53.5224895 63.9502105,54.0771938 63.9513218,54.6700963 C63.9524331,55.2591236 63.8279699,55.8105064 63.578488,56.3264589 C63.3295618,56.842965 62.9811762,57.2681276 62.5344424,57.604161 C62.2266184,57.8344574 61.881011,58.0021974 61.493175,58.1095952 C61.1064503,58.2175467 60.6458256,58.270692 60.1113009,58.270692 L57.6392632,58.2745672 L57.6275948,51.0888765 L60.0996325,51.0855549 Z M59.9585002,51.6015074 L58.2343525,51.6042754 L58.2437984,57.7674722 L59.9685017,57.7652578 C60.4369054,57.7641506 60.8419662,57.7253988 61.179239,57.6456808 C61.5181788,57.5676236 61.808778,57.4430643 62.0543704,57.2747708 C62.4510966,57.0073833 62.7622544,56.6442236 62.9872882,56.1836308 C63.2134332,55.7263596 63.3267836,55.2225862 63.326228,54.6784003 C63.3251167,54.1336607 63.2100994,53.6309945 62.9828431,53.1715089 C62.7555867,52.7109161 62.4438733,52.3472028 62.0454801,52.080369 C61.7998877,51.912629 61.5087329,51.7913913 61.1697931,51.7138877 C60.8319647,51.6391521 60.4269039,51.6004003 59.9585002,51.6015074 L59.9585002,51.6015074 Z" id="Fill-26"></path>
                    <path d="M65.0374293,58.2628309 L67.9967624,51.3384381 L68.2156841,51.3384381 L71.1972428,58.2528662 L70.6221565,58.2528662 L69.6103379,55.8668626 L66.6165552,55.8712913 L65.6175163,58.2617237 L65.0374293,58.2628309 Z M66.8060281,55.4073769 L69.4203094,55.4029482 L68.1090014,52.2900715 L66.8060281,55.4073769 Z" id="Fill-30"></path>
                    <path d="M75.7443142,51.0595912 C76.2882848,51.058484 76.7516877,51.1105222 77.1345229,51.2140448 C77.5168025,51.3170139 77.8618543,51.4825394 78.1674557,51.7084071 C78.6169677,52.0422261 78.9675758,52.4684959 79.2176134,52.9833412 C79.4682065,53.4976329 79.5948922,54.0512301 79.5960035,54.6441326 C79.5971148,55.2331599 79.472096,55.7845427 79.2231698,56.3016024 C78.9742435,56.8170013 78.6258579,57.2421639 78.1774572,57.5781973 C77.8718558,57.8084937 77.5251371,57.9773409 77.1373011,58.0841851 C76.751132,58.1915829 76.2899517,58.2447283 75.7559826,58.2452819 L73.2828336,58.2486035 L73.2711652,51.06402 L75.7443142,51.0595912 Z M75.6031819,51.5755437 L73.877923,51.5783117 L73.8879245,57.7426157 L75.6131834,57.7392941 C76.0826983,57.7381869 76.484981,57.7005423 76.8239207,57.6208243 C77.1628605,57.5416599 77.452904,57.4171006 77.6979408,57.2499142 C78.0957783,56.9814196 78.4069361,56.6182599 78.6314143,56.1587743 C78.858115,55.7003959 78.9697984,55.1977297 78.9692428,54.6524365 C78.9686871,54.1088042 78.8547811,53.606138 78.6264135,53.1455452 C78.4002685,52.6849524 78.088555,52.3212391 77.6890506,52.0555124 C77.4440138,51.8877725 77.152859,51.7654276 76.8144749,51.6890312 C76.4744238,51.6131883 76.0721412,51.5755437 75.6031819,51.5755437 L75.6031819,51.5755437 Z" id="Fill-34"></path>
                </g>
                <path d="M3.68299164,99.9556 L3.04094008,99.9556 L1.12199946,94.7506539 L1.80372836,94.7506539 L3.35114477,99.1656602 L3.37278696,99.1656602 L4.92020336,94.7506539 L5.60193227,94.7506539 L3.68299164,99.9556 Z M6.55161215,99.9556 L6.55161215,96.2042875 L7.17923559,96.2042875 L7.17923559,99.9556 L6.55161215,99.9556 Z M6.86542387,95.573057 C6.65260902,95.573057 6.47586449,95.3963125 6.47586449,95.1834977 C6.47586449,94.9670758 6.65260902,94.7939383 6.86542387,94.7939383 C7.08184574,94.7939383 7.25859027,94.9670758 7.25859027,95.1834977 C7.25859027,95.3963125 7.08184574,95.573057 6.86542387,95.573057 Z M10.0803194,99.4325805 C10.733192,99.4325805 11.1696428,98.8915258 11.1696428,98.0655156 C11.1696428,97.2395055 10.733192,96.6912367 10.0803194,96.6912367 C9.43466078,96.6912367 9.01263812,97.2250773 9.01263812,98.0655156 C9.01263812,98.9059539 9.43466078,99.4325805 10.0803194,99.4325805 Z M10.1019616,101.369556 C9.2759514,101.369556 8.62307875,100.904249 8.51847484,100.265805 L9.16413343,100.265805 C9.2867725,100.608473 9.65829671,100.835716 10.1272108,100.835716 C10.7764764,100.835716 11.1696428,100.460584 11.1696428,99.9014945 L11.1696428,99.3099414 L11.1552147,99.3099414 C10.9243647,99.7175359 10.4806998,99.9844563 9.95407328,99.9844563 C8.99821,99.9844563 8.37058656,99.2305867 8.37058656,98.0655156 C8.37058656,96.8896234 8.99821,96.1393609 9.9685014,96.1393609 C10.498735,96.1393609 10.9387928,96.3990672 11.187678,96.835518 L11.1984991,96.835518 L11.1984991,96.2042875 L11.7972662,96.2042875 L11.7972662,99.8798523 C11.7972662,100.774396 11.1371795,101.369556 10.1019616,101.369556 Z M13.1725758,99.9556 L13.1725758,96.2042875 L13.8001992,96.2042875 L13.8001992,99.9556 L13.1725758,99.9556 Z M13.4863875,95.573057 C13.2735727,95.573057 13.0968282,95.3963125 13.0968282,95.1834977 C13.0968282,94.9670758 13.2735727,94.7939383 13.4863875,94.7939383 C13.7028094,94.7939383 13.8795539,94.9670758 13.8795539,95.1834977 C13.8795539,95.3963125 13.7028094,95.573057 13.4863875,95.573057 Z M15.2079721,99.9556 L15.2079721,94.7506539 L15.8355955,94.7506539 L15.8355955,99.9556 L15.2079721,99.9556 Z M18.4481168,99.4866859 C19.0396699,99.4866859 19.4941559,99.0718773 19.4941559,98.5308227 L19.4941559,98.224225 L18.4914012,98.2855445 C17.9864168,98.3180078 17.6978543,98.5416438 17.6978543,98.8951328 C17.6978543,99.2522289 17.9972379,99.4866859 18.4481168,99.4866859 Z M18.3074426,100.020527 C17.5607871,100.020527 17.0594098,99.5696477 17.0594098,98.8951328 C17.0594098,98.2530813 17.5535731,97.8490938 18.4192606,97.7985953 L19.4941559,97.7372758 L19.4941559,97.4234641 C19.4941559,96.9653711 19.1911653,96.6912367 18.6717528,96.6912367 C18.1884106,96.6912367 17.8854199,96.9184797 17.8060653,97.2863969 L17.200084,97.2863969 C17.2433684,96.6371313 17.7988512,96.1393609 18.6861809,96.1393609 C19.5662965,96.1393609 20.1217793,96.6154891 20.1217793,97.3621445 L20.1217793,99.9556 L19.5266192,99.9556 L19.5266192,99.3099414 L19.512191,99.3099414 C19.2885551,99.7391781 18.812427,100.020527 18.3074426,100.020527 Z M22.8677608,100.020527 C21.9118975,100.020527 21.2626319,99.2558359 21.2626319,98.0799437 C21.2626319,96.9040516 21.9082904,96.1393609 22.8533326,96.1393609 C23.3907803,96.1393609 23.823624,96.4026742 24.04726,96.8138758 L24.0616881,96.8138758 L24.0616881,94.7506539 L24.6893115,94.7506539 L24.6893115,99.9556 L24.0905444,99.9556 L24.0905444,99.3207625 L24.0797233,99.3207625 C23.8380522,99.7536063 23.4088154,100.020527 22.8677608,100.020527 Z M22.9867928,96.6912367 C22.323099,96.6912367 21.9046834,97.2322914 21.9046834,98.0799437 C21.9046834,98.9312031 22.323099,99.4686508 22.9867928,99.4686508 C23.6324514,99.4686508 24.0652951,98.920382 24.0652951,98.0799437 C24.0652951,97.2431125 23.6324514,96.6912367 22.9867928,96.6912367 Z M27.3018328,99.4866859 C27.893386,99.4866859 28.3478719,99.0718773 28.3478719,98.5308227 L28.3478719,98.224225 L27.3451172,98.2855445 C26.8401328,98.3180078 26.5515703,98.5416438 26.5515703,98.8951328 C26.5515703,99.2522289 26.8509539,99.4866859 27.3018328,99.4866859 Z M27.1611586,100.020527 C26.4145031,100.020527 25.9131258,99.5696477 25.9131258,98.8951328 C25.9131258,98.2530813 26.4072891,97.8490938 27.2729766,97.7985953 L28.3478719,97.7372758 L28.3478719,97.4234641 C28.3478719,96.9653711 28.0448813,96.6912367 27.5254688,96.6912367 C27.0421266,96.6912367 26.739136,96.9184797 26.6597813,97.2863969 L26.0538,97.2863969 C26.0970844,96.6371313 26.6525672,96.1393609 27.5398969,96.1393609 C28.4200125,96.1393609 28.9754953,96.6154891 28.9754953,97.3621445 L28.9754953,99.9556 L28.3803352,99.9556 L28.3803352,99.3099414 L28.365907,99.3099414 C28.1422711,99.7391781 27.666143,100.020527 27.1611586,100.020527 Z M37.5695051,99.9556 L36.9635238,99.9556 L36.9635238,95.9445812 L36.9382746,95.9445812 L35.2790402,99.9195297 L34.7307715,99.9195297 L33.0715371,95.9445812 L33.0462879,95.9445812 L33.0462879,99.9556 L32.4403066,99.9556 L32.4403066,94.7506539 L33.1941762,94.7506539 L34.9904777,99.0935195 L35.019334,99.0935195 L36.8156356,94.7506539 L37.5695051,94.7506539 L37.5695051,99.9556 Z M39.0422045,99.9556 L39.0422045,96.2042875 L39.6698279,96.2042875 L39.6698279,99.9556 L39.0422045,99.9556 Z M39.3560162,95.573057 C39.1432014,95.573057 38.9664568,95.3963125 38.9664568,95.1834977 C38.9664568,94.9670758 39.1432014,94.7939383 39.3560162,94.7939383 C39.5724381,94.7939383 39.7491826,94.9670758 39.7491826,95.1834977 C39.7491826,95.3963125 39.5724381,95.573057 39.3560162,95.573057 Z M41.0451375,99.9556 L41.0451375,96.2042875 L41.6366906,96.2042875 L41.6366906,96.8030547 L41.6511187,96.8030547 C41.8603266,96.3990672 42.260707,96.1393609 42.8414391,96.1393609 C43.6638422,96.1393609 44.1399703,96.6695945 44.1399703,97.5208539 L44.1399703,99.9556 L43.5123469,99.9556 L43.5123469,97.6326719 C43.5123469,97.0266906 43.2273914,96.6948438 42.6502664,96.6948438 C42.0587133,96.6948438 41.6727609,97.1132594 41.6727609,97.7480969 L41.6727609,99.9556 L41.0451375,99.9556 Z M46.9689135,96.6840227 C46.3809674,96.6840227 45.9697658,97.1349016 45.9300885,97.758918 L47.9680611,97.758918 C47.953633,97.1312945 47.5604666,96.6840227 46.9689135,96.6840227 Z M47.953633,98.8807047 L48.5704353,98.8807047 C48.4622244,99.5371844 47.8273869,100.020527 47.0085908,100.020527 C45.9336955,100.020527 45.2808228,99.2738711 45.2808228,98.0943719 C45.2808228,96.9293008 45.9445166,96.1393609 46.9797346,96.1393609 C47.9933103,96.1393609 48.6173268,96.8751953 48.6173268,98.0114102 L48.6173268,98.2494742 L45.9264814,98.2494742 L45.9264814,98.2855445 C45.9264814,99.0033437 46.3485041,99.4758648 47.0230189,99.4758648 C47.4991471,99.4758648 47.8490291,99.2341938 47.953633,98.8807047 Z M51.1973848,100.020527 C50.2415215,100.020527 49.5922559,99.2558359 49.5922559,98.0799437 C49.5922559,96.9040516 50.2379144,96.1393609 51.1829566,96.1393609 C51.7204043,96.1393609 52.153248,96.4026742 52.376884,96.8138758 L52.3913121,96.8138758 L52.3913121,94.7506539 L53.0189355,94.7506539 L53.0189355,99.9556 L52.4201684,99.9556 L52.4201684,99.3207625 L52.4093473,99.3207625 C52.1676762,99.7536063 51.7384394,100.020527 51.1973848,100.020527 Z M51.3164168,96.6912367 C50.652723,96.6912367 50.2343074,97.2322914 50.2343074,98.0799437 C50.2343074,98.9312031 50.652723,99.4686508 51.3164168,99.4686508 C51.9620754,99.4686508 52.3949191,98.920382 52.3949191,98.0799437 C52.3949191,97.2431125 51.9620754,96.6912367 51.3164168,96.6912367 Z M57.4746498,96.2042875 L57.4746498,99.9556 L56.8794896,99.9556 L56.8794896,99.3460117 L56.8650615,99.3460117 C56.6414256,99.7788555 56.2518662,100.020527 55.6747412,100.020527 C54.8559451,100.020527 54.3762099,99.490293 54.3762099,98.6390336 L54.3762099,96.2042875 L55.0038334,96.2042875 L55.0038334,98.5272156 C55.0038334,99.1368039 55.2887889,99.4650438 55.8695209,99.4650438 C56.4791092,99.4650438 56.8470264,99.0466281 56.8470264,98.4081836 L56.8470264,96.2042875 L57.4746498,96.2042875 Z M61.930364,97.4342852 L61.3171687,97.4342852 C61.226993,97.0266906 60.9095742,96.6912367 60.3576984,96.6912367 C59.7084328,96.6912367 59.268375,97.2286844 59.268375,98.0799437 C59.268375,98.9528453 59.7156469,99.4686508 60.3649125,99.4686508 C60.8771109,99.4686508 61.2125648,99.1981234 61.3207758,98.7472445 L61.9375781,98.7472445 C61.8401883,99.4939 61.2125648,100.020527 60.3613055,100.020527 C59.3224805,100.020527 58.6299305,99.2882992 58.6299305,98.0799437 C58.6299305,96.8968375 59.3188734,96.1393609 60.3540914,96.1393609 C61.2919195,96.1393609 61.8510094,96.7597703 61.930364,97.4342852 Z M64.2795721,99.4866859 C64.8711252,99.4866859 65.3256111,99.0718773 65.3256111,98.5308227 L65.3256111,98.224225 L64.3228564,98.2855445 C63.8178721,98.3180078 63.5293096,98.5416438 63.5293096,98.8951328 C63.5293096,99.2522289 63.8286931,99.4866859 64.2795721,99.4866859 Z M64.1388978,100.020527 C63.3922424,100.020527 62.890865,99.5696477 62.890865,98.8951328 C62.890865,98.2530813 63.3850283,97.8490938 64.2507158,97.7985953 L65.3256111,97.7372758 L65.3256111,97.4234641 C65.3256111,96.9653711 65.0226205,96.6912367 64.503208,96.6912367 C64.0198658,96.6912367 63.7168752,96.9184797 63.6375205,97.2863969 L63.0315392,97.2863969 C63.0748236,96.6371313 63.6303064,96.1393609 64.5176361,96.1393609 C65.3977517,96.1393609 65.9532346,96.6154891 65.9532346,97.3621445 L65.9532346,99.9556 L65.3580744,99.9556 L65.3580744,99.3099414 L65.3436463,99.3099414 C65.1200103,99.7391781 64.6438822,100.020527 64.1388978,100.020527 Z M70.3945207,97.4342852 L69.7813254,97.4342852 C69.6911496,97.0266906 69.3737308,96.6912367 68.8218551,96.6912367 C68.1725894,96.6912367 67.7325316,97.2286844 67.7325316,98.0799437 C67.7325316,98.9528453 68.1798035,99.4686508 68.8290691,99.4686508 C69.3412676,99.4686508 69.6767215,99.1981234 69.7849324,98.7472445 L70.4017347,98.7472445 C70.3043449,99.4939 69.6767215,100.020527 68.8254621,100.020527 C67.7866371,100.020527 67.0940871,99.2882992 67.0940871,98.0799437 C67.0940871,96.8968375 67.7830301,96.1393609 68.818248,96.1393609 C69.7560761,96.1393609 70.315166,96.7597703 70.3945207,97.4342852 Z M71.5389802,99.9556 L71.5389802,96.2042875 L72.1666037,96.2042875 L72.1666037,99.9556 L71.5389802,99.9556 Z M71.852792,95.573057 C71.6399771,95.573057 71.4632326,95.3963125 71.4632326,95.1834977 C71.4632326,94.9670758 71.6399771,94.7939383 71.852792,94.7939383 C72.0692138,94.7939383 72.2459584,94.9670758 72.2459584,95.1834977 C72.2459584,95.3963125 72.0692138,95.573057 71.852792,95.573057 Z M75.0965437,100.020527 C74.0577187,100.020527 73.3579547,99.2738711 73.3579547,98.0799437 C73.3579547,96.8824094 74.0577187,96.1393609 75.0965437,96.1393609 C76.1317617,96.1393609 76.8315258,96.8824094 76.8315258,98.0799437 C76.8315258,99.2738711 76.1317617,100.020527 75.0965437,100.020527 Z M75.0965437,99.4686508 C75.7602375,99.4686508 76.1930812,98.9636664 76.1930812,98.0799437 C76.1930812,97.1962211 75.7602375,96.6912367 75.0965437,96.6912367 C74.43285,96.6912367 73.9963992,97.1962211 73.9963992,98.0799437 C73.9963992,98.9636664 74.43285,99.4686508 75.0965437,99.4686508 Z M75.3814992,95.6632328 L74.8332304,95.6632328 L75.590707,94.5811234 L76.2688289,94.5811234 L75.3814992,95.6632328 Z M77.9904134,99.9556 L77.9904134,96.2042875 L78.5819666,96.2042875 L78.5819666,96.8030547 L78.5963947,96.8030547 C78.8056025,96.3990672 79.205983,96.1393609 79.786715,96.1393609 C80.6091181,96.1393609 81.0852463,96.6695945 81.0852463,97.5208539 L81.0852463,99.9556 L80.4576228,99.9556 L80.4576228,97.6326719 C80.4576228,97.0266906 80.1726673,96.6948438 79.5955423,96.6948438 C79.0039892,96.6948438 78.6180369,97.1132594 78.6180369,97.7480969 L78.6180369,99.9556 L77.9904134,99.9556 Z M82.940291,99.9916703 C82.709441,99.9916703 82.5290894,99.8113187 82.5290894,99.5804688 C82.5290894,99.3496188 82.709441,99.1692672 82.940291,99.1692672 C83.171141,99.1692672 83.3514925,99.3496188 83.3514925,99.5804688 C83.3514925,99.8113187 83.171141,99.9916703 82.940291,99.9916703 Z" id="Vigilada-Mineducació" fill="#808080"></path>
            </g>
        </g>
    </g>
</svg>