<?xml version="1.0" encoding="UTF-8"?>
<svg width="145px" height="160px" viewBox="0 0 145 160" version="1.1" xmlns="http://www.w3.org/2000/svg" xmlns:xlink="http://www.w3.org/1999/xlink">
    <!-- Generator: Sketch 53 (72520) - https://sketchapp.com -->
    <title>Group 137</title>
    <desc>Created with Sketch.</desc>
    <defs>
        <polygon id="path-1" points="0.140729091 0.0431578947 17.7226382 0.0431578947 17.7226382 20.2461053 0.140729091 20.2461053"></polygon>
        <polygon id="path-3" points="0.4495 0.0431578947 17.9707727 0.0431578947 17.9707727 20.6224737 0.4495 20.6224737"></polygon>
    </defs>
    <g id="Detalle-servicio" stroke="none" stroke-width="1" fill="none" fill-rule="evenodd">
        <g id="Detalle-consolidacion" transform="translate(-43.000000, -49.000000)">
            <g id="Group-137" transform="translate(43.000000, 49.000000)">
                <polygon id="Fill-1" fill="#1A1919" points="136.614782 111.737895 143.032745 111.737895 143.032745 110.207895 136.614782 110.207895"></polygon>
                <g id="Group-136" transform="translate(0.000000, 0.483158)">
                    <path d="M93.3494182,122.461947 C93.3494182,122.310368 93.3926545,122.267211 93.5445091,122.267211 L94.2600182,122.267211 C94.4118727,122.267211 94.4551091,122.310368 94.4551091,122.461947 L94.4551091,125.743 C94.4551091,125.894579 94.4118727,125.937737 94.2600182,125.937737 L93.5445091,125.937737 C93.3926545,125.937737 93.3494182,125.894579 93.3494182,125.743 L93.3494182,122.461947 Z M93.8909273,120.528789 C94.2452545,120.528789 94.5347273,120.817737 94.5347273,121.170895 C94.5347273,121.524579 94.2452545,121.798263 93.8909273,121.798263 C93.5371273,121.798263 93.2629455,121.524579 93.2629455,121.170895 C93.2629455,120.817737 93.5371273,120.528789 93.8909273,120.528789 L93.8909273,120.528789 Z" id="Fill-2" fill="#1A1919"></path>
                    <path d="M97.9815618,122.721526 C98.2631255,122.418895 98.5230709,122.187842 99.0361073,122.187842 C99.8602345,122.187842 100.41598,122.562579 100.41598,123.889947 L100.41598,125.743105 C100.41598,125.894684 100.372744,125.937842 100.221416,125.937842 L99.5059073,125.937842 C99.35458,125.937842 99.3108164,125.894684 99.3108164,125.743105 L99.3108164,124.106263 C99.3108164,123.449947 99.1879618,123.168895 98.7545436,123.168895 C98.3063618,123.168895 98.1687436,123.449947 98.1687436,124.106263 L98.1687436,125.743105 C98.1687436,125.894684 98.1255073,125.937842 97.97418,125.937842 L97.2586709,125.937842 C97.1073436,125.937842 97.0641073,125.894684 97.0641073,125.743105 L97.0641073,124.106263 L97.0641073,122.462053 C97.0641073,122.310474 97.1073436,122.267316 97.2586709,122.267316 L97.6056164,122.267316 C97.7210891,122.267316 97.7574709,122.324684 97.8370891,122.462053 L97.9815618,122.721526 Z" id="Fill-4" fill="#1A1919"></path>
                    <path d="M103.755304,122.721526 C104.036867,122.418895 104.296813,122.187842 104.810376,122.187842 C105.633976,122.187842 106.190249,122.562579 106.190249,123.889947 L106.190249,125.743105 C106.190249,125.894684 106.146485,125.937842 105.994631,125.937842 L105.280176,125.937842 C105.128322,125.937842 105.084558,125.894684 105.084558,125.743105 L105.084558,124.106263 C105.084558,123.449947 104.961704,123.168895 104.528285,123.168895 C104.080104,123.168895 103.943013,123.449947 103.943013,124.106263 L103.943013,125.743105 C103.943013,125.894684 103.899776,125.937842 103.747922,125.937842 L103.03294,125.937842 C102.881085,125.937842 102.837849,125.894684 102.837849,125.743105 L102.837849,124.106263 L102.837849,122.462053 C102.837849,122.310474 102.881085,122.267316 103.03294,122.267316 L103.379358,122.267316 C103.495358,122.267316 103.531213,122.324684 103.610831,122.462053 L103.755304,122.721526 Z" id="Fill-6" fill="#1A1919"></path>
                    <path d="M111.089773,124.106211 C111.089773,123.557789 110.714355,123.168842 110.266173,123.168842 C109.818518,123.168842 109.442573,123.557789 109.442573,124.106211 C109.442573,124.654105 109.818518,125.058316 110.266173,125.058316 C110.714355,125.058316 111.089773,124.654105 111.089773,124.106211 M110.266173,122.187789 C111.320718,122.187789 112.188082,123.053053 112.188082,124.106211 C112.188082,125.158842 111.320718,126.017263 110.266173,126.017263 C109.2111,126.017263 108.344264,125.158842 108.344264,124.106211 C108.344264,123.053053 109.2111,122.187789 110.266173,122.187789" id="Fill-8" fill="#1A1919"></path>
                    <path d="M113.93056,122.461947 C113.887324,122.367737 113.944796,122.267211 114.052887,122.267211 L114.833778,122.267211 C114.963487,122.267211 115.006724,122.310368 115.085815,122.461947 L115.888324,123.925632 L115.888324,123.933 L116.683451,122.461947 C116.762542,122.310368 116.805778,122.267211 116.935487,122.267211 L117.716378,122.267211 C117.852942,122.267211 117.87456,122.389316 117.838705,122.461947 L116.054415,125.836684 C115.982178,125.959842 115.96056,126.031421 115.895705,126.031421 L115.874087,126.031421 C115.809233,126.031421 115.787087,125.959842 115.715378,125.836684 L113.93056,122.461947 Z" id="Fill-10" fill="#1A1919"></path>
                    <path d="M120.679545,124.805737 C120.679545,124.927842 120.780782,125.195211 121.192582,125.195211 C121.423527,125.195211 121.655,125.051 121.871709,124.834684 L121.871709,124.524684 C121.611764,124.459421 121.423527,124.408895 121.192582,124.408895 C120.780782,124.408895 120.679545,124.639947 120.679545,124.805737 M120.000418,123.038895 L119.877564,122.555737 C119.841709,122.411 119.855945,122.360474 119.986182,122.324684 C120.072655,122.303105 120.758636,122.187842 121.264818,122.187842 C122.818164,122.187842 122.976873,122.865211 122.976873,123.954684 L122.976873,125.743105 C122.976873,125.894684 122.933109,125.937842 122.781782,125.937842 L122.369982,125.937842 C122.261891,125.937842 122.218655,125.894684 122.1538,125.743105 L122.081036,125.562579 C121.864327,125.743105 121.560618,126.017316 120.838782,126.017316 C120.231364,126.017316 119.581236,125.642053 119.581236,124.805737 C119.581236,124.026789 120.231364,123.644684 120.910491,123.644684 C121.141964,123.644684 121.604382,123.695211 121.871709,123.781526 C121.871709,123.326789 121.785236,123.125737 121.2142,123.125737 C120.845636,123.125737 120.455455,123.175737 120.209745,123.218895 C120.065273,123.240474 120.036273,123.183105 120.000418,123.038895" id="Fill-12" fill="#1A1919"></path>
                    <path d="M127.69628,124.812895 C127.804371,124.711842 127.861844,124.740789 127.970462,124.856053 L128.331644,125.252895 C128.425498,125.360789 128.447116,125.396579 128.367498,125.476579 C127.998935,125.836579 127.529662,126.017105 127.030862,126.017105 C125.976316,126.017105 125.116335,125.158684 125.116335,124.106053 C125.116335,123.052895 125.976316,122.188158 127.030862,122.188158 C127.529662,122.188158 127.998935,122.367632 128.367498,122.728684 C128.447116,122.807632 128.425498,122.843947 128.331644,122.952368 L127.970462,123.349211 C127.861844,123.463947 127.804371,123.492895 127.69628,123.392368 C127.471662,123.182895 127.204335,123.168684 127.030862,123.168684 C126.583207,123.168684 126.207789,123.557632 126.207789,124.106053 C126.207789,124.653947 126.583207,125.036579 127.030862,125.036579 C127.204335,125.036579 127.471662,125.021842 127.69628,124.812895" id="Fill-14" fill="#1A1919"></path>
                    <path d="M130.709591,122.461947 C130.709591,122.310368 130.752827,122.267211 130.904682,122.267211 L131.620191,122.267211 C131.772045,122.267211 131.815282,122.310368 131.815282,122.461947 L131.815282,125.743 C131.815282,125.894579 131.772045,125.937737 131.620191,125.937737 L130.904682,125.937737 C130.752827,125.937737 130.709591,125.894579 130.709591,125.743 L130.709591,122.461947 Z M131.2511,120.528789 C131.605427,120.528789 131.8949,120.817737 131.8949,121.170895 C131.8949,121.524579 131.605427,121.798263 131.2511,121.798263 C130.8973,121.798263 130.623118,121.524579 130.623118,121.170895 C130.623118,120.817737 130.8973,120.528789 131.2511,120.528789 L131.2511,120.528789 Z" id="Fill-16" fill="#1A1919"></path>
                    <path d="M136.483333,121.689947 C136.396333,121.762579 136.295624,121.805737 136.180151,121.805737 L135.572733,121.805737 C135.442496,121.805737 135.414024,121.741 135.565878,121.574684 L136.468569,120.579947 C136.562424,120.464158 136.656805,120.507316 136.743278,120.644684 L137.010605,121.077316 C137.075987,121.192579 137.075987,121.242579 136.945751,121.351 L136.483333,121.689947 Z M136.901987,124.106263 C136.901987,123.557842 136.526569,123.168895 136.078387,123.168895 C135.630733,123.168895 135.255315,123.557842 135.255315,124.106263 C135.255315,124.654158 135.630733,125.057842 136.078387,125.057842 C136.526569,125.057842 136.901987,124.654158 136.901987,124.106263 L136.901987,124.106263 Z M136.078387,122.187842 C137.13346,122.187842 138.000824,123.053105 138.000824,124.106263 C138.000824,125.158895 137.13346,126.017316 136.078387,126.017316 C135.023315,126.017316 134.156478,125.158895 134.156478,124.106263 C134.156478,123.053105 135.023315,122.187842 136.078387,122.187842 L136.078387,122.187842 Z" id="Fill-18" fill="#1A1919"></path>
                    <path d="M141.180858,122.721526 C141.461895,122.418895 141.722367,122.187842 142.235404,122.187842 C143.059531,122.187842 143.615276,122.562579 143.615276,123.889947 L143.615276,125.743105 C143.615276,125.894684 143.57204,125.937842 143.420185,125.937842 L142.705204,125.937842 C142.553349,125.937842 142.510113,125.894684 142.510113,125.743105 L142.510113,124.106263 C142.510113,123.449947 142.386731,123.168895 141.953313,123.168895 C141.505131,123.168895 141.36804,123.449947 141.36804,124.106263 L141.36804,125.743105 C141.36804,125.894684 141.324804,125.937842 141.173476,125.937842 L140.457967,125.937842 C140.30664,125.937842 140.263404,125.894684 140.263404,125.743105 L140.263404,124.106263 L140.263404,122.462053 C140.263404,122.310474 140.30664,122.267316 140.457967,122.267316 L140.804913,122.267316 C140.920385,122.267316 140.95624,122.324684 141.035858,122.462053 L141.180858,122.721526 Z" id="Fill-20" fill="#1A1919"></path>
                    <path d="M96.7818582,134.593947 C96.6305309,134.593947 96.5872945,134.550789 96.5872945,134.399211 L96.5872945,129.740263 C96.5872945,129.588684 96.6305309,129.545526 96.7818582,129.545526 L100.062022,129.545526 C100.213876,129.545526 100.257113,129.588684 100.257113,129.740263 L100.257113,130.346053 C100.257113,130.497632 100.213876,130.540789 100.062022,130.540789 L97.7641673,130.540789 L97.7641673,131.557632 L99.9681673,131.557632 C100.119495,131.557632 100.163258,131.600789 100.163258,131.752368 L100.163258,132.358158 C100.163258,132.509737 100.119495,132.552895 99.9681673,132.552895 L97.7641673,132.552895 L97.7641673,133.598158 L100.062022,133.598158 C100.213876,133.598158 100.257113,133.641842 100.257113,133.793421 L100.257113,134.399211 C100.257113,134.550789 100.213876,134.593947 100.062022,134.593947 L96.7818582,134.593947 Z" id="Fill-22" fill="#1A1919"></path>
                    <path d="M105.134807,132.762105 C105.134807,132.213684 104.759389,131.824737 104.311207,131.824737 C103.863553,131.824737 103.488135,132.213684 103.488135,132.762105 C103.488135,133.31 103.863553,133.714211 104.311207,133.714211 C104.759389,133.714211 105.134807,133.31 105.134807,132.762105 L105.134807,132.762105 Z M105.127425,129.466316 C105.127425,129.314737 105.170662,129.271579 105.323044,129.271579 L106.038025,129.271579 C106.18988,129.271579 106.233644,129.314737 106.233644,129.466316 L106.233644,134.398947 C106.233644,134.550526 106.18988,134.593684 106.038025,134.593684 L105.705844,134.593684 C105.589844,134.593684 105.553989,134.536316 105.474898,134.398947 L105.330425,134.139474 C105.005098,134.478421 104.600153,134.673158 104.051262,134.673158 C103.097953,134.673158 102.389298,133.778947 102.389298,132.762105 C102.389298,131.708947 103.097953,130.843684 104.051262,130.843684 C104.600153,130.843684 105.019335,131.161053 105.127425,131.334737 L105.127425,129.466316 Z" id="Fill-24" fill="#1A1919"></path>
                    <path d="M111.053707,134.139579 C110.772144,134.442211 110.511671,134.673263 109.998635,134.673263 C109.175035,134.673263 108.618762,134.298 108.618762,132.971158 L108.618762,131.118 C108.618762,130.966421 108.661998,130.923263 108.813853,130.923263 L109.528835,130.923263 C109.680689,130.923263 109.724453,130.966421 109.724453,131.118 L109.724453,132.754842 C109.724453,133.411158 109.847307,133.692211 110.280725,133.692211 C110.728907,133.692211 110.865998,133.411158 110.865998,132.754842 L110.865998,131.118 C110.865998,130.966421 110.909235,130.923263 111.061089,130.923263 L111.776071,130.923263 C111.927398,130.923263 111.971162,130.966421 111.971162,131.118 L111.971162,132.754842 L111.971162,134.399053 C111.971162,134.550632 111.927398,134.593789 111.776071,134.593789 L111.429125,134.593789 C111.313653,134.593789 111.277798,134.536421 111.19818,134.399053 L111.053707,134.139579 Z" id="Fill-26" fill="#1A1919"></path>
                    <path d="M116.813055,133.468842 C116.921145,133.367789 116.978618,133.396737 117.087764,133.512 L117.448418,133.908842 C117.5428,134.016737 117.564418,134.052526 117.4848,134.132526 C117.116236,134.492526 116.646964,134.673053 116.148164,134.673053 C115.093091,134.673053 114.233109,133.814632 114.233109,132.762 C114.233109,131.708842 115.093091,130.844105 116.148164,130.844105 C116.646964,130.844105 117.116236,131.023579 117.4848,131.384632 C117.564418,131.463579 117.5428,131.499895 117.448418,131.608316 L117.087764,132.005158 C116.978618,132.119895 116.921145,132.148842 116.813055,132.048316 C116.588964,131.838842 116.321636,131.824632 116.148164,131.824632 C115.700509,131.824632 115.325091,132.213579 115.325091,132.762 C115.325091,133.309895 115.700509,133.692526 116.148164,133.692526 C116.321636,133.692526 116.588964,133.677789 116.813055,133.468842" id="Fill-28" fill="#1A1919"></path>
                    <path d="M120.679545,133.461632 C120.679545,133.583737 120.780782,133.851105 121.192582,133.851105 C121.423527,133.851105 121.655,133.706895 121.871709,133.490579 L121.871709,133.180579 C121.611764,133.115316 121.423527,133.064789 121.192582,133.064789 C120.780782,133.064789 120.679545,133.295842 120.679545,133.461632 M120.000418,131.694789 L119.877564,131.211632 C119.841709,131.066895 119.855945,131.016368 119.986182,130.980579 C120.072655,130.959 120.758636,130.843737 121.264818,130.843737 C122.818164,130.843737 122.976873,131.521105 122.976873,132.610579 L122.976873,134.399 C122.976873,134.550579 122.933109,134.593737 122.781782,134.593737 L122.369982,134.593737 C122.261891,134.593737 122.218655,134.550579 122.1538,134.399 L122.081036,134.218474 C121.864327,134.399 121.560618,134.673211 120.838782,134.673211 C120.231364,134.673211 119.581236,134.297947 119.581236,133.461632 C119.581236,132.682684 120.231364,132.300579 120.910491,132.300579 C121.141964,132.300579 121.604382,132.351105 121.871709,132.437421 C121.871709,131.982684 121.785236,131.781632 121.2142,131.781632 C120.845636,131.781632 120.455455,131.831632 120.209745,131.874789 C120.065273,131.896368 120.036273,131.839 120.000418,131.694789" id="Fill-30" fill="#1A1919"></path>
                    <path d="M127.69628,133.468842 C127.804371,133.367789 127.861844,133.396737 127.970462,133.512 L128.331644,133.908842 C128.425498,134.016737 128.447116,134.052526 128.367498,134.132526 C127.998935,134.492526 127.529662,134.673053 127.030862,134.673053 C125.976316,134.673053 125.116335,133.814632 125.116335,132.762 C125.116335,131.708842 125.976316,130.844105 127.030862,130.844105 C127.529662,130.844105 127.998935,131.023579 128.367498,131.384632 C128.447116,131.463579 128.425498,131.499895 128.331644,131.608316 L127.970462,132.005158 C127.861844,132.119895 127.804371,132.148842 127.69628,132.048316 C127.471662,131.838842 127.204335,131.824632 127.030862,131.824632 C126.583207,131.824632 126.207789,132.213579 126.207789,132.762 C126.207789,133.309895 126.583207,133.692526 127.030862,133.692526 C127.204335,133.692526 127.471662,133.677789 127.69628,133.468842" id="Fill-32" fill="#1A1919"></path>
                    <path d="M130.709591,131.117895 C130.709591,130.966316 130.753355,130.923158 130.905209,130.923158 L131.620191,130.923158 C131.772573,130.923158 131.815809,130.966316 131.815809,131.117895 L131.815809,134.398947 C131.815809,134.550526 131.772573,134.593684 131.620191,134.593684 L130.905209,134.593684 C130.753355,134.593684 130.709591,134.550526 130.709591,134.398947 L130.709591,131.117895 Z M131.251627,129.184737 C131.605427,129.184737 131.8949,129.473684 131.8949,129.826842 C131.8949,130.180526 131.605427,130.454211 131.251627,130.454211 C130.897827,130.454211 130.623118,130.180526 130.623118,129.826842 C130.623118,129.473684 130.897827,129.184737 131.251627,129.184737 L131.251627,129.184737 Z" id="Fill-34" fill="#1A1919"></path>
                    <path d="M136.483333,130.345895 C136.396333,130.418526 136.295624,130.461684 136.180151,130.461684 L135.572733,130.461684 C135.442496,130.461684 135.414024,130.396947 135.565878,130.230632 L136.468569,129.235895 C136.562424,129.120105 136.656805,129.163789 136.743278,129.300632 L137.010605,129.733263 C137.075987,129.848526 137.075987,129.898526 136.945751,130.006947 L136.483333,130.345895 Z M136.901987,132.762211 C136.901987,132.213789 136.526569,131.824842 136.078387,131.824842 C135.630733,131.824842 135.255315,132.213789 135.255315,132.762211 C135.255315,133.310105 135.630733,133.713789 136.078387,133.713789 C136.526569,133.713789 136.901987,133.310105 136.901987,132.762211 L136.901987,132.762211 Z M136.078387,130.843789 C137.13346,130.843789 138.000824,131.709053 138.000824,132.762211 C138.000824,133.814842 137.13346,134.673263 136.078387,134.673263 C135.023315,134.673263 134.156478,133.814842 134.156478,132.762211 C134.156478,131.709053 135.023315,130.843789 136.078387,130.843789 L136.078387,130.843789 Z" id="Fill-36" fill="#1A1919"></path>
                    <path d="M141.180858,131.377474 C141.461895,131.074842 141.722367,130.843789 142.235404,130.843789 C143.059531,130.843789 143.615276,131.218526 143.615276,132.545895 L143.615276,134.399053 C143.615276,134.550632 143.57204,134.593789 143.420185,134.593789 L142.705204,134.593789 C142.553349,134.593789 142.510113,134.550632 142.510113,134.399053 L142.510113,132.762211 C142.510113,132.105895 142.386731,131.824842 141.953313,131.824842 C141.505131,131.824842 141.36804,132.105895 141.36804,132.762211 L141.36804,134.399053 C141.36804,134.550632 141.324804,134.593789 141.173476,134.593789 L140.457967,134.593789 C140.30664,134.593789 140.263404,134.550632 140.263404,134.399053 L140.263404,132.762211 L140.263404,131.118 C140.263404,130.966421 140.30664,130.923263 140.457967,130.923263 L140.804913,130.923263 C140.920385,130.923263 140.95624,130.980632 141.035858,131.118 L141.180858,131.377474 Z" id="Fill-38" fill="#1A1919"></path>
                    <path d="M99.6725782,141.064474 C99.5998145,140.761842 99.4411055,140.393947 98.9713055,140.393947 C98.4798873,140.393947 98.3143236,140.761842 98.2489418,141.064474 L99.6725782,141.064474 Z M100.459796,142.571842 C100.546269,142.679737 100.575796,142.738158 100.496178,142.817105 C100.163996,143.148684 99.56396,143.329211 99.0287782,143.329211 C97.9383782,143.329211 97.0783964,142.470789 97.0783964,141.418158 C97.0783964,140.365 97.9383782,139.499737 98.9929236,139.499737 C100.228851,139.499737 100.79936,140.480789 100.79936,141.555 C100.79936,141.713421 100.77036,141.763947 100.619033,141.763947 L98.2199418,141.763947 C98.3433236,142.131842 98.6681236,142.391316 99.0503964,142.391316 C99.2175418,142.391316 99.4911964,142.384474 99.8961418,142.203947 C100.040615,142.139211 100.076996,142.096053 100.178233,142.218158 L100.459796,142.571842 Z" id="Fill-40" fill="#1A1919"></path>
                    <path d="M103.972118,143.055105 C103.864027,143.206684 103.820791,143.249842 103.690555,143.249842 L102.765718,143.249842 C102.6281,143.249842 102.563245,143.206684 102.664482,143.055105 L104.326445,140.761947 L102.642864,138.396158 C102.541627,138.244579 102.5991,138.201421 102.736191,138.201421 L103.661027,138.201421 C103.791264,138.201421 103.842409,138.244579 103.943118,138.396158 L104.932809,139.838789 L105.9225,138.396158 C106.031118,138.244579 106.074355,138.201421 106.204591,138.201421 L107.129427,138.201421 C107.266518,138.201421 107.331373,138.244579 107.223282,138.396158 L105.547082,140.761947 L107.209045,143.055105 C107.309755,143.206684 107.252282,143.249842 107.115191,143.249842 L106.190355,143.249842 C106.060118,143.249842 106.016882,143.206684 105.900882,143.055105 L104.932809,141.685105 L103.972118,143.055105 Z" id="Fill-42" fill="#1A1919"></path>
                    <path d="M110.952787,143.329053 C109.998424,143.329053 109.471151,142.730632 109.471151,141.742211 L109.471151,140.444842 L109.298205,140.444842 C109.146351,140.444842 109.103115,140.401158 109.103115,140.249579 L109.103115,139.773789 C109.103115,139.622211 109.146351,139.579053 109.298205,139.579053 L109.471151,139.579053 L109.471151,138.915368 C109.471151,138.763789 109.514387,138.720632 109.666769,138.720632 L110.374369,138.720632 C110.526224,138.720632 110.56946,138.763789 110.56946,138.915368 L110.56946,139.579053 L111.487442,139.579053 C111.639296,139.579053 111.682533,139.622211 111.682533,139.773789 L111.682533,140.249579 C111.682533,140.401158 111.639296,140.444842 111.487442,140.444842 L110.56946,140.444842 L110.56946,141.685368 C110.56946,142.146421 110.765078,142.348526 111.075642,142.348526 C111.183733,142.348526 111.313969,142.333789 111.436824,142.276421 C111.617678,142.190105 111.653533,142.196947 111.682533,142.391684 L111.769005,142.896421 C111.790624,143.033263 111.783242,143.069579 111.667769,143.141684 C111.371442,143.329053 111.046642,143.329053 110.952787,143.329053" id="Fill-44" fill="#1A1919"></path>
                    <path d="M116.350636,141.064474 C116.2784,140.761842 116.119691,140.393947 115.649891,140.393947 C115.158473,140.393947 114.992382,140.761842 114.927527,141.064474 L116.350636,141.064474 Z M117.138382,142.571842 C117.224855,142.679737 117.253855,142.738158 117.174236,142.817105 C116.842055,143.148684 116.242545,143.329211 115.707364,143.329211 C114.616436,143.329211 113.756455,142.470789 113.756455,141.418158 C113.756455,140.365 114.616436,139.499737 115.671509,139.499737 C116.906909,139.499737 117.477945,140.480789 117.477945,141.555 C117.477945,141.713421 117.448418,141.763947 117.297091,141.763947 L114.898527,141.763947 C115.021382,142.131842 115.346709,142.391316 115.728982,142.391316 C115.8956,142.391316 116.169782,142.384474 116.574727,142.203947 C116.7192,142.139211 116.755582,142.096053 116.856291,142.218158 L117.138382,142.571842 Z" id="Fill-46" fill="#1A1919"></path>
                    <path d="M120.614691,140.033421 C120.896255,139.730789 121.1562,139.499737 121.669764,139.499737 C122.493364,139.499737 123.049636,139.874474 123.049636,141.201842 L123.049636,143.055 C123.049636,143.206579 123.005873,143.249737 122.854018,143.249737 L122.139564,143.249737 C121.987709,143.249737 121.943945,143.206579 121.943945,143.055 L121.943945,141.418158 C121.943945,140.761842 121.821091,140.480789 121.387673,140.480789 C120.939491,140.480789 120.8024,140.761842 120.8024,141.418158 L120.8024,143.055 C120.8024,143.206579 120.759164,143.249737 120.607309,143.249737 L119.892327,143.249737 C119.740473,143.249737 119.697236,143.206579 119.697236,143.055 L119.697236,141.418158 L119.697236,139.773947 C119.697236,139.622368 119.740473,139.579211 119.892327,139.579211 L120.238745,139.579211 C120.354745,139.579211 120.3906,139.636579 120.470218,139.773947 L120.614691,140.033421 Z" id="Fill-48" fill="#1A1919"></path>
                    <path d="M127.342005,142.175158 C127.342005,142.009368 127.074678,141.951474 126.627024,141.894105 C125.839278,141.792526 125.210242,141.504632 125.210242,140.718316 C125.210242,139.975684 125.839278,139.499895 126.735642,139.499895 C127.117915,139.499895 127.594569,139.593579 128.151369,139.910421 C128.28846,139.990421 128.25946,140.055158 128.194605,140.184632 L127.984751,140.545158 C127.912515,140.675158 127.861896,140.733053 127.725333,140.638842 C127.500715,140.487789 127.233915,140.343579 126.807351,140.343579 C126.388169,140.343579 126.251078,140.452 126.251078,140.654105 C126.251078,140.819368 126.518405,140.892 126.96606,140.949368 C127.753805,141.049895 128.382315,141.287789 128.382315,142.110421 C128.382315,142.853053 127.739569,143.328842 126.807351,143.328842 C126.424551,143.328842 125.839278,143.220947 125.304624,142.860421 C125.174387,142.774105 125.196005,142.716211 125.261387,142.586211 L125.470715,142.225684 C125.542951,142.096211 125.586187,142.023579 125.73066,142.132 C125.947369,142.290947 126.309078,142.485158 126.735642,142.485158 C127.117915,142.485158 127.342005,142.377263 127.342005,142.175158" id="Fill-50" fill="#1A1919"></path>
                    <path d="M130.709591,139.773842 C130.709591,139.622263 130.753355,139.579105 130.905209,139.579105 L131.620191,139.579105 C131.772573,139.579105 131.815809,139.622263 131.815809,139.773842 L131.815809,143.054895 C131.815809,143.206474 131.772573,143.249632 131.620191,143.249632 L130.905209,143.249632 C130.753355,143.249632 130.709591,143.206474 130.709591,143.054895 L130.709591,139.773842 Z M131.251627,137.840684 C131.605427,137.840684 131.8949,138.129632 131.8949,138.483316 C131.8949,138.836474 131.605427,139.110158 131.251627,139.110158 C130.897827,139.110158 130.623118,138.836474 130.623118,138.483316 C130.623118,138.129632 130.897827,137.840684 131.251627,137.840684 L131.251627,137.840684 Z" id="Fill-52" fill="#1A1919"></path>
                    <path d="M136.483333,139.001842 C136.396333,139.074474 136.295624,139.117632 136.180151,139.117632 L135.572733,139.117632 C135.442496,139.117632 135.414024,139.052895 135.565878,138.886579 L136.468569,137.891842 C136.562424,137.776053 136.656805,137.819211 136.743278,137.957105 L137.010605,138.389211 C137.075987,138.504474 137.075987,138.554474 136.945751,138.662895 L136.483333,139.001842 Z M136.901987,141.418158 C136.901987,140.869737 136.526569,140.480789 136.078387,140.480789 C135.630733,140.480789 135.255315,140.869737 135.255315,141.418158 C135.255315,141.966053 135.630733,142.369737 136.078387,142.369737 C136.526569,142.369737 136.901987,141.966053 136.901987,141.418158 L136.901987,141.418158 Z M136.078387,139.499737 C137.13346,139.499737 138.000824,140.365 138.000824,141.418158 C138.000824,142.470789 137.13346,143.329211 136.078387,143.329211 C135.023315,143.329211 134.156478,142.470789 134.156478,141.418158 C134.156478,140.365 135.023315,139.499737 136.078387,139.499737 L136.078387,139.499737 Z" id="Fill-54" fill="#1A1919"></path>
                    <path d="M141.180858,140.033421 C141.461895,139.730789 141.722367,139.499737 142.235404,139.499737 C143.059531,139.499737 143.615276,139.874474 143.615276,141.201842 L143.615276,143.055 C143.615276,143.206579 143.57204,143.249737 143.420185,143.249737 L142.705204,143.249737 C142.553349,143.249737 142.510113,143.206579 142.510113,143.055 L142.510113,141.418158 C142.510113,140.761842 142.386731,140.480789 141.953313,140.480789 C141.505131,140.480789 141.36804,140.761842 141.36804,141.418158 L141.36804,143.055 C141.36804,143.206579 141.324804,143.249737 141.173476,143.249737 L140.457967,143.249737 C140.30664,143.249737 140.263404,143.206579 140.263404,143.055 L140.263404,141.418158 L140.263404,139.773947 C140.263404,139.622368 140.30664,139.579211 140.457967,139.579211 L140.804913,139.579211 C140.920385,139.579211 140.95624,139.636579 141.035858,139.773947 L141.180858,140.033421 Z" id="Fill-56" fill="#1A1919"></path>
                    <path d="M74.79912,91.5748421 L74.79912,87.9806316 C74.79912,87.8653684 74.8328655,87.8411579 74.9435927,87.8411579 L75.3722655,87.8411579 C75.4829927,87.8411579 75.5167382,87.8753684 75.5167382,87.9806316 L75.5167382,91.5311579 C75.5167382,93.0369474 76.2812836,93.6695789 77.3764291,93.6695789 C78.4610291,93.6695789 79.2276836,93.0369474 79.2276836,91.5311579 L79.2276836,87.9806316 C79.2276836,87.8753684 79.2624836,87.8411579 79.3721564,87.8411579 L79.8061018,87.8411579 C79.9163018,87.8411579 79.9458291,87.8753684 79.9458291,87.9806316 L79.9458291,91.5748421 C79.9458291,93.3816842 78.8554291,94.3064211 77.3764291,94.3064211 C75.8889927,94.3064211 74.79912,93.3816842 74.79912,91.5748421" id="Fill-58" fill="#1A1919"></path>
                    <path d="M83.9331709,90.5283684 C84.1245709,90.1694211 84.5970073,89.4688947 85.4865164,89.4688947 C86.4566982,89.4688947 87.2839891,90.0578421 87.2839891,91.5136316 L87.2839891,94.0478421 C87.2839891,94.1531053 87.2497164,94.1915263 87.1516436,94.1915263 L86.7408982,94.1915263 C86.6428255,94.1915263 86.6053891,94.1531053 86.6053891,94.0478421 L86.6053891,91.6946842 C86.6053891,90.6141579 86.0622982,90.0857368 85.3251709,90.0857368 C84.5358436,90.0857368 84.0264982,90.8462632 84.0264982,91.7557368 L84.0264982,94.0478421 C84.0264982,94.1531053 83.98748,94.1915263 83.8894073,94.1915263 L83.4776073,94.1915263 C83.3774255,94.1915263 83.3431527,94.1531053 83.3431527,94.0478421 L83.3431527,91.7899474 L83.3431527,89.7173158 C83.3431527,89.6046842 83.3774255,89.5704737 83.4776073,89.5704737 L83.7048618,89.5704737 C83.7760436,89.5704737 83.8129527,89.6046842 83.8619891,89.7173158 L83.9331709,90.5283684 Z" id="Fill-60" fill="#1A1919"></path>
                    <path d="M90.8479773,89.7173158 C90.8479773,89.6046842 90.8767702,89.5704737 90.9952642,89.5704737 L91.411654,89.5704737 C91.5345776,89.5704737 91.5633705,89.6046842 91.5633705,89.7173158 L91.5633705,94.0478421 C91.5633705,94.1531053 91.5273793,94.1915263 91.411654,94.1915263 L90.9952642,94.1915263 C90.8767702,94.1915263 90.8479773,94.1531053 90.8479773,94.0478421 L90.8479773,89.7173158 Z M91.1929386,87.5841579 C91.4675787,87.5841579 91.6968145,87.7925789 91.6968145,88.0567895 C91.6968145,88.3183684 91.4675787,88.5288947 91.1929386,88.5288947 C90.9171911,88.5288947 90.6968145,88.3183684 90.6968145,88.0567895 C90.6968145,87.7925789 90.9171911,87.5841579 91.1929386,87.5841579 L91.1929386,87.5841579 Z" id="Fill-62" fill="#1A1919"></path>
                    <path d="M94.4760418,89.7173158 C94.4391327,89.6383684 94.4760418,89.5704737 94.5561873,89.5704737 L95.0122782,89.5704737 C95.11246,89.5704737 95.1493691,89.5967895 95.2005145,89.7173158 L96.7417327,93.0225789 L96.7417327,93.0373158 L98.26766,89.7173158 C98.3161691,89.5967895 98.3630964,89.5704737 98.4490418,89.5704737 L98.9019691,89.5704737 C99.0021509,89.5704737 99.0195509,89.6425789 98.99266,89.7173158 L96.86406,94.2099474 C96.8129145,94.2931053 96.80026,94.3457368 96.7459509,94.3457368 L96.7201145,94.3457368 C96.6752964,94.3457368 96.6684418,94.3067895 96.6114964,94.2099474 L94.4760418,89.7173158 Z" id="Fill-64" fill="#1A1919"></path>
                    <path d="M105.18938,91.6483158 C105.157744,90.8314737 104.565089,90.042 103.636562,90.042 C102.695907,90.042 102.012562,90.8314737 101.983562,91.6483158 L105.18938,91.6483158 Z M105.525253,93.4572632 C105.591162,93.5362105 105.591162,93.5867368 105.525253,93.6535789 C105.101853,94.0683158 104.364198,94.2893684 103.690344,94.2893684 C102.321544,94.2893684 101.263307,93.2062105 101.263307,91.8825263 C101.263307,90.5556842 102.321544,89.4688421 103.643944,89.4688421 C105.064944,89.4688421 105.892762,90.6141053 105.892762,91.9756842 C105.892762,92.0777895 105.875362,92.1198947 105.752507,92.1198947 L101.968798,92.1198947 C102.029962,92.9604211 102.799253,93.6846316 103.719871,93.6846316 C104.163307,93.6846316 104.706925,93.5530526 105.148253,93.2351579 C105.245798,93.1814737 105.283235,93.1641053 105.353889,93.2451579 L105.525253,93.4572632 Z" id="Fill-66" fill="#1A1919"></path>
                    <path d="M109.682535,91.8123158 L109.682535,94.0475789 C109.682535,94.1528421 109.640353,94.1917895 109.547553,94.1917895 L109.135753,94.1917895 C109.035044,94.1917895 109.001298,94.1528421 109.001298,94.0475789 L109.001298,89.7175789 C109.001298,89.6049474 109.035044,89.5702105 109.135753,89.5702105 L109.363535,89.5702105 C109.437353,89.5702105 109.473735,89.6049474 109.518025,89.7175789 L109.626116,90.6212632 C109.812244,90.2402105 110.228262,89.4691579 111.516916,89.4691579 C111.648735,89.4691579 111.663498,89.5044211 111.648735,89.5970526 L111.587571,90.0049474 C111.562789,90.1128421 111.536425,90.1438947 111.426225,90.1438947 C110.245662,90.1438947 109.682535,90.9707368 109.682535,91.8123158" id="Fill-68" fill="#1A1919"></path>
                    <path d="M117.246631,92.886 C117.246631,92.4923158 116.788431,92.2817895 115.960613,92.1638947 C115.058449,92.0444211 114.201631,91.8386316 114.201631,90.8849474 C114.201631,90.0249474 114.87074,89.4691579 115.942685,89.4691579 C116.418813,89.4691579 117.047322,89.5870526 117.678995,89.9807368 C117.787085,90.0423158 117.770213,90.0933684 117.723285,90.1781053 L117.606758,90.3965263 C117.562467,90.4870526 117.517649,90.5286316 117.407449,90.4596842 C116.917085,90.1591579 116.572249,90.0249474 115.979595,90.0249474 C115.215576,90.0249474 114.845431,90.3538947 114.845431,90.8465263 C114.845431,91.3444211 115.299413,91.4433684 116.121958,91.5581053 C117.025176,91.6838947 117.899395,91.976 117.899395,92.856 C117.899395,93.6849474 117.207085,94.2891579 116.036013,94.2891579 C115.550922,94.2891579 114.838049,94.1528421 114.162085,93.7091579 C114.081413,93.6533684 114.081413,93.6044211 114.135195,93.5065263 L114.257522,93.2796842 C114.306558,93.1912632 114.353485,93.1465263 114.461049,93.2249474 C114.862831,93.5065263 115.396431,93.7370526 115.999631,93.7370526 C116.880704,93.7370526 117.246631,93.3475789 117.246631,92.886" id="Fill-70" fill="#1A1919"></path>
                    <path d="M121.201953,89.7173158 C121.201953,89.6046842 121.232373,89.5704737 121.352949,89.5704737 L121.7639,89.5704737 C121.892772,89.5704737 121.915449,89.6046842 121.915449,89.7173158 L121.915449,94.0478421 C121.915449,94.1531053 121.879497,94.1915263 121.7639,94.1915263 L121.352949,94.1915263 C121.232373,94.1915263 121.201953,94.1531053 121.201953,94.0478421 L121.201953,89.7173158 Z M121.548745,87.5841579 C121.8264,87.5841579 122.052064,87.7925789 122.052064,88.0567895 C122.052064,88.3183684 121.8264,88.5288947 121.548745,88.5288947 C121.27109,88.5288947 121.052064,88.3183684 121.052064,88.0567895 C121.052064,87.7925789 121.27109,87.5841579 121.548745,87.5841579 L121.548745,87.5841579 Z" id="Fill-72" fill="#1A1919"></path>
                    <path d="M128.988731,91.8826842 C128.988731,90.9753158 128.376567,90.0858421 127.43064,90.0858421 C126.474695,90.0858421 125.877822,90.9411053 125.877822,91.8732105 C125.877822,92.8800526 126.474695,93.6826842 127.43064,93.6826842 C128.376567,93.6826842 128.988731,92.7832105 128.988731,91.8826842 L128.988731,91.8826842 Z M128.976076,87.6368947 C128.976076,87.5311053 129.012985,87.4921579 129.113167,87.4921579 L129.522858,87.4921579 C129.620931,87.4921579 129.65784,87.5311053 129.65784,87.6368947 L129.65784,94.0474211 C129.65784,94.1526842 129.620931,94.1916316 129.522858,94.1916316 L129.314585,94.1916316 C129.231276,94.1916316 129.194895,94.1526842 129.160622,94.0474211 L129.086804,93.199 C128.861131,93.5432105 128.366022,94.289 127.293549,94.289 C126.022295,94.289 125.195004,93.1911053 125.195004,91.8732105 C125.195004,90.5505789 126.022295,89.469 127.293549,89.469 C128.366022,89.469 128.866404,90.2737368 128.976076,90.5284737 L128.976076,87.6368947 Z" id="Fill-74" fill="#1A1919"></path>
                    <path d="M133.503504,92.7832105 C133.503504,93.3442632 133.91214,93.7537368 134.649795,93.7537368 C135.276722,93.7537368 135.86674,93.3258421 136.157795,92.8974211 L136.157795,92.1479474 C135.695904,91.9568947 135.342631,91.8195263 134.823267,91.8195263 C133.95854,91.8195263 133.503504,92.1637368 133.503504,92.7832105 M133.292595,90.0858421 L133.221413,89.8121579 C133.193995,89.7174211 133.221413,89.6732105 133.326867,89.6379474 C133.437067,89.6047895 134.194758,89.469 134.894976,89.469 C136.419849,89.469 136.84114,90.1516316 136.84114,91.6484737 L136.84114,94.0474211 C136.84114,94.1532105 136.800013,94.1916316 136.707213,94.1916316 L136.439885,94.1916316 C136.366595,94.1916316 136.329685,94.1532105 136.304904,94.0474211 L136.265885,93.429 C136.020704,93.7626842 135.423831,94.289 134.440995,94.289 C133.566776,94.289 132.82174,93.7537368 132.82174,92.7832105 C132.82174,91.7900526 133.566776,91.3084737 134.68354,91.3084737 C135.168631,91.3084737 135.695904,91.4432105 136.157795,91.6332105 C136.157795,90.4874211 135.817704,90.0716316 134.870195,90.0716316 C134.283867,90.0716316 133.811958,90.1516316 133.468704,90.2132105 C133.351649,90.2400526 133.324231,90.1958421 133.292595,90.0858421" id="Fill-76" fill="#1A1919"></path>
                    <path d="M143.528382,91.8826842 C143.528382,90.9753158 142.921491,90.0858421 141.976091,90.0858421 C141.020673,90.0858421 140.418,90.9411053 140.418,91.8732105 C140.418,92.8800526 141.020673,93.6826842 141.976091,93.6826842 C142.921491,93.6826842 143.528382,92.7832105 143.528382,91.8826842 L143.528382,91.8826842 Z M143.518364,87.6368947 C143.518364,87.5311053 143.558436,87.4921579 143.655455,87.4921579 L144.065673,87.4921579 C144.166382,87.4921579 144.202236,87.5311053 144.202236,87.6368947 L144.202236,94.0474211 C144.202236,94.1526842 144.166382,94.1916316 144.065673,94.1916316 L143.856873,94.1916316 C143.7762,94.1916316 143.737182,94.1526842 143.702909,94.0474211 L143.626982,93.199 C143.403418,93.5432105 142.911473,94.289 141.839,94.289 C140.564582,94.289 139.737291,93.1911053 139.737291,91.8732105 C139.737291,90.5505789 140.564582,89.469 141.839,89.469 C142.911473,89.469 143.4108,90.2737368 143.518364,90.5284737 L143.518364,87.6368947 Z" id="Fill-78" fill="#1A1919"></path>
                    <path d="M87.5900709,105.071421 C87.3991982,105.071421 87.3454164,105.018789 87.3454164,104.828789 L87.3454164,98.9693158 C87.3454164,98.7803684 87.3991982,98.7208947 87.5900709,98.7208947 L91.7170345,98.7208947 C91.9068527,98.7208947 91.9622164,98.7803684 91.9622164,98.9693158 L91.9622164,99.7298421 C91.9622164,99.9240526 91.9068527,99.9782632 91.7170345,99.9782632 L88.8296891,99.9782632 L88.8296891,101.257211 L91.5978709,101.257211 C91.7887436,101.257211 91.8446345,101.306158 91.8446345,101.502474 L91.8446345,102.261947 C91.8446345,102.448789 91.7887436,102.508789 91.5978709,102.508789 L88.8296891,102.508789 L88.8296891,103.819316 L91.7170345,103.819316 C91.9068527,103.819316 91.9622164,103.877737 91.9622164,104.067211 L91.9622164,104.828789 C91.9622164,105.018789 91.9068527,105.071421 91.7170345,105.071421 L87.5900709,105.071421 Z" id="Fill-80" fill="#1A1919"></path>
                    <path d="M94.9826982,98.6235789 C94.9826982,98.4309474 95.0343709,98.3762105 95.22788,98.3762105 L96.1237164,98.3762105 C96.3151164,98.3762105 96.3720618,98.4309474 96.3720618,98.6235789 L96.3720618,104.828842 C96.3720618,105.022 96.3151164,105.071474 96.1237164,105.071474 L95.22788,105.071474 C95.0343709,105.071474 94.9826982,105.018842 94.9826982,104.828842 L94.9826982,98.6235789 Z" id="Fill-82" fill="#1A1919"></path>
                    <path d="M106.394778,103.849211 C107.031196,103.849211 107.295887,103.639211 107.295887,103.169211 C107.295887,102.790263 107.002724,102.464474 106.394778,102.464474 L105.150942,102.464474 L105.150942,103.849211 L106.394778,103.849211 Z M106.179124,101.279211 C106.813433,101.279211 107.065996,100.966053 107.065996,100.627105 C107.065996,100.156053 106.813433,99.9513158 106.179124,99.9513158 L105.150942,99.9513158 L105.150942,101.279211 L106.179124,101.279211 Z M103.911324,105.071316 C103.725196,105.071316 103.666142,105.022368 103.666142,104.828684 L103.666142,98.9697368 C103.666142,98.7802632 103.725196,98.7207895 103.911324,98.7207895 L106.223415,98.7207895 C107.259505,98.7207895 108.540251,99.1592105 108.540251,100.492368 C108.540251,101.137632 108.175378,101.545526 107.768851,101.807632 L107.768851,101.816579 C108.249196,102.041842 108.769087,102.484474 108.769087,103.303947 C108.769087,104.641842 107.651796,105.071316 106.449087,105.071316 L103.911324,105.071316 Z" id="Fill-84" fill="#1A1919"></path>
                    <path d="M114.700853,102.767789 C114.700853,102.083579 114.230525,101.590421 113.667398,101.590421 C113.101635,101.590421 112.63078,102.083579 112.63078,102.767789 C112.63078,103.459368 113.101635,103.968842 113.667398,103.968842 C114.230525,103.968842 114.700853,103.459368 114.700853,102.767789 M113.667398,100.359895 C114.990325,100.359895 116.084944,101.447263 116.084944,102.767789 C116.084944,104.095684 114.990325,105.172 113.667398,105.172 C112.341835,105.172 111.247216,104.095684 111.247216,102.767789 C111.247216,101.447263 112.341835,100.359895 113.667398,100.359895" id="Fill-86" fill="#1A1919"></path>
                    <path d="M121.279951,103.723789 C121.279951,103.511684 120.947242,103.441158 120.381478,103.366947 C119.393896,103.240632 118.605096,102.878526 118.605096,101.893263 C118.605096,100.956947 119.393896,100.359579 120.518569,100.359579 C121.001551,100.359579 121.598424,100.476421 122.301805,100.873263 C122.475805,100.976421 122.435733,101.053789 122.355587,101.218 L122.093533,101.673263 C122.000205,101.834316 121.936405,101.910632 121.767678,101.790632 C121.483478,101.599579 121.145496,101.423263 120.611369,101.423263 C120.080405,101.423263 119.910624,101.552737 119.910624,101.807474 C119.910624,102.018 120.249133,102.105895 120.809624,102.181684 C121.801424,102.306421 122.593387,102.607474 122.593387,103.641684 C122.593387,104.574842 121.785078,105.172211 120.611369,105.172211 C120.124169,105.172211 119.393896,105.042737 118.720569,104.582211 C118.554478,104.480105 118.583478,104.403789 118.666787,104.238526 L118.933587,103.787474 C119.019005,103.621684 119.072787,103.529579 119.259442,103.668 C119.528878,103.863789 119.981805,104.110632 120.518569,104.110632 C121.001551,104.110632 121.279951,103.978526 121.279951,103.723789" id="Fill-88" fill="#1A1919"></path>
                    <path d="M126.455871,102.758526 C126.455871,103.455368 126.926725,103.939053 127.491962,103.939053 C128.05298,103.939053 128.526471,103.455368 128.526471,102.758526 C128.526471,102.071158 128.05298,101.565895 127.491962,101.565895 C126.926725,101.565895 126.455871,102.071158 126.455871,102.758526 L126.455871,102.758526 Z M128.515925,104.558 C128.378835,104.778526 127.856835,105.172211 127.169271,105.172211 C125.961289,105.172211 125.072307,104.088526 125.072307,102.758526 C125.072307,101.482211 125.961289,100.359579 127.169271,100.359579 C127.856835,100.359579 128.361435,100.601158 128.770598,101.029579 L128.954616,100.702211 C129.054798,100.529053 129.099089,100.457474 129.245144,100.457474 L129.661689,100.457474 C129.853616,100.457474 129.910035,100.508526 129.910035,100.702211 L129.910035,106.677474 C129.910035,106.872737 129.853616,106.926947 129.661689,106.926947 L128.761107,106.926947 C128.572344,106.926947 128.515925,106.872737 128.515925,106.677474 L128.515925,104.558 Z" id="Fill-90" fill="#1A1919"></path>
                    <path d="M135.969927,104.504526 C135.616655,104.885579 135.291327,105.172421 134.643836,105.172421 C133.608273,105.172421 132.905418,104.700316 132.905418,103.035053 L132.905418,100.701895 C132.905418,100.508211 132.961836,100.457684 133.154818,100.457684 L134.053818,100.457684 C134.245218,100.457684 134.298473,100.508211 134.298473,100.701895 L134.298473,102.758737 C134.298473,103.587158 134.452964,103.939263 134.999745,103.939263 C135.5634,103.939263 135.732127,103.587158 135.732127,102.758737 L135.732127,100.701895 C135.732127,100.508211 135.790655,100.457684 135.977309,100.457684 L136.875255,100.457684 C137.067182,100.457684 137.1236,100.508211 137.1236,100.701895 L137.1236,102.758737 L137.1236,104.828737 C137.1236,105.021895 137.067182,105.071368 136.875255,105.071368 L136.442364,105.071368 C136.295255,105.071368 136.251491,105.000842 136.156055,104.828737 L135.969927,104.504526 Z" id="Fill-92" fill="#1A1919"></path>
                    <path d="M143.234849,102.323684 C143.141522,101.939474 142.94274,101.482105 142.352722,101.482105 C141.73054,101.482105 141.527013,101.939474 141.441595,102.323684 L143.234849,102.323684 Z M144.226649,104.222632 C144.336849,104.36 144.366376,104.427368 144.27094,104.531053 C143.852285,104.948421 143.100395,105.172105 142.423904,105.172105 C141.05194,105.172105 139.969976,104.095789 139.969976,102.767895 C139.969976,101.447368 141.05194,100.362105 142.382776,100.362105 C143.930322,100.362105 144.652685,101.59 144.652685,102.942105 C144.652685,103.143158 144.613667,103.205789 144.424904,103.205789 L141.404685,103.205789 C141.559176,103.667895 141.968867,103.99 142.448685,103.99 C142.66434,103.99 143.00654,103.987368 143.51114,103.761053 C143.699904,103.674737 143.742085,103.621579 143.868631,103.78 L144.226649,104.222632 Z" id="Fill-94" fill="#1A1919"></path>
                    <path d="M39.5331164,22.151 C36.8561527,22.151 34.7602436,24.2852105 34.7602436,27.0120526 C34.7602436,29.6841579 36.8561527,31.7773158 39.5331164,31.7773158 C42.2643891,31.7773158 44.4040618,29.6841579 44.4040618,27.0088947 C44.4040618,24.3320526 42.2174618,22.151 39.5331164,22.151" id="Fill-96" fill="#1A1919"></path>
                    <path d="M42.1807636,35.1048421 L36.9101455,35.1074737 C35.3525818,35.1074737 34.6903273,35.6185263 34.6903273,36.8185263 L34.6903273,66.5111579 C34.6903273,67.7090526 35.3525818,68.2222105 36.9101455,68.2222105 L42.1807636,68.2222105 C43.7409636,68.2222105 44.4042727,67.7069474 44.4042727,66.5111579 L44.4042727,36.8185263 C44.4042727,35.6185263 43.7409636,35.1048421 42.1807636,35.1048421" id="Fill-98" fill="#1A1919"></path>
                    <path d="M78.7088473,36.3512632 C80.3676473,36.3512632 81.0741927,35.6475789 81.0741927,33.9928421 L81.0741927,29.2270526 C81.0741927,27.5717895 80.3676473,26.8654737 78.7088473,26.8654737 L54.1795927,26.8654737 C52.5207927,26.8654737 51.8131927,27.5717895 51.8131927,29.2270526 L51.8131927,65.8602105 C51.8131927,67.5165263 52.5207927,68.2223158 54.1795927,68.2223158 L78.7088473,68.2223158 C80.3676473,68.2223158 81.0741927,67.5165263 81.0741927,65.8602105 L81.0741927,61.0975789 C81.0741927,59.4433684 80.3676473,58.7333684 78.7088473,58.7333684 L61.4728291,58.7333684 L61.4728291,52.176 L78.2648836,52.176 C79.9236836,52.176 80.6333927,51.4696842 80.6333927,49.8117895 L80.6333927,45.0481053 C80.6333927,43.3938947 79.9236836,42.6838947 78.2648836,42.6838947 L61.4728291,42.6838947 L61.4728291,36.3512632 L78.7088473,36.3512632 Z" id="Fill-100" fill="#1A1919"></path>
                    <g id="Group-104" transform="translate(51.672727, 0.000000)">
                        <mask id="mask-2" fill="white">
                            <use xlink:href="#path-1"></use>
                        </mask>
                        <g id="Clip-103"></g>
                        <path d="M13.0093473,0.820842105 C13.0093473,0.217157895 13.1801836,0.0429473684 13.7891836,0.0429473684 L16.94122,0.0429473684 C17.5486382,0.0429473684 17.7226382,0.217157895 17.7226382,0.820842105 L17.7226382,19.4692632 C17.7226382,20.0734737 17.5486382,20.2461053 16.94122,20.2461053 L13.7891836,20.2461053 C13.1801836,20.2461053 13.0093473,20.0734737 13.0093473,19.4692632 L13.0093473,12.2834737 L4.85402,12.2834737 L4.85402,19.4692632 C4.85402,20.0734737 4.68107455,20.2461053 4.07312909,20.2461053 L0.920565455,20.2461053 C0.314729091,20.2461053 0.140729091,20.0734737 0.140729091,19.4692632 L0.140729091,0.820842105 C0.140729091,0.217157895 0.314729091,0.0429473684 0.920565455,0.0429473684 L4.07312909,0.0429473684 C4.68107455,0.0429473684 4.85402,0.217157895 4.85402,0.820842105 L4.85402,8.21242105 L13.0093473,8.21242105 L13.0093473,0.820842105 Z" id="Fill-102" fill="#1A1919" mask="url(#mask-2)"></path>
                    </g>
                    <g id="Group-107" transform="translate(73.290909, 0.000000)">
                        <mask id="mask-4" fill="white">
                            <use xlink:href="#path-3"></use>
                        </mask>
                        <g id="Clip-106"></g>
                        <path d="M0.4495,11.9356316 L0.4495,0.820894737 C0.4495,0.216684211 0.622445455,0.043 1.22933636,0.043 L4.38137273,0.043 C4.98879091,0.043 5.16279091,0.216684211 5.16279091,0.820894737 L5.16279091,11.7919474 C5.16279091,14.9377368 6.43404545,16.5545789 9.21171818,16.5545789 C11.9867545,16.5545789 13.2580091,14.9377368 13.2580091,11.7919474 L13.2580091,0.820894737 C13.2580091,0.216684211 13.4320091,0.043 14.0394273,0.043 L17.1946273,0.043 C17.7967727,0.043 17.9707727,0.216684211 17.9707727,0.820894737 L17.9707727,11.9356316 C17.9707727,17.6782632 13.9250091,20.6224737 9.21171818,20.6224737 C4.49948182,20.6224737 0.4495,17.6782632 0.4495,11.9356316" id="Fill-105" fill="#1A1919" mask="url(#mask-4)"></path>
                    </g>
                    <path d="M105.623431,16.3486842 C107.648685,16.3486842 108.484413,15.6892105 108.484413,14.1881579 C108.484413,12.975 107.561158,11.9355263 105.623431,11.9355263 L101.659922,11.9355263 L101.659922,16.3486842 L105.623431,16.3486842 Z M104.927958,8.18184211 C106.953213,8.18184211 107.764158,7.17289474 107.764158,6.10447368 C107.764158,4.60552632 106.953213,3.93763158 104.927958,3.93763158 L101.659922,3.93763158 L101.659922,8.18184211 L104.927958,8.18184211 Z M97.7312127,20.2460526 C97.1211582,20.2460526 96.9471582,20.0734211 96.9471582,19.4692105 L96.9471582,0.820789474 C96.9471582,0.217105263 97.1211582,0.0434210526 97.7312127,0.0434210526 L105.075067,0.0434210526 C108.369467,0.0434210526 112.447395,1.42605263 112.447395,5.67131579 C112.447395,7.72026316 111.288976,9.02184211 109.988195,9.85605263 L109.988195,9.88710526 C111.522031,10.6081579 113.170285,11.995 113.170285,14.6213158 C113.170285,18.8628947 109.615413,20.2460526 105.794795,20.2460526 L97.7312127,20.2460526 Z" id="Fill-108" fill="#1A1919"></path>
                    <path d="M46.0380273,105.880474 C45.6979364,105.880474 45.3557364,105.778368 45.0594091,105.567842 C44.3022455,105.025211 44.1271909,103.974684 44.6681727,103.217842 L61.0378818,80.3641579 C61.5783364,79.6083684 62.6328818,79.4320526 63.3884636,79.9731053 C64.1466818,80.5115263 64.3217364,81.5636316 63.7786455,82.3204737 L47.4110455,105.174158 C47.0815,105.633105 46.5631909,105.880474 46.0380273,105.880474" id="Fill-110" fill="#1A1919"></path>
                    <path d="M25.8687909,133.825053 C25.7580636,133.825053 25.6468091,133.814526 25.5371364,133.792947 C25.4316818,133.770842 25.3262273,133.739263 25.2255182,133.698211 C25.1253364,133.656105 25.0241,133.602421 24.9344636,133.546105 C24.8453545,133.480316 24.7557182,133.406632 24.6755727,133.328211 C24.5959545,133.255053 24.5279364,133.165053 24.4651909,133.074 C24.4066636,132.986632 24.3539364,132.886105 24.3117545,132.785053 C24.2695727,132.685053 24.2374091,132.580316 24.2168455,132.476105 C24.1957545,132.363474 24.1852091,132.252421 24.1852091,132.142947 C24.1852091,132.032947 24.1957545,131.920842 24.2168455,131.809789 C24.2374091,131.705579 24.2695727,131.599789 24.3117545,131.497158 C24.3539364,131.391895 24.4066636,131.298737 24.4704636,131.209263 C24.5279364,131.116105 24.6012273,131.030316 24.6755727,130.951895 C24.7557182,130.871368 24.8400818,130.802947 24.9344636,130.738737 C25.0241,130.680842 25.1253364,130.629263 25.2255182,130.588211 C25.3262273,130.546632 25.4316818,130.512421 25.5418818,130.492421 C25.7580636,130.448737 25.9800455,130.448737 26.1972818,130.492421 C26.3085364,130.512421 26.4134636,130.546632 26.5136455,130.588211 C26.6143545,130.629263 26.7145364,130.680842 26.8041727,130.738737 C26.8996091,130.802947 26.9834455,130.871368 27.0635909,130.951895 C27.1374091,131.030316 27.2112273,131.116105 27.2697545,131.209263 C27.3325,131.298737 27.3852273,131.391895 27.4279364,131.497158 C27.4690636,131.599789 27.5012273,131.705579 27.5217909,131.809789 C27.5444636,131.920842 27.5534273,132.032947 27.5534273,132.142947 C27.5534273,132.252421 27.5444636,132.363474 27.5217909,132.476105 C27.5012273,132.580316 27.4690636,132.685053 27.4279364,132.785053 C27.3852273,132.886105 27.3325,132.986632 27.2745,133.074 C27.2112273,133.165053 27.1426818,133.255053 27.0635909,133.328211 C26.7409,133.651368 26.3180273,133.825053 25.8687909,133.825053" id="Fill-112" fill="#1A1919"></path>
                    <path d="M32.3768127,123.042737 C31.6212309,122.504842 31.4472309,121.450632 31.9866309,120.698 C32.5307764,119.937474 33.5789945,119.764316 34.3356309,120.305895 C35.0970127,120.843789 35.2710127,121.893263 34.73214,122.653789 C34.3989036,123.111158 33.8821764,123.353263 33.3585945,123.353263 C33.0158673,123.353263 32.6784127,123.252211 32.3768127,123.042737" id="Fill-114" fill="#1A1919"></path>
                    <path d="M40.84766,112.888579 C40.3989509,112.888579 39.9766055,112.714368 39.6544418,112.394368 C39.5748236,112.321737 39.5062782,112.231211 39.44406,112.140158 C39.3855327,112.051737 39.3322782,111.952263 39.2900964,111.851211 C39.2473873,111.749105 39.2173327,111.643842 39.19466,111.538053 C39.1740964,111.429105 39.1630236,111.318579 39.1630236,111.206474 C39.1630236,111.095947 39.1740964,110.986474 39.19466,110.877 C39.2173327,110.770684 39.2473873,110.665421 39.2900964,110.565947 C39.3322782,110.462789 39.3855327,110.362789 39.4488055,110.274368 C39.5062782,110.179632 39.5811509,110.095947 39.6544418,110.014895 C40.0462055,109.624368 40.6320055,109.445421 41.1750964,109.558053 C41.2868782,109.577 41.3923327,109.609632 41.4930418,109.651737 C41.5932236,109.694895 41.6934055,109.746474 41.7825145,109.809632 C41.8784782,109.868053 41.9628418,109.941737 42.0414055,110.014895 C42.1162782,110.095947 42.1895691,110.179632 42.2480964,110.274368 C42.3118964,110.362789 42.3646236,110.462789 42.4057509,110.563316 C42.4489873,110.665421 42.4811509,110.770684 42.5017145,110.877 C42.5228055,110.983316 42.5333509,111.095947 42.5333509,111.206474 C42.5333509,111.318579 42.5228055,111.429105 42.5017145,111.538053 C42.4811509,111.643842 42.4489873,111.749105 42.4057509,111.851211 C42.3646236,111.952263 42.3118964,112.049105 42.2533691,112.140158 C42.1895691,112.231211 42.1162782,112.321737 42.0361327,112.394368 C41.9570418,112.472789 41.8732055,112.545947 41.7825145,112.610158 C41.6934055,112.668053 41.5932236,112.719632 41.4930418,112.763316 C41.3923327,112.802789 41.2868782,112.836474 41.1819509,112.856474 C41.0701691,112.875421 40.9599691,112.888579 40.84766,112.888579" id="Fill-116" fill="#1A1919"></path>
                    <path d="M21.0326982,115.010263 C20.6926073,115.010263 20.3504073,114.910263 20.05408,114.697632 C19.2963891,114.157632 19.1218618,113.107632 19.6628436,112.351842 L36.0325527,89.4944737 C36.5740618,88.7386842 37.6264982,88.5628947 38.3831345,89.105 C39.1413527,89.6428947 39.3164073,90.6944737 38.7743709,91.4518421 L22.4051891,114.306579 C22.0756436,114.768158 21.5578618,115.010263 21.0326982,115.010263" id="Fill-118" fill="#1A1919"></path>
                    <path d="M1.68532182,141.811789 C1.57406727,141.811789 1.46334,141.800737 1.35261273,141.779158 C1.24663091,141.758105 1.14117636,141.727579 1.04099455,141.685474 C0.940285455,141.643895 0.839576364,141.590211 0.74994,141.526526 C0.659776364,141.468105 0.57014,141.393368 0.491049091,141.313895 C0.173630909,140.998632 0.000158181818,140.577579 0.000158181818,140.130211 C0.000158181818,139.686526 0.180485455,139.253368 0.491049091,138.937053 C0.57014,138.859684 0.655030909,138.790211 0.74994,138.731263 C0.839576364,138.670737 0.934485455,138.617053 1.04099455,138.574421 C1.14117636,138.532316 1.24663091,138.499684 1.35261273,138.478105 C1.90203091,138.367053 2.48255818,138.549158 2.87801273,138.937053 C3.19068545,139.253368 3.36890364,139.686526 3.36890364,140.130211 C3.36890364,140.577579 3.19490364,140.998632 2.87801273,141.313895 C2.79944909,141.393368 2.70875818,141.468105 2.61964909,141.526526 C2.52526727,141.590211 2.42983091,141.643895 2.32912182,141.685474 C2.22894,141.727579 2.12348545,141.758105 2.01855818,141.779158 C1.90730364,141.800737 1.79499455,141.811789 1.68532182,141.811789" id="Fill-120" fill="#1A1919"></path>
                    <path d="M7.97552727,131.336368 C7.21994545,130.798474 7.04067273,129.744263 7.58429091,128.988474 C8.12263636,128.230579 9.17401818,128.054263 9.93487273,128.599526 C10.6904545,129.137421 10.8644545,130.186368 10.3255818,130.944263 C9.99761818,131.404263 9.48036364,131.646368 8.95309091,131.646368 C8.61510909,131.646368 8.27185455,131.546368 7.97552727,131.336368" id="Fill-122" fill="#1A1919"></path>
                    <path d="M16.2249727,121.486947 C15.7752091,121.486947 15.3533909,121.313263 15.0307,120.991158 C14.9526636,120.912737 14.8835909,120.827474 14.8208455,120.739053 C14.7617909,120.643789 14.7085364,120.548 14.6674091,120.447474 C14.6241727,120.348 14.5925364,120.242737 14.5719727,120.132737 C14.5514091,120.028 14.5413909,119.916947 14.5413909,119.807474 C14.5413909,119.694842 14.5514091,119.585368 14.5719727,119.474316 C14.5925364,119.366947 14.6241727,119.261158 14.6674091,119.163789 C14.7085364,119.056421 14.7617909,118.961684 14.8250636,118.873789 C14.8835909,118.775895 14.9574091,118.692211 15.0307,118.614316 C15.6592091,117.986947 16.7896818,117.986947 17.4192455,118.614316 C17.4925364,118.692211 17.5663545,118.775895 17.6248818,118.873789 C17.6886818,118.961684 17.7414091,119.056421 17.7830636,119.163789 C17.8247182,119.261158 17.8579364,119.366947 17.8795545,119.474316 C17.9001182,119.585368 17.9101364,119.694842 17.9101364,119.807474 C17.9101364,119.916947 17.9001182,120.028 17.8795545,120.132737 C17.8579364,120.242737 17.8247182,120.348 17.7830636,120.447474 C17.7414091,120.548 17.6886818,120.643789 17.6301545,120.739053 C17.5663545,120.827474 17.4925364,120.912737 17.4192455,120.991158 C17.0970818,121.313263 16.6747364,121.486947 16.2249727,121.486947" id="Fill-124" fill="#1A1919"></path>
                    <path d="M46.8052618,131.569684 C46.4662255,131.569684 46.1245527,131.467579 45.8271709,131.254947 C45.0700073,130.718105 44.8949527,129.665474 45.4364618,128.909684 L61.8061709,106.056 C62.3487345,105.301263 63.4001164,105.122842 64.15728,105.665474 C64.9154982,106.206526 65.0894982,107.257579 64.5479891,108.012316 L48.17828,130.866 C47.8487345,131.326 47.3304255,131.569684 46.8052618,131.569684" id="Fill-126" fill="#1A1919"></path>
                    <path d="M26.6720909,159.473684 C26.5608364,159.473684 26.4501091,159.457895 26.3388545,159.436316 C26.2334,159.417368 26.1284727,159.385263 26.0282909,159.341579 C25.9275818,159.298947 25.8316182,159.252632 25.7377636,159.19 C25.6470727,159.130526 25.5579636,159.056842 25.4846727,158.977368 C25.1625091,158.662105 24.9869273,158.238421 24.9869273,157.790526 C24.9869273,157.680526 24.9974727,157.571053 25.0185636,157.458947 C25.0454545,157.353684 25.0776182,157.247895 25.1192727,157.142632 C25.1625091,157.043158 25.2083818,156.947368 25.2737636,156.852632 C25.3359818,156.764737 25.4045273,156.677368 25.4846727,156.6 C26.1079091,155.972105 27.2378545,155.972105 27.8663636,156.6 C27.9449273,156.677368 28.014,156.764737 28.0714727,156.852632 C28.1358,156.947368 28.188,157.043158 28.2312364,157.142632 C28.2723636,157.247895 28.3050545,157.353684 28.3250909,157.458947 C28.3467091,157.571053 28.3572545,157.680526 28.3572545,157.790526 C28.3572545,158.238421 28.1822,158.662105 27.8663636,158.977368 C27.7862182,159.056842 27.6971091,159.130526 27.608,159.19 C27.5173091,159.252632 27.4171273,159.306842 27.318,159.341579 C27.2167636,159.385263 27.1107818,159.417368 27.0053273,159.436316 C26.8940727,159.457895 26.7833455,159.473684 26.6720909,159.473684" id="Fill-128" fill="#1A1919"></path>
                    <path d="M33.0199273,148.912947 C32.2654,148.375053 32.0914,147.321368 32.6308,146.565579 C33.1696727,145.811368 34.2247455,145.638737 34.9808545,146.177684 C35.7348545,146.715579 35.9157091,147.768737 35.3715636,148.521368 C35.0446545,148.981368 34.5258182,149.228211 33.9974909,149.228211 C33.6595091,149.228211 33.3162545,149.122421 33.0199273,148.912947" id="Fill-130" fill="#1A1919"></path>
                    <path d="M41.3285855,138.983842 C40.8793491,138.983842 40.4580582,138.805421 40.1343127,138.489632 C40.0610218,138.408579 39.9872036,138.325947 39.9239309,138.235421 C39.8664582,138.142263 39.8137309,138.047526 39.7704945,137.947526 C39.7293673,137.847 39.6972036,137.741737 39.67664,137.629105 C39.6544945,137.523842 39.6444764,137.414368 39.6444764,137.297 C39.6444764,136.853842 39.8232218,136.421211 40.1343127,136.111211 C40.5266036,135.721737 41.1129309,135.541737 41.6565491,135.653842 C41.7672764,135.672789 41.8732582,135.707 41.9739673,135.749105 C42.0741491,135.790158 42.1732764,135.841737 42.2639673,135.900684 C42.3583491,135.964368 42.4427127,136.032789 42.5228582,136.111211 C42.5956218,136.191737 42.6704945,136.277 42.7279673,136.364895 C42.7917673,136.460158 42.8444945,136.554368 42.8877309,136.660684 C42.9288582,136.761211 42.9610218,136.867 42.9821127,136.971737 C43.0026764,137.082263 43.0137491,137.191737 43.0137491,137.297 C43.0137491,137.414368 43.0026764,137.523842 42.9821127,137.629105 C42.9610218,137.741737 42.9288582,137.847 42.8877309,137.947526 C42.8444945,138.047526 42.7917673,138.142263 42.73324,138.235421 C42.6704945,138.325947 42.6008945,138.408579 42.5228582,138.489632 C42.2006945,138.805421 41.7778218,138.983842 41.3285855,138.983842" id="Fill-132" fill="#1A1919"></path>
                    <path d="M90.0570745,80.0791579 C88.9255473,81.6612632 88.4720927,82.1117895 87.11542,82.1117895 L77.4573655,82.1117895 C76.0247655,82.1117895 75.3430018,81.6612632 76.4012382,80.0791579 L99.1904927,48.8265263 L85.1555473,29.2217895 C84.09942,27.6396842 84.7052564,27.1881053 86.1373291,27.1881053 L95.7959109,27.1881053 C97.1525836,27.1881053 97.6819655,27.6396842 98.7375655,29.2217895 L105.528311,39.1838947 L129.300402,4.72547368 C130.431402,3.14336842 130.884856,2.69126316 132.244165,2.69126316 L141.901693,2.69126316 C143.335347,2.69126316 144.013947,3.14336842 142.881893,4.72547368 L111.940475,48.8265263 L124.462147,65.8417895 C125.517747,67.4196842 124.915075,67.8728421 123.479838,67.8728421 L113.823893,67.8728421 C112.465111,67.8728421 112.012184,67.4196842 110.804202,65.8417895 L105.528311,58.4649474 L90.0570745,80.0791579 Z" id="Fill-134" fill="#1A1919"></path>
                </g>
            </g>
        </g>
    </g>
</svg>