<?xml version="1.0" encoding="UTF-8"?>
<svg width="144px" height="159px" viewBox="0 0 144 159" version="1.1" xmlns="http://www.w3.org/2000/svg" xmlns:xlink="http://www.w3.org/1999/xlink">
    <!-- Generator: Sketch 52.2 (67145) - http://www.bohemiancoding.com/sketch -->
    <title>Group 60</title>
    <desc>Created with Sketch.</desc>
    <defs>
        <polygon id="path-1" points="0 158.2056 144.2312 158.2056 144.2312 0 0 0"></polygon>
    </defs>
    <g id="Detalle-servicio" stroke="none" stroke-width="1" fill="none" fill-rule="evenodd">
        <g id="Detalle-consolidacion" transform="translate(-43.000000, -49.000000)">
            <g id="Group-60" transform="translate(43.000000, 49.000000)">
                <path d="M73.85312,91.08376 L73.85312,87.50696 C73.85312,87.39336 73.88752,87.36696 73.99632,87.36696 L74.42192,87.36696 C74.53152,87.36696 74.56512,87.40296 74.56512,87.50696 L74.56512,91.03976 C74.56512,92.53976 75.32512,93.16936 76.41232,93.16936 C77.49072,93.16936 78.25152,92.53976 78.25152,91.03976 L78.25152,87.50696 C78.25152,87.40296 78.28512,87.36696 78.39472,87.36696 L78.82752,87.36696 C78.93632,87.36696 78.96352,87.40296 78.96352,87.50696 L78.96352,91.08376 C78.96352,92.88216 77.88112,93.80056 76.41232,93.80056 C74.93472,93.80056 73.85312,92.88216 73.85312,91.08376" id="Fill-1" fill="#1A1919"></path>
                <path d="M82.92576,90.04392 C83.11536,89.68552 83.58416,88.98952 84.46896,88.98952 C85.43296,88.98952 86.25456,89.57592 86.25456,91.02472 L86.25456,93.54312 C86.25456,93.64952 86.22096,93.68792 86.12096,93.68792 L85.71536,93.68792 C85.61536,93.68792 85.58096,93.64952 85.58096,93.54312 L85.58096,91.20232 C85.58096,90.12872 85.04096,89.60152 84.30816,89.60152 C83.52336,89.60152 83.01856,90.35912 83.01856,91.26392 L83.01856,93.54312 C83.01856,93.64952 82.97856,93.68792 82.88096,93.68792 L82.47376,93.68792 C82.37376,93.68792 82.33856,93.64952 82.33856,93.54312 L82.33856,91.29752 L82.33856,89.23512 C82.33856,89.12312 82.37376,89.08952 82.47376,89.08952 L82.70016,89.08952 C82.77056,89.08952 82.80736,89.12312 82.85296,89.23512 L82.92576,90.04392 Z" id="Fill-3" fill="#1A1919"></path>
                <path d="M89.78592,89.23528 C89.78592,89.12248 89.81152,89.08888 89.92512,89.08888 L90.32032,89.08888 C90.43632,89.08888 90.46432,89.12248 90.46432,89.23528 L90.46432,93.54328 C90.46432,93.64968 90.42832,93.68728 90.32032,93.68728 L89.92512,93.68728 C89.81152,93.68728 89.78592,93.64968 89.78592,93.54328 L89.78592,89.23528 Z M90.11392,87.11368 C90.37312,87.11368 90.58992,87.31848 90.58992,87.58408 C90.58992,87.84248 90.37312,88.05208 90.11392,88.05208 C89.85152,88.05208 89.64352,87.84248 89.64352,87.58408 C89.64352,87.31848 89.85152,87.11368 90.11392,87.11368 Z" id="Fill-5" fill="#1A1919"></path>
                <path d="M93.39688,89.23528 C93.36168,89.15608 93.39688,89.08888 93.47928,89.08888 L93.92968,89.08888 C94.03128,89.08888 94.06728,89.11608 94.11608,89.23528 L95.64888,92.52408 L95.64888,92.54008 L97.16248,89.23528 C97.21368,89.11608 97.25928,89.08888 97.34408,89.08888 L97.79608,89.08888 C97.89288,89.08888 97.91128,89.16168 97.88328,89.23528 L95.77208,93.70728 C95.71688,93.78968 95.70648,93.84088 95.65288,93.84088 L95.62808,93.84088 C95.58408,93.84088 95.57528,93.80088 95.51928,93.70728 L93.39688,89.23528 Z" id="Fill-7" fill="#1A1919"></path>
                <path d="M104.04216,91.1572 C104.01016,90.3428 103.41816,89.5588 102.49576,89.5588 C101.56456,89.5588 100.88536,90.3428 100.85576,91.1572 L104.04216,91.1572 Z M104.37416,92.9564 C104.43896,93.0356 104.43896,93.086 104.37416,93.1516 C103.95176,93.5668 103.21976,93.7836 102.55176,93.7836 C101.19176,93.7836 100.14136,92.706 100.14136,91.39 C100.14136,90.07 101.19176,88.9892 102.50456,88.9892 C103.91656,88.9892 104.73656,90.1292 104.73656,91.4836 C104.73656,91.5852 104.72136,91.626 104.60056,91.626 L100.83896,91.626 C100.90216,92.4636 101.66456,93.1836 102.57896,93.1836 C103.02056,93.1836 103.55976,93.0516 103.99816,92.7356 C104.09496,92.682 104.13336,92.6668 104.20216,92.7444 L104.37416,92.9564 Z" id="Fill-9" fill="#1A1919"></path>
                <path d="M108.50392,91.32048 L108.50392,93.54288 C108.50392,93.64928 108.46152,93.68768 108.36792,93.68768 L107.95992,93.68768 C107.86072,93.68768 107.82312,93.64928 107.82312,93.54288 L107.82312,89.23568 C107.82312,89.12288 107.86072,89.08928 107.95992,89.08928 L108.18552,89.08928 C108.25832,89.08928 108.29592,89.12288 108.34072,89.23568 L108.44792,90.13568 C108.63032,89.75488 109.04392,88.98928 110.32472,88.98928 C110.45432,88.98928 110.47032,89.02288 110.45432,89.11568 L110.39592,89.52208 C110.37192,89.62928 110.34312,89.66048 110.23432,89.66048 C109.06312,89.66048 108.50392,90.48208 108.50392,91.32048" id="Fill-11" fill="#1A1919"></path>
                <path d="M116.01488,92.3884 C116.01488,91.9964 115.56208,91.7868 114.73888,91.67 C113.84208,91.5508 112.99168,91.3468 112.99168,90.3988 C112.99168,89.5412 113.65568,88.9892 114.72288,88.9892 C115.19248,88.9892 115.81728,89.106 116.44608,89.498 C116.55248,89.5588 116.53568,89.61 116.49008,89.6948 L116.37408,89.91 C116.32848,90.0012 116.28688,90.0436 116.17648,89.9732 C115.68848,89.674 115.34608,89.5412 114.75728,89.5412 C113.99888,89.5412 113.63168,89.87 113.63168,90.3588 C113.63168,90.8556 114.08048,90.9516 114.89808,91.0676 C115.79728,91.1932 116.66528,91.4836 116.66528,92.3588 C116.66528,93.1836 115.97648,93.7836 114.81248,93.7836 C114.33328,93.7836 113.62208,93.6492 112.95248,93.2084 C112.87168,93.1516 112.87168,93.1028 112.92528,93.0068 L113.04928,92.7796 C113.09488,92.6916 113.14288,92.6476 113.24928,92.7268 C113.64688,93.0068 114.17888,93.2356 114.77728,93.2356 C115.65328,93.2356 116.01488,92.8476 116.01488,92.3884" id="Fill-13" fill="#1A1919"></path>
                <path d="M119.93672,89.23528 C119.93672,89.12248 119.96792,89.08888 120.07992,89.08888 L120.47032,89.08888 C120.59112,89.08888 120.61512,89.12248 120.61512,89.23528 L120.61512,93.54328 C120.61512,93.64968 120.58072,93.68728 120.47032,93.68728 L120.07992,93.68728 C119.96792,93.68728 119.93672,93.64968 119.93672,93.54328 L119.93672,89.23528 Z M120.26632,87.11368 C120.53032,87.11368 120.74392,87.31848 120.74392,87.58408 C120.74392,87.84248 120.53032,88.05208 120.26632,88.05208 C120.00552,88.05208 119.79672,87.84248 119.79672,87.58408 C119.79672,87.31848 120.00552,87.11368 120.26632,87.11368 Z" id="Fill-15" fill="#1A1919"></path>
                <path d="M127.67968,91.39 C127.67968,90.4884 127.07088,89.602 126.13328,89.602 C125.18368,89.602 124.59008,90.4524 124.59008,91.3804 C124.59008,92.382 125.18368,93.1788 126.13328,93.1788 C127.07088,93.1788 127.67968,92.2868 127.67968,91.39 Z M127.66768,87.1652 C127.66768,87.0612 127.70448,87.0212 127.80448,87.0212 L128.21008,87.0212 C128.30848,87.0212 128.34448,87.0612 128.34448,87.1652 L128.34448,93.5428 C128.34448,93.6492 128.30848,93.6876 128.21008,93.6876 L128.00208,93.6876 C127.92208,93.6876 127.88448,93.6492 127.84928,93.5428 L127.77648,92.7012 C127.55328,93.042 127.06288,93.7836 125.99648,93.7836 C124.73248,93.7836 123.91248,92.6916 123.91248,91.3804 C123.91248,90.0636 124.73248,88.9892 125.99648,88.9892 C127.06288,88.9892 127.55968,89.7908 127.66768,90.0436 L127.66768,87.1652 Z" id="Fill-17" fill="#1A1919"></path>
                <path d="M132.16488,92.28688 C132.16488,92.84608 132.57128,93.25168 133.30328,93.25168 C133.92488,93.25168 134.51048,92.82688 134.80088,92.40128 L134.80088,91.65248 C134.34248,91.46368 133.98968,91.32768 133.47448,91.32768 C132.61528,91.32768 132.16488,91.67008 132.16488,92.28688 M131.95448,89.60208 L131.88408,89.32928 C131.85688,89.23568 131.88408,89.19168 131.98808,89.15648 C132.09928,89.12288 132.84888,88.98928 133.54728,88.98928 C135.06248,88.98928 135.48008,89.66768 135.48008,91.15728 L135.48008,93.54288 C135.48008,93.64928 135.43928,93.68768 135.34648,93.68768 L135.08088,93.68768 C135.00968,93.68768 134.97128,93.64928 134.94648,93.54288 L134.90968,92.92928 C134.66728,93.26128 134.07208,93.78368 133.09608,93.78368 C132.22648,93.78368 131.48808,93.25168 131.48808,92.28688 C131.48808,91.29808 132.22648,90.81808 133.33848,90.81808 C133.81688,90.81808 134.34248,90.95168 134.80088,91.14048 C134.80088,90.00128 134.46408,89.58768 133.52088,89.58768 C132.93928,89.58768 132.46888,89.66768 132.12968,89.72928 C132.01208,89.75488 131.98648,89.71168 131.95448,89.60208" id="Fill-19" fill="#1A1919"></path>
                <path d="M142.12264,91.39 C142.12264,90.4884 141.51864,89.602 140.57864,89.602 C139.63144,89.602 139.03224,90.4524 139.03224,91.3804 C139.03224,92.382 139.63144,93.1788 140.57864,93.1788 C141.51864,93.1788 142.12264,92.2868 142.12264,91.39 Z M142.11144,87.1652 C142.11144,87.0612 142.15224,87.0212 142.24904,87.0212 L142.65624,87.0212 C142.75544,87.0212 142.79224,87.0612 142.79224,87.1652 L142.79224,93.5428 C142.79224,93.6492 142.75544,93.6876 142.65624,93.6876 L142.44744,93.6876 C142.36744,93.6876 142.32904,93.6492 142.29464,93.5428 L142.22024,92.7012 C141.99784,93.042 141.50984,93.7836 140.44424,93.7836 C139.17784,93.7836 138.35544,92.6916 138.35544,91.3804 C138.35544,90.0636 139.17784,88.9892 140.44424,88.9892 C141.50984,88.9892 142.00584,89.7908 142.11144,90.0436 L142.11144,87.1652 Z" id="Fill-21" fill="#1A1919"></path>
                <path d="M86.55936,104.51496 C86.36736,104.51496 86.31376,104.46536 86.31376,104.27256 L86.31376,98.44136 C86.31376,98.25416 86.36736,98.19656 86.55936,98.19656 L90.65776,98.19656 C90.84496,98.19656 90.90256,98.25416 90.90256,98.44136 L90.90256,99.19816 C90.90256,99.39336 90.84496,99.44776 90.65776,99.44776 L87.78976,99.44776 L87.78976,100.71976 L90.53936,100.71976 C90.72976,100.71976 90.78496,100.76616 90.78496,100.96216 L90.78496,101.71896 C90.78496,101.90536 90.72976,101.96536 90.53936,101.96536 L87.78976,101.96536 L87.78976,103.27096 L90.65776,103.27096 C90.84496,103.27096 90.90256,103.32856 90.90256,103.51496 L90.90256,104.27256 C90.90256,104.46536 90.84496,104.51496 90.65776,104.51496 L86.55936,104.51496 Z" id="Fill-23" fill="#1A1919"></path>
                <path d="M93.9016,98.09856 C93.9016,97.90736 93.9512,97.85296 94.1432,97.85296 L95.0344,97.85296 C95.2248,97.85296 95.2808,97.90736 95.2808,98.09856 L95.2808,104.27296 C95.2808,104.46576 95.2248,104.51536 95.0344,104.51536 L94.1432,104.51536 C93.9512,104.51536 93.9016,104.46576 93.9016,104.27296 L93.9016,98.09856 Z" id="Fill-25" fill="#1A1919"></path>
                <path d="M105.23904,103.29856 C105.87024,103.29856 106.13264,103.08976 106.13264,102.62096 C106.13264,102.24496 105.84144,101.92096 105.23904,101.92096 L104.00064,101.92096 L104.00064,103.29856 L105.23904,103.29856 Z M105.02224,100.74176 C105.65344,100.74176 105.90544,100.43056 105.90544,100.09296 C105.90544,99.62496 105.65344,99.41856 105.02224,99.41856 L104.00064,99.41856 L104.00064,100.74176 L105.02224,100.74176 Z M102.77104,104.51536 C102.58464,104.51536 102.52704,104.46576 102.52704,104.27296 L102.52704,98.44176 C102.52704,98.25376 102.58464,98.19616 102.77104,98.19616 L105.06624,98.19616 C106.09424,98.19616 107.36784,98.63216 107.36784,99.95696 C107.36784,100.60096 107.00784,101.00496 106.60144,101.26816 L106.60144,101.27616 C107.07904,101.50016 107.59424,101.94016 107.59424,102.75616 C107.59424,104.08656 106.48464,104.51536 105.29184,104.51536 L102.77104,104.51536 Z" id="Fill-27" fill="#1A1919"></path>
                <path d="M113.48672,102.22432 C113.48672,101.54032 113.02032,101.04912 112.46192,101.04912 C111.89952,101.04912 111.43152,101.54032 111.43152,102.22432 C111.43152,102.91152 111.89952,103.41632 112.46192,103.41632 C113.02032,103.41632 113.48672,102.91152 113.48672,102.22432 M112.46192,99.82752 C113.77632,99.82752 114.86272,100.90832 114.86272,102.22432 C114.86272,103.54272 113.77632,104.61472 112.46192,104.61472 C111.14432,104.61472 110.05792,103.54272 110.05792,102.22432 C110.05792,100.90832 111.14432,99.82752 112.46192,99.82752" id="Fill-29" fill="#1A1919"></path>
                <path d="M120.02424,103.1728 C120.02424,102.9624 119.69064,102.8928 119.13144,102.8208 C118.14824,102.6928 117.36504,102.3312 117.36504,101.3512 C117.36504,100.42 118.14824,99.8272 119.26744,99.8272 C119.74664,99.8272 120.33944,99.9416 121.03864,100.3368 C121.20984,100.44 121.17224,100.5192 121.09144,100.6792 L120.82984,101.132 C120.73864,101.2944 120.67384,101.368 120.50744,101.2504 C120.22584,101.06 119.89064,100.884 119.35864,100.884 C118.83144,100.884 118.66344,101.0136 118.66344,101.268 C118.66344,101.4744 118.99784,101.5632 119.55624,101.64 C120.54184,101.7632 121.32504,102.0632 121.32504,103.0896 C121.32504,104.0216 120.52344,104.6152 119.35864,104.6152 C118.87624,104.6152 118.14824,104.4856 117.47944,104.0272 C117.31544,103.9256 117.34344,103.8512 117.42664,103.6856 L117.68984,103.2368 C117.77784,103.0728 117.83064,102.9808 118.01384,103.1184 C118.28264,103.3152 118.73384,103.56 119.26744,103.56 C119.74664,103.56 120.02424,103.4272 120.02424,103.1728" id="Fill-31" fill="#1A1919"></path>
                <path d="M125.16328,102.21344 C125.16328,102.90704 125.63048,103.39024 126.19368,103.39024 C126.75048,103.39024 127.22008,102.90704 127.22008,102.21344 C127.22008,101.53024 126.75048,101.02624 126.19368,101.02624 C125.63048,101.02624 125.16328,101.53024 125.16328,102.21344 Z M127.21208,104.00384 C127.07528,104.22144 126.55448,104.61504 125.87128,104.61504 C124.67368,104.61504 123.78888,103.53504 123.78888,102.21344 C123.78888,100.94304 124.67368,99.82784 125.87128,99.82784 C126.55448,99.82784 127.05848,100.06704 127.46248,100.49344 L127.64568,100.16624 C127.74648,99.99424 127.78888,99.92304 127.93448,99.92304 L128.34888,99.92304 C128.53928,99.92304 128.59448,99.97584 128.59448,100.16624 L128.59448,106.11504 C128.59448,106.30784 128.53928,106.36224 128.34888,106.36224 L127.45368,106.36224 C127.26728,106.36224 127.21208,106.30784 127.21208,106.11504 L127.21208,104.00384 Z" id="Fill-33" fill="#1A1919"></path>
                <path d="M134.61328,103.95016 C134.26368,104.33256 133.93808,104.61496 133.29648,104.61496 C132.26928,104.61496 131.57168,104.14616 131.57168,102.48856 L131.57168,100.16696 C131.57168,99.97576 131.62768,99.92296 131.81648,99.92296 L132.71168,99.92296 C132.90048,99.92296 132.95648,99.97576 132.95648,100.16696 L132.95648,102.21336 C132.95648,103.03816 133.10768,103.39016 133.64928,103.39016 C134.21008,103.39016 134.37888,103.03816 134.37888,102.21336 L134.37888,100.16696 C134.37888,99.97576 134.43728,99.92296 134.62288,99.92296 L135.51568,99.92296 C135.70448,99.92296 135.76048,99.97576 135.76048,100.16696 L135.76048,102.21336 L135.76048,104.27256 C135.76048,104.46616 135.70448,104.51496 135.51568,104.51496 L135.08368,104.51496 C134.93888,104.51496 134.89488,104.44456 134.79728,104.27256 L134.61328,103.95016 Z" id="Fill-35" fill="#1A1919"></path>
                <path d="M141.83048,101.78056 C141.73928,101.39736 141.54008,100.94296 140.95288,100.94296 C140.33688,100.94296 140.13368,101.39736 140.04728,101.78056 L141.83048,101.78056 Z M142.81448,103.67016 C142.92488,103.80776 142.95608,103.87416 142.86008,103.97656 C142.44408,104.39496 141.69528,104.61496 141.02568,104.61496 C139.66328,104.61496 138.58728,103.54296 138.58728,102.22456 C138.58728,100.90856 139.66328,99.82776 140.98328,99.82776 C142.52248,99.82776 143.23928,101.04936 143.23928,102.39496 C143.23928,102.59656 143.20248,102.65896 143.01368,102.65896 L140.01288,102.65896 C140.16808,103.11816 140.57528,103.44136 141.05128,103.44136 C141.26168,103.44136 141.60408,103.43656 142.10568,103.21176 C142.29128,103.12616 142.33288,103.07256 142.46088,103.23016 L142.81448,103.67016 Z" id="Fill-37" fill="#1A1919"></path>
                <mask id="mask-2" fill="white">
                    <use xlink:href="#path-1"></use>
                </mask>
                <g id="Clip-40"></g>
                <polygon id="Fill-39" fill="#1A1919" mask="url(#mask-2)" points="135.3952 110.6232 141.7808 110.6232 141.7808 109.0968 135.3952 109.0968"></polygon>
                <text id="innovación" mask="url(#mask-2)" font-family="AcherusGrotesque-Black, Acherus Grotesque" font-size="7.19024" font-weight="700" letter-spacing="0.160000002" fill="#1A1919">
                    <tspan x="104" y="125">inno</tspan>
                    <tspan x="119.969592" y="125" letter-spacing="0.0528654218">v</tspan>
                    <tspan x="123.847665" y="125">ación</tspan>
                </text>
                <text id="Educación" mask="url(#mask-2)" font-family="AcherusGrotesque-Black, Acherus Grotesque" font-size="7.19024" font-weight="700" letter-spacing="0.160000002" fill="#1A1919">
                    <tspan x="106" y="134">Educación</tspan>
                </text>
                <text id="eXtensión" mask="url(#mask-2)" font-family="AcherusGrotesque-Black, Acherus Grotesque" font-size="7.19024" font-weight="700" letter-spacing="0.160000002" fill="#1A1919">
                    <tspan x="107" y="143">eXtensión</tspan>
                </text>
                <path d="M38.7408,21.6343724 C36.0816,21.6343724 34,23.7583724 34,26.4703724 C34,29.1303724 36.0816,31.2151724 38.7408,31.2151724 C41.4536,31.2151724 43.5784,29.1303724 43.5784,26.4703724 C43.5784,23.8047724 41.4064,21.6343724 38.7408,21.6343724" id="Fill-41" fill="#1A1919" mask="url(#mask-2)"></path>
                <path d="M41.45544,35.54816 L36.21864,35.54816 C34.67064,35.54816 34.01464,35.9460792 34.01464,36.8820652 L34.01464,66.5132804 C34.01464,67.4455125 34.67064,67.84656 36.21864,67.84656 L41.45544,67.84656 C43.00504,67.84656 43.66264,67.4455125 43.66264,66.5132804 L43.66264,36.8820652 C43.66264,35.9460792 43.00504,35.54816 41.45544,35.54816" id="Fill-42" fill="#1A1919" mask="url(#mask-2)"></path>
                <path d="M77.7344,36.13136 C79.3832,36.13136 80.0856,35.42976 80.0856,33.78256 L80.0856,29.04096 C80.0856,27.39296 79.3832,26.69056 77.7344,26.69056 L53.3736,26.69056 C51.7248,26.69056 51.0232,27.39296 51.0232,29.04096 L51.0232,65.49616 C51.0232,67.14416 51.7248,67.84656 53.3736,67.84656 L77.7344,67.84656 C79.3832,67.84656 80.0856,67.14416 80.0856,65.49616 L80.0856,60.75696 C80.0856,59.10896 79.3832,58.40416 77.7344,58.40416 L60.6176,58.40416 L60.6176,51.87696 L77.2968,51.87696 C78.944,51.87696 79.6456,51.17456 79.6456,49.52576 L79.6456,44.78576 C79.6456,43.13856 78.944,42.43376 77.2968,42.43376 L60.6176,42.43376 L60.6176,36.13136 L77.7344,36.13136 Z" id="Fill-43" fill="#1A1919" mask="url(#mask-2)"></path>
                <path d="M63.80472,0.77512 C63.80472,0.17112 63.97512,-8e-05 64.57992,-8e-05 L67.71112,-8e-05 C68.31432,-8e-05 68.48792,0.17112 68.48792,0.77512 L68.48792,19.33032 C68.48792,19.93192 68.31432,20.10472 67.71112,20.10472 L64.57992,20.10472 C63.97512,20.10472 63.80472,19.93192 63.80472,19.33032 L63.80472,12.17912 L55.70392,12.17912 L55.70392,19.33032 C55.70392,19.93192 55.53192,20.10472 54.92952,20.10472 L51.79832,20.10472 C51.19512,20.10472 51.02312,19.93192 51.02312,19.33032 L51.02312,0.77512 C51.02312,0.17112 51.19512,-8e-05 51.79832,-8e-05 L54.92952,-8e-05 C55.53192,-8e-05 55.70392,0.17112 55.70392,0.77512 L55.70392,8.12952 L63.80472,8.12952 L63.80472,0.77512 Z" id="Fill-44" fill="#1A1919" mask="url(#mask-2)"></path>
                <path d="M72.8,11.83488 L72.8,0.77488 C72.8,0.17088 72.9728,0.00048 73.5768,0.00048 L76.7056,0.00048 C77.3096,0.00048 77.4816,0.17088 77.4816,0.77488 L77.4816,11.69008 C77.4816,14.82128 78.7456,16.43008 81.5032,16.43008 C84.2608,16.43008 85.5248,14.82128 85.5248,11.69008 L85.5248,0.77488 C85.5248,0.17088 85.6984,0.00048 86.3,0.00048 L89.432,0.00048 C90.0344,0.00048 90.2072,0.17088 90.2072,0.77488 L90.2072,11.83488 C90.2072,17.54928 86.1872,20.47968 81.5032,20.47968 C76.8224,20.47968 72.8,17.54928 72.8,11.83488" id="Fill-45" fill="#1A1919" mask="url(#mask-2)"></path>
                <path d="M104.47112,16.22712 C106.48472,16.22712 107.31352,15.56792 107.31352,14.07432 C107.31352,12.86792 106.39512,11.83512 104.47112,11.83512 L100.53432,11.83512 L100.53432,16.22712 L104.47112,16.22712 Z M103.78072,8.09992 C105.79112,8.09992 106.59592,7.09432 106.59592,6.03112 C106.59592,4.53752 105.79112,3.87672 103.78072,3.87672 L100.53432,3.87672 L100.53432,8.09992 L103.78072,8.09992 Z M96.63112,20.10472 C96.02472,20.10472 95.85352,19.93192 95.85352,19.33032 L95.85352,0.77512 C95.85352,0.17112 96.02472,-8e-05 96.63112,-8e-05 L103.92472,-8e-05 C107.19752,-8e-05 111.24872,1.37752 111.24872,5.60152 C111.24872,7.64072 110.09832,8.93272 108.80632,9.76392 L108.80632,9.79352 C110.32872,10.51272 111.96712,11.89112 111.96712,14.50632 C111.96712,18.72712 108.43512,20.10472 104.64152,20.10472 L96.63112,20.10472 Z" id="Fill-46" fill="#1A1919" mask="url(#mask-2)"></path>
                <path d="M45.28592,104.87592 C45.03792,104.87592 44.78832,104.80072 44.57152,104.64632 C44.01872,104.25112 43.89072,103.48232 44.28592,102.92872 L60.54592,80.18552 C60.94032,79.63192 61.70912,79.50392 62.26272,79.89912 C62.81552,80.29432 62.94272,81.06312 62.54752,81.61672 L46.28752,104.35992 C46.04832,104.69592 45.66992,104.87592 45.28592,104.87592" id="Fill-47" fill="#1A1919" mask="url(#mask-2)"></path>
                <path d="M25.25624,132.68528 C24.92824,132.68528 24.61544,132.55728 24.38344,132.32528 C24.15144,132.09328 24.02344,131.78128 24.02344,131.45328 C24.02344,131.13408 24.15144,130.81328 24.38344,130.58928 C24.83944,130.12528 25.67224,130.12528 26.11944,130.58928 C26.35144,130.81328 26.47944,131.13408 26.47944,131.45328 C26.47944,131.78128 26.35144,132.09328 26.11944,132.32528 C25.88744,132.55728 25.58344,132.68528 25.25624,132.68528" id="Fill-48" fill="#1A1919" mask="url(#mask-2)"></path>
                <path d="M34.45624,118.56576 C33.90424,118.17376 33.77544,117.40576 34.16744,116.85296 C34.56744,116.30176 35.33624,116.17376 35.88744,116.56576 C36.43944,116.95696 36.56744,117.72496 36.17544,118.27776 C35.93624,118.62096 35.55144,118.79776 35.17544,118.79776 C34.92824,118.79776 34.67224,118.72496 34.45624,118.56576 M29.49544,125.50976 C28.94344,125.11696 28.81544,124.34896 29.20744,123.79776 C29.60744,123.24576 30.37544,123.11696 30.92824,123.50976 C31.47944,123.90176 31.60744,124.66976 31.21544,125.22096 C30.97544,125.56576 30.59224,125.74176 30.20744,125.74176 C29.95944,125.74176 29.71144,125.66976 29.49544,125.50976" id="Fill-49" fill="#1A1919" mask="url(#mask-2)"></path>
                <path d="M40.12816,111.85328 C39.80016,111.85328 39.49536,111.72528 39.26416,111.49328 C39.03136,111.26128 38.90416,110.94848 38.90416,110.62128 C38.90416,110.30048 39.03136,109.98048 39.26416,109.74848 C39.71136,109.29248 40.54416,109.29248 41.00016,109.74848 C41.23136,109.98048 41.35936,110.30048 41.35936,110.62128 C41.35936,110.94848 41.23136,111.26128 41.00016,111.49328 C40.76736,111.72528 40.45616,111.85328 40.12816,111.85328" id="Fill-50" fill="#1A1919" mask="url(#mask-2)"></path>
                <path d="M20.44688,113.96496 C20.19968,113.96496 19.95008,113.89056 19.73248,113.73536 C19.17968,113.34016 19.05248,112.57216 19.44768,112.01856 L35.70848,89.27136 C36.10288,88.71856 36.87168,88.59136 37.42528,88.98656 C37.97808,89.38176 38.10528,90.14976 37.71008,90.70256 L21.44928,113.44976 C21.20928,113.78576 20.83088,113.96496 20.44688,113.96496" id="Fill-51" fill="#1A1919" mask="url(#mask-2)"></path>
                <path d="M1.23128,140.6376 C0.89528,140.6376 0.59208,140.5096 0.35928,140.2696 C0.12808,140.0376 8e-05,139.7336 8e-05,139.4056 C8e-05,139.0776 0.12808,138.7656 0.35928,138.5336 C0.81528,138.0776 1.64008,138.0776 2.09528,138.5336 C2.32808,138.7656 2.45608,139.0776 2.45608,139.4056 C2.45608,139.7336 2.32808,140.0456 2.09528,140.2696 C1.86408,140.5096 1.55928,140.6376 1.23128,140.6376" id="Fill-52" fill="#1A1919" mask="url(#mask-2)"></path>
                <path d="M10.14376,126.91728 C9.59256,126.52528 9.46376,125.75728 9.85656,125.20528 C10.24776,124.65328 11.01576,124.52528 11.57576,124.91728 C12.12776,125.30928 12.25656,126.08528 11.85656,126.63728 C11.61576,126.97328 11.23976,127.14928 10.85656,127.14928 C10.60776,127.14928 10.35976,127.07728 10.14376,126.91728 M5.32776,133.66128 C4.77576,133.26928 4.64776,132.50128 5.03976,131.94928 C5.43976,131.38928 6.20776,131.26128 6.75976,131.66128 C7.31176,132.05328 7.43976,132.82128 7.04776,133.37328 C6.80776,133.70928 6.42376,133.89328 6.03976,133.89328 C5.79256,133.89328 5.54376,133.82128 5.32776,133.66128" id="Fill-53" fill="#1A1919" mask="url(#mask-2)"></path>
                <path d="M15.67184,120.4056 C15.34384,120.4056 15.03104,120.2776 14.79984,120.0456 C14.56704,119.8136 14.43984,119.5096 14.43984,119.1816 C14.43984,118.8536 14.57584,118.5336 14.79984,118.3096 C15.25584,117.8536 16.08784,117.8456 16.54384,118.3096 C16.76704,118.5336 16.90384,118.8536 16.90384,119.1816 C16.90384,119.5096 16.77584,119.8136 16.54384,120.0456 C16.31184,120.2776 15.99984,120.4056 15.67184,120.4056" id="Fill-54" fill="#1A1919" mask="url(#mask-2)"></path>
                <path d="M46.0492,130.44392 C45.8012,130.44392 45.5516,130.36952 45.334,130.21432 C44.782,129.81912 44.6548,129.05112 45.05,128.49752 L61.3108,105.75272 C61.7044,105.19992 62.474,105.07112 63.0268,105.46712 C63.5796,105.86152 63.7076,106.63032 63.3124,107.18392 L47.0516,129.92872 C46.8108,130.26472 46.4324,130.44392 46.0492,130.44392" id="Fill-55" fill="#1A1919" mask="url(#mask-2)"></path>
                <path d="M26.04768,158.2056 C25.71968,158.2056 25.41568,158.0776 25.18368,157.8456 C24.95168,157.6136 24.82368,157.3016 24.82368,156.9736 C24.82368,156.6536 24.95168,156.3336 25.18368,156.1096 C25.63968,155.6536 26.46448,155.6536 26.91968,156.1096 C27.15168,156.3336 27.27968,156.6536 27.27968,156.9736 C27.27968,157.3016 27.15168,157.6136 26.91968,157.8456 C26.68768,158.0776 26.37568,158.2056 26.04768,158.2056" id="Fill-56" fill="#1A1919" mask="url(#mask-2)"></path>
                <path d="M35.03984,144.3892 C34.48784,143.9892 34.35904,143.2212 34.75184,142.67 C35.15184,142.1172 35.91984,141.9892 36.47184,142.3812 C37.02304,142.7812 37.15184,143.5492 36.75904,144.102 C36.51984,144.438 36.13584,144.6132 35.75184,144.6132 C35.50384,144.6132 35.25664,144.5412 35.03984,144.3892 M30.19184,151.1812 C29.63104,150.7892 29.50384,150.0212 29.90384,149.47 C30.29504,148.9092 31.06384,148.7812 31.61584,149.1812 C32.16704,149.5732 32.30384,150.3412 31.90384,150.8932 C31.66384,151.2292 31.28784,151.4132 30.90384,151.4132 C30.65664,151.4132 30.40784,151.334 30.19184,151.1812" id="Fill-57" fill="#1A1919" mask="url(#mask-2)"></path>
                <path d="M40.60784,137.8212 C40.27984,137.8212 39.96704,137.6932 39.73584,137.4612 C39.50384,137.2292 39.37584,136.9172 39.37584,136.5892 C39.37584,136.27 39.51184,135.9492 39.73584,135.7172 C40.19984,135.2612 41.02384,135.2612 41.47984,135.7172 C41.70384,135.9492 41.83984,136.2612 41.83984,136.5892 C41.83984,136.9172 41.71184,137.2292 41.47984,137.4612 C41.24784,137.6932 40.93584,137.8212 40.60784,137.8212" id="Fill-58" fill="#1A1919" mask="url(#mask-2)"></path>
                <path d="M88.0672,79.86656 C87.2088,81.06496 86.8672,81.40736 85.8408,81.40736 L76.4936,81.40736 C75.4064,81.40736 74.8944,81.06496 75.6936,79.86656 L97.18,47.30496 L83.8744,28.56976 C83.0728,27.36976 83.528,27.02896 84.616,27.02896 L93.6016,27.02896 C94.6288,27.02896 95.028,27.36976 95.8256,28.56976 L103.6528,39.99456 L128.3496,4.17776 C129.2056,2.97616 129.5488,2.63536 130.5776,2.63536 L139.9224,2.63536 C141.0088,2.63536 141.5216,2.97616 140.6656,4.17776 L112.216,47.30496 L123.3176,65.46736 C124.1184,66.66656 123.6616,67.00896 122.5752,67.00896 L113.5912,67.00896 C112.5624,67.00896 112.22,66.66656 111.304,65.46736 L105.688,54.61616 L88.0672,79.86656 Z" id="Fill-59" fill="#1A1919" mask="url(#mask-2)"></path>
            </g>
        </g>
    </g>
</svg>