<?xml version="1.0" encoding="UTF-8"?>
<svg width="67px" height="51px" viewBox="0 0 67 51" version="1.1" xmlns="http://www.w3.org/2000/svg" xmlns:xlink="http://www.w3.org/1999/xlink">
    <!-- Generator: Sketch 53 (72520) - https://sketchapp.com -->
    <title>Group 17</title>
    <desc>Created with Sketch.</desc>
    <defs>
        <polygon id="path-1" points="0.153711594 0.0224140127 10.9465377 0.0224140127 10.9465377 12.4917191 0.153711594 12.4917191"></polygon>
        <polygon id="path-3" points="0.0421910934 0.032711465 41.5170193 0.032711465 41.5170193 49.050858 0.0421910934 49.050858"></polygon>
    </defs>
    <g id="Home" stroke="none" stroke-width="1" fill="none" fill-rule="evenodd">
        <g id="Home-Iex" transform="translate(-96.000000, -627.000000)">
            <g id="Group-17" transform="translate(96.000000, 627.000000)">
                <path d="M2.97279324,13.969842 C1.32951304,13.969842 0.0429188406,15.2870713 0.0429188406,16.9700713 C0.0429188406,18.6192879 1.32951304,19.9111796 2.97279324,19.9111796 C4.64941159,19.9111796 5.96287053,18.6192879 5.96287053,16.9681223 C5.96287053,15.3159822 4.62060483,13.969842 2.97279324,13.969842" id="Fill-1" fill="#1A1919"></path>
                <path d="M4.59810966,21.9649204 L1.36268937,21.9665446 C0.406563768,21.9665446 3.23671498e-05,22.281965 3.23671498e-05,23.0226019 L3.23671498e-05,41.3488185 C3.23671498e-05,42.0881561 0.406563768,42.4048758 1.36268937,42.4048758 L4.59810966,42.4048758 C5.55585362,42.4048758 5.96303237,42.0868567 5.96303237,41.3488185 L5.96303237,23.0226019 C5.96303237,22.281965 5.55585362,21.9649204 4.59810966,21.9649204" id="Fill-3" fill="#1A1919"></path>
                <path d="M27.0211971,22.7342083 C28.0394676,22.7342083 28.4731874,22.2998962 28.4731874,21.2785968 L28.4731874,18.3371637 C28.4731874,17.3155395 28.0394676,16.8796032 27.0211971,16.8796032 L11.9636754,16.8796032 C10.9454048,16.8796032 10.5110377,17.3155395 10.5110377,18.3371637 L10.5110377,40.9470554 C10.5110377,41.9693293 10.9454048,42.4049408 11.9636754,42.4049408 L27.0211971,42.4049408 C28.0394676,42.4049408 28.4731874,41.9693293 28.4731874,40.9470554 L28.4731874,38.0075713 C28.4731874,36.9865968 28.0394676,36.5483866 27.0211971,36.5483866 L16.4406995,36.5483866 L16.4406995,32.5011955 L26.7486657,32.5011955 C27.7669362,32.5011955 28.2025981,32.0652592 28.2025981,31.0420108 L28.2025981,28.1018771 C28.2025981,27.0809025 27.7669362,26.6426924 26.7486657,26.6426924 L16.4406995,26.6426924 L16.4406995,22.7342083 L27.0211971,22.7342083 Z" id="Fill-5" fill="#1A1919"></path>
                <g id="Group-9" transform="translate(10.357488, 0.302427)">
                    <mask id="mask-2" fill="white">
                        <use xlink:href="#path-1"></use>
                    </mask>
                    <g id="Clip-8"></g>
                    <path d="M8.05323816,0.502496178 C8.05323816,0.129903822 8.15810773,0.0223815287 8.53194831,0.0223815287 L10.4668565,0.0223815287 C10.8397261,0.0223815287 10.9465377,0.129903822 10.9465377,0.502496178 L10.9465377,12.0122541 C10.9465377,12.3851713 10.8397261,12.4917191 10.4668565,12.4917191 L8.53194831,12.4917191 C8.15810773,12.4917191 8.05323816,12.3851713 8.05323816,12.0122541 L8.05323816,7.57720318 L3.04701111,7.57720318 L3.04701111,12.0122541 C3.04701111,12.3851713 2.94084686,12.4917191 2.56765362,12.4917191 L0.632421739,12.4917191 C0.260523188,12.4917191 0.153711594,12.3851713 0.153711594,12.0122541 L0.153711594,0.502496178 C0.153711594,0.129903822 0.260523188,0.0223815287 0.632421739,0.0223815287 L2.56765362,0.0223815287 C2.94084686,0.0223815287 3.04701111,0.129903822 3.04701111,0.502496178 L3.04701111,5.06455987 L8.05323816,5.06455987 L8.05323816,0.502496178 Z" id="Fill-7" fill="#1A1919" mask="url(#mask-2)"></path>
                </g>
                <path d="M23.9712729,7.66494268 L23.9712729,0.804955414 C23.9712729,0.432038217 24.0774372,0.324840764 24.4499831,0.324840764 L26.3848913,0.324840764 C26.7577609,0.324840764 26.8645725,0.432038217 26.8645725,0.804955414 L26.8645725,7.57626115 C26.8645725,9.51783439 27.6449444,10.5157452 29.3500459,10.5157452 C31.053529,10.5157452 31.833901,9.51783439 31.833901,7.57626115 L31.833901,0.804955414 C31.833901,0.432038217 31.9407126,0.324840764 32.3135821,0.324840764 L34.2504324,0.324840764 C34.6200652,0.324840764 34.7268768,0.432038217 34.7268768,0.804955414 L34.7268768,7.66494268 C34.7268768,11.2092803 32.2433454,13.0264395 29.3500459,13.0264395 C26.4573937,13.0264395 23.9712729,11.2092803 23.9712729,7.66494268" id="Fill-10" fill="#1A1919"></path>
                <path d="M43.5429763,10.3886675 C44.7861986,10.3886675 45.2992179,9.98164204 45.2992179,9.05519618 C45.2992179,8.30643822 44.7324691,7.66487771 43.5429763,7.66487771 L41.1099377,7.66487771 L41.1099377,10.3886675 L43.5429763,10.3886675 Z M43.1160536,5.34811338 C44.3592758,5.34811338 44.8570826,4.72539363 44.8570826,4.06596688 C44.8570826,3.14082038 44.3592758,2.72859745 43.1160536,2.72859745 L41.1099377,2.72859745 L41.1099377,5.34811338 L43.1160536,5.34811338 Z M38.6982614,12.7941134 C38.3237734,12.7941134 38.2169618,12.6875656 38.2169618,12.3146484 L38.2169618,0.804890446 C38.2169618,0.432298089 38.3237734,0.325100637 38.6982614,0.325100637 L43.206358,0.325100637 C45.2286575,0.325100637 47.7319329,1.17845732 47.7319329,3.79862293 C47.7319329,5.06322803 47.0208266,5.86655924 46.222329,6.38143185 L46.222329,6.40059745 C47.1638894,6.8456293 48.1756865,7.70158471 48.1756865,9.32254013 C48.1756865,11.9404318 45.9934932,12.7941134 43.6481696,12.7941134 L38.6982614,12.7941134 Z" id="Fill-12" fill="#1A1919"></path>
                <g id="Group-16" transform="translate(25.246377, 1.926631)">
                    <mask id="mask-4" fill="white">
                        <use xlink:href="#path-3"></use>
                    </mask>
                    <g id="Clip-15"></g>
                    <path d="M8.7410401,47.7963229 C8.04644106,48.7727943 7.76808357,49.050858 6.93527681,49.050858 L1.00658599,49.050858 C0.127170531,49.050858 -0.291336715,48.7727943 0.358271981,47.7963229 L14.3476778,28.5072783 L5.73218986,16.4072847 C5.08387585,15.4308134 5.4557744,15.1521 6.33486618,15.1521 L12.2638807,15.1521 C13.0966874,15.1521 13.4216536,15.4308134 14.069644,16.4072847 L18.2382092,22.5558707 L32.8309386,1.28822102 C33.525214,0.311749682 33.8035715,0.032711465 34.6379966,0.032711465 L40.5663638,0.032711465 C41.4464266,0.032711465 41.8629918,0.311749682 41.1680691,1.28822102 L22.1743783,28.5072783 L29.860929,39.0090554 C30.5089193,39.982928 30.1389628,40.2626159 29.257929,40.2626159 L23.3305329,40.2626159 C22.4964314,40.2626159 22.2183976,39.982928 21.4768662,39.0090554 L18.2382092,34.4560873 L8.7410401,47.7963229 Z" id="Fill-14" fill="#1A1919" mask="url(#mask-4)"></path>
                </g>
            </g>
        </g>
    </g>
</svg>