<?xml version="1.0" encoding="UTF-8"?>
<svg width="180px" height="198px" viewBox="0 0 180 198" version="1.1" xmlns="http://www.w3.org/2000/svg" xmlns:xlink="http://www.w3.org/1999/xlink">
    <!-- Generator: Sketch 52.2 (67145) - http://www.bohemiancoding.com/sketch -->
    <title>Group 60</title>
    <desc>Created with Sketch.</desc>
    <defs>
        <polygon id="path-1" points="0 197.757 180.289 197.757 180.289 0 0 0"></polygon>
    </defs>
    <g id="Home" stroke="none" stroke-width="1" fill="none" fill-rule="evenodd">
        <g id="Home-Iex" transform="translate(-78.000000, -49.000000)">
            <g id="Group-60" transform="translate(78.000000, 49.000000)">
                <path d="M92.3164,113.8547 L92.3164,109.3837 C92.3164,109.2417 92.3594,109.2087 92.4954,109.2087 L93.0274,109.2087 C93.1644,109.2087 93.2064,109.2537 93.2064,109.3837 L93.2064,113.7997 C93.2064,115.6747 94.1564,116.4617 95.5154,116.4617 C96.8634,116.4617 97.8144,115.6747 97.8144,113.7997 L97.8144,109.3837 C97.8144,109.2537 97.8564,109.2087 97.9934,109.2087 L98.5344,109.2087 C98.6704,109.2087 98.7044,109.2537 98.7044,109.3837 L98.7044,113.8547 C98.7044,116.1027 97.3514,117.2507 95.5154,117.2507 C93.6684,117.2507 92.3164,116.1027 92.3164,113.8547" id="Fill-1" fill="#FFFFFE"></path>
                <path d="M103.6572,112.5549 C103.8942,112.1069 104.4802,111.2369 105.5862,111.2369 C106.7912,111.2369 107.8182,111.9699 107.8182,113.7809 L107.8182,116.9289 C107.8182,117.0619 107.7762,117.1099 107.6512,117.1099 L107.1442,117.1099 C107.0192,117.1099 106.9762,117.0619 106.9762,116.9289 L106.9762,114.0029 C106.9762,112.6609 106.3012,112.0019 105.3852,112.0019 C104.4042,112.0019 103.7732,112.9489 103.7732,114.0799 L103.7732,116.9289 C103.7732,117.0619 103.7232,117.1099 103.6012,117.1099 L103.0922,117.1099 C102.9672,117.1099 102.9232,117.0619 102.9232,116.9289 L102.9232,114.1219 L102.9232,111.5439 C102.9232,111.4039 102.9672,111.3619 103.0922,111.3619 L103.3752,111.3619 C103.4632,111.3619 103.5092,111.4039 103.5662,111.5439 L103.6572,112.5549 Z" id="Fill-3" fill="#FFFFFE"></path>
                <path d="M112.2324,111.5441 C112.2324,111.4031 112.2644,111.3611 112.4064,111.3611 L112.9004,111.3611 C113.0454,111.3611 113.0804,111.4031 113.0804,111.5441 L113.0804,116.9291 C113.0804,117.0621 113.0354,117.1091 112.9004,117.1091 L112.4064,117.1091 C112.2644,117.1091 112.2324,117.0621 112.2324,116.9291 L112.2324,111.5441 Z M112.6424,108.8921 C112.9664,108.8921 113.2374,109.1481 113.2374,109.4801 C113.2374,109.8031 112.9664,110.0651 112.6424,110.0651 C112.3144,110.0651 112.0544,109.8031 112.0544,109.4801 C112.0544,109.1481 112.3144,108.8921 112.6424,108.8921 Z" id="Fill-5" fill="#FFFFFE"></path>
                <path d="M116.7461,111.5441 C116.7021,111.4451 116.7461,111.3611 116.8491,111.3611 L117.4121,111.3611 C117.5391,111.3611 117.5841,111.3951 117.6451,111.5441 L119.5611,115.6551 L119.5611,115.6751 L121.4531,111.5441 C121.5171,111.3951 121.5741,111.3611 121.6801,111.3611 L122.2451,111.3611 C122.3661,111.3611 122.3891,111.4521 122.3541,111.5441 L119.7151,117.1341 C119.6461,117.2371 119.6331,117.3011 119.5661,117.3011 L119.5351,117.3011 C119.4801,117.3011 119.4691,117.2511 119.3991,117.1341 L116.7461,111.5441 Z" id="Fill-7" fill="#FFFFFE"></path>
                <path d="M130.0527,113.9465 C130.0127,112.9285 129.2727,111.9485 128.1197,111.9485 C126.9557,111.9485 126.1067,112.9285 126.0697,113.9465 L130.0527,113.9465 Z M130.4677,116.1955 C130.5487,116.2945 130.5487,116.3575 130.4677,116.4395 C129.9397,116.9585 129.0247,117.2295 128.1897,117.2295 C126.4897,117.2295 125.1767,115.8825 125.1767,114.2375 C125.1767,112.5875 126.4897,111.2365 128.1307,111.2365 C129.8957,111.2365 130.9207,112.6615 130.9207,114.3545 C130.9207,114.4815 130.9017,114.5325 130.7507,114.5325 L126.0487,114.5325 C126.1277,115.5795 127.0807,116.4795 128.2237,116.4795 C128.7757,116.4795 129.4497,116.3145 129.9977,115.9195 C130.1187,115.8525 130.1667,115.8335 130.2527,115.9305 L130.4677,116.1955 Z" id="Fill-9" fill="#FFFFFE"></path>
                <path d="M135.6299,114.1506 L135.6299,116.9286 C135.6299,117.0616 135.5769,117.1096 135.4599,117.1096 L134.9499,117.1096 C134.8259,117.1096 134.7789,117.0616 134.7789,116.9286 L134.7789,111.5446 C134.7789,111.4036 134.8259,111.3616 134.9499,111.3616 L135.2319,111.3616 C135.3229,111.3616 135.3699,111.4036 135.4259,111.5446 L135.5599,112.6696 C135.7879,112.1936 136.3049,111.2366 137.9059,111.2366 C138.0679,111.2366 138.0879,111.2786 138.0679,111.3946 L137.9949,111.9026 C137.9649,112.0366 137.9289,112.0756 137.7929,112.0756 C136.3289,112.0756 135.6299,113.1026 135.6299,114.1506" id="Fill-11" fill="#FFFFFE"></path>
                <path d="M145.0186,115.4855 C145.0186,114.9955 144.4526,114.7335 143.4236,114.5875 C142.3026,114.4385 141.2396,114.1835 141.2396,112.9985 C141.2396,111.9265 142.0696,111.2365 143.4036,111.2365 C143.9906,111.2365 144.7716,111.3825 145.5576,111.8725 C145.6906,111.9485 145.6696,112.0125 145.6126,112.1185 L145.4676,112.3875 C145.4106,112.5015 145.3586,112.5545 145.2206,112.4665 C144.6106,112.0925 144.1826,111.9265 143.4466,111.9265 C142.4986,111.9265 142.0396,112.3375 142.0396,112.9485 C142.0396,113.5695 142.6006,113.6895 143.6226,113.8345 C144.7466,113.9915 145.8316,114.3545 145.8316,115.4485 C145.8316,116.4795 144.9706,117.2295 143.5156,117.2295 C142.9166,117.2295 142.0276,117.0615 141.1906,116.5105 C141.0896,116.4395 141.0896,116.3785 141.1566,116.2585 L141.3116,115.9745 C141.3686,115.8645 141.4286,115.8095 141.5616,115.9085 C142.0586,116.2585 142.7236,116.5445 143.4716,116.5445 C144.5666,116.5445 145.0186,116.0595 145.0186,115.4855" id="Fill-13" fill="#FFFFFE"></path>
                <path d="M149.9209,111.5441 C149.9209,111.4031 149.9599,111.3611 150.0999,111.3611 L150.5879,111.3611 C150.7389,111.3611 150.7689,111.4031 150.7689,111.5441 L150.7689,116.9291 C150.7689,117.0621 150.7259,117.1091 150.5879,117.1091 L150.0999,117.1091 C149.9599,117.1091 149.9209,117.0621 149.9209,116.9291 L149.9209,111.5441 Z M150.3329,108.8921 C150.6629,108.8921 150.9299,109.1481 150.9299,109.4801 C150.9299,109.8031 150.6629,110.0651 150.3329,110.0651 C150.0069,110.0651 149.7459,109.8031 149.7459,109.4801 C149.7459,109.1481 150.0069,108.8921 150.3329,108.8921 Z" id="Fill-15" fill="#FFFFFE"></path>
                <path d="M159.5996,114.2375 C159.5996,113.1105 158.8386,112.0025 157.6666,112.0025 C156.4796,112.0025 155.7376,113.0655 155.7376,114.2255 C155.7376,115.4775 156.4796,116.4735 157.6666,116.4735 C158.8386,116.4735 159.5996,115.3585 159.5996,114.2375 Z M159.5846,108.9565 C159.5846,108.8265 159.6306,108.7765 159.7556,108.7765 L160.2626,108.7765 C160.3856,108.7765 160.4306,108.8265 160.4306,108.9565 L160.4306,116.9285 C160.4306,117.0615 160.3856,117.1095 160.2626,117.1095 L160.0026,117.1095 C159.9026,117.1095 159.8556,117.0615 159.8116,116.9285 L159.7206,115.8765 C159.4416,116.3025 158.8286,117.2295 157.4956,117.2295 C155.9156,117.2295 154.8906,115.8645 154.8906,114.2255 C154.8906,112.5795 155.9156,111.2365 157.4956,111.2365 C158.8286,111.2365 159.4496,112.2385 159.5846,112.5545 L159.5846,108.9565 Z" id="Fill-17" fill="#FFFFFE"></path>
                <path d="M165.2061,115.3586 C165.2061,116.0576 165.7141,116.5646 166.6291,116.5646 C167.4061,116.5646 168.1381,116.0336 168.5011,115.5016 L168.5011,114.5656 C167.9281,114.3296 167.4871,114.1596 166.8431,114.1596 C165.7691,114.1596 165.2061,114.5876 165.2061,115.3586 M164.9431,112.0026 L164.8551,111.6616 C164.8211,111.5446 164.8551,111.4896 164.9851,111.4456 C165.1241,111.4036 166.0611,111.2366 166.9341,111.2366 C168.8281,111.2366 169.3501,112.0846 169.3501,113.9466 L169.3501,116.9286 C169.3501,117.0616 169.2991,117.1096 169.1831,117.1096 L168.8511,117.1096 C168.7621,117.1096 168.7141,117.0616 168.6831,116.9286 L168.6371,116.1616 C168.3341,116.5766 167.5901,117.2296 166.3701,117.2296 C165.2831,117.2296 164.3601,116.5646 164.3601,115.3586 C164.3601,114.1226 165.2831,113.5226 166.6731,113.5226 C167.2711,113.5226 167.9281,113.6896 168.5011,113.9256 C168.5011,112.5016 168.0801,111.9846 166.9011,111.9846 C166.1741,111.9846 165.5861,112.0846 165.1621,112.1616 C165.0151,112.1936 164.9831,112.1396 164.9431,112.0026" id="Fill-19" fill="#FFFFFE"></path>
                <path d="M177.6533,114.2375 C177.6533,113.1105 176.8983,112.0025 175.7233,112.0025 C174.5393,112.0025 173.7903,113.0655 173.7903,114.2255 C173.7903,115.4775 174.5393,116.4735 175.7233,116.4735 C176.8983,116.4735 177.6533,115.3585 177.6533,114.2375 Z M177.6393,108.9565 C177.6393,108.8265 177.6903,108.7765 177.8113,108.7765 L178.3203,108.7765 C178.4443,108.7765 178.4903,108.8265 178.4903,108.9565 L178.4903,116.9285 C178.4903,117.0615 178.4443,117.1095 178.3203,117.1095 L178.0593,117.1095 C177.9593,117.1095 177.9113,117.0615 177.8683,116.9285 L177.7753,115.8765 C177.4973,116.3025 176.8873,117.2295 175.5553,117.2295 C173.9723,117.2295 172.9443,115.8645 172.9443,114.2255 C172.9443,112.5795 173.9723,111.2365 175.5553,111.2365 C176.8873,111.2365 177.5073,112.2385 177.6393,112.5545 L177.6393,108.9565 Z" id="Fill-21" fill="#FFFFFE"></path>
                <path d="M108.1992,130.6437 C107.9592,130.6437 107.8922,130.5817 107.8922,130.3407 L107.8922,123.0517 C107.8922,122.8177 107.9592,122.7457 108.1992,122.7457 L113.3222,122.7457 C113.5562,122.7457 113.6282,122.8177 113.6282,123.0517 L113.6282,123.9977 C113.6282,124.2417 113.5562,124.3097 113.3222,124.3097 L109.7372,124.3097 L109.7372,125.8997 L113.1742,125.8997 C113.4122,125.8997 113.4812,125.9577 113.4812,126.2027 L113.4812,127.1487 C113.4812,127.3817 113.4122,127.4567 113.1742,127.4567 L109.7372,127.4567 L109.7372,129.0887 L113.3222,129.0887 C113.5562,129.0887 113.6282,129.1607 113.6282,129.3937 L113.6282,130.3407 C113.6282,130.5817 113.5562,130.6437 113.3222,130.6437 L108.1992,130.6437 Z" id="Fill-23" fill="#FFFFFE"></path>
                <path d="M117.377,122.6232 C117.377,122.3842 117.439,122.3162 117.679,122.3162 L118.793,122.3162 C119.031,122.3162 119.101,122.3842 119.101,122.6232 L119.101,130.3412 C119.101,130.5822 119.031,130.6442 118.793,130.6442 L117.679,130.6442 C117.439,130.6442 117.377,130.5822 117.377,130.3412 L117.377,122.6232 Z" id="Fill-25" fill="#FFFFFE"></path>
                <path d="M131.5488,129.1232 C132.3378,129.1232 132.6658,128.8622 132.6658,128.2762 C132.6658,127.8062 132.3018,127.4012 131.5488,127.4012 L130.0008,127.4012 L130.0008,129.1232 L131.5488,129.1232 Z M131.2778,125.9272 C132.0668,125.9272 132.3818,125.5382 132.3818,125.1162 C132.3818,124.5312 132.0668,124.2732 131.2778,124.2732 L130.0008,124.2732 L130.0008,125.9272 L131.2778,125.9272 Z M128.4638,130.6442 C128.2308,130.6442 128.1588,130.5822 128.1588,130.3412 L128.1588,123.0522 C128.1588,122.8172 128.2308,122.7452 128.4638,122.7452 L131.3328,122.7452 C132.6178,122.7452 134.2098,123.2902 134.2098,124.9462 C134.2098,125.7512 133.7598,126.2562 133.2518,126.5852 L133.2518,126.5952 C133.8488,126.8752 134.4928,127.4252 134.4928,128.4452 C134.4928,130.1082 133.1058,130.6442 131.6148,130.6442 L128.4638,130.6442 Z" id="Fill-27" fill="#FFFFFE"></path>
                <path d="M141.8584,127.7804 C141.8584,126.9254 141.2754,126.3114 140.5774,126.3114 C139.8744,126.3114 139.2894,126.9254 139.2894,127.7804 C139.2894,128.6394 139.8744,129.2704 140.5774,129.2704 C141.2754,129.2704 141.8584,128.6394 141.8584,127.7804 M140.5774,124.7844 C142.2204,124.7844 143.5784,126.1354 143.5784,127.7804 C143.5784,129.4284 142.2204,130.7684 140.5774,130.7684 C138.9304,130.7684 137.5724,129.4284 137.5724,127.7804 C137.5724,126.1354 138.9304,124.7844 140.5774,124.7844" id="Fill-29" fill="#FFFFFE"></path>
                <path d="M150.0303,128.966 C150.0303,128.703 149.6133,128.616 148.9143,128.526 C147.6853,128.366 146.7063,127.914 146.7063,126.689 C146.7063,125.525 147.6853,124.784 149.0843,124.784 C149.6833,124.784 150.4243,124.927 151.2983,125.421 C151.5123,125.55 151.4653,125.649 151.3643,125.849 L151.0373,126.415 C150.9233,126.618 150.8423,126.71 150.6343,126.563 C150.2823,126.325 149.8633,126.105 149.1983,126.105 C148.5393,126.105 148.3293,126.267 148.3293,126.585 C148.3293,126.843 148.7473,126.954 149.4453,127.05 C150.6773,127.204 151.6563,127.579 151.6563,128.862 C151.6563,130.027 150.6543,130.769 149.1983,130.769 C148.5953,130.769 147.6853,130.607 146.8493,130.034 C146.6443,129.907 146.6793,129.814 146.7833,129.607 L147.1123,129.046 C147.2223,128.841 147.2883,128.726 147.5173,128.898 C147.8533,129.144 148.4173,129.45 149.0843,129.45 C149.6833,129.45 150.0303,129.284 150.0303,128.966" id="Fill-31" fill="#FFFFFE"></path>
                <path d="M156.4541,127.7668 C156.4541,128.6338 157.0381,129.2378 157.7421,129.2378 C158.4381,129.2378 159.0251,128.6338 159.0251,127.7668 C159.0251,126.9128 158.4381,126.2828 157.7421,126.2828 C157.0381,126.2828 156.4541,126.9128 156.4541,127.7668 Z M159.0151,130.0048 C158.8441,130.2768 158.1931,130.7688 157.3391,130.7688 C155.8421,130.7688 154.7361,129.4188 154.7361,127.7668 C154.7361,126.1788 155.8421,124.7848 157.3391,124.7848 C158.1931,124.7848 158.8231,125.0838 159.3281,125.6168 L159.5571,125.2078 C159.6831,124.9928 159.7361,124.9038 159.9181,124.9038 L160.4361,124.9038 C160.6741,124.9038 160.7431,124.9698 160.7431,125.2078 L160.7431,132.6438 C160.7431,132.8848 160.6741,132.9528 160.4361,132.9528 L159.3171,132.9528 C159.0841,132.9528 159.0151,132.8848 159.0151,132.6438 L159.0151,130.0048 Z" id="Fill-33" fill="#FFFFFE"></path>
                <path d="M168.2666,129.9377 C167.8296,130.4157 167.4226,130.7687 166.6206,130.7687 C165.3366,130.7687 164.4646,130.1827 164.4646,128.1107 L164.4646,125.2087 C164.4646,124.9697 164.5346,124.9037 164.7706,124.9037 L165.8896,124.9037 C166.1256,124.9037 166.1956,124.9697 166.1956,125.2087 L166.1956,127.7667 C166.1956,128.7977 166.3846,129.2377 167.0616,129.2377 C167.7626,129.2377 167.9736,128.7977 167.9736,127.7667 L167.9736,125.2087 C167.9736,124.9697 168.0466,124.9037 168.2786,124.9037 L169.3946,124.9037 C169.6306,124.9037 169.7006,124.9697 169.7006,125.2087 L169.7006,127.7667 L169.7006,130.3407 C169.7006,130.5827 169.6306,130.6437 169.3946,130.6437 L168.8546,130.6437 C168.6736,130.6437 168.6186,130.5557 168.4966,130.3407 L168.2666,129.9377 Z" id="Fill-35" fill="#FFFFFE"></path>
                <path d="M177.2881,127.2257 C177.1741,126.7467 176.9251,126.1787 176.1911,126.1787 C175.4211,126.1787 175.1671,126.7467 175.0591,127.2257 L177.2881,127.2257 Z M178.5181,129.5877 C178.6561,129.7597 178.6951,129.8427 178.5751,129.9707 C178.0551,130.4937 177.1191,130.7687 176.2821,130.7687 C174.5791,130.7687 173.2341,129.4287 173.2341,127.7807 C173.2341,126.1357 174.5791,124.7847 176.2291,124.7847 C178.1531,124.7847 179.0491,126.3117 179.0491,127.9937 C179.0491,128.2457 179.0031,128.3237 178.7671,128.3237 L175.0161,128.3237 C175.2101,128.8977 175.7191,129.3017 176.3141,129.3017 C176.5771,129.3017 177.0051,129.2957 177.6321,129.0147 C177.8641,128.9077 177.9161,128.8407 178.0761,129.0377 L178.5181,129.5877 Z" id="Fill-37" fill="#FFFFFE"></path>
                <mask id="mask-2" fill="white">
                    <use xlink:href="#path-1"></use>
                </mask>
                <g id="Clip-40"></g>
                <polygon id="Fill-39" fill="#FFFFFE" mask="url(#mask-2)" points="169.244 138.279 177.226 138.279 177.226 136.371 169.244 136.371"></polygon>
                <text id="innovación" mask="url(#mask-2)" font-family="AcherusGrotesque-Black, Acherus Grotesque" font-size="8.9878" font-weight="700" letter-spacing="0.2" fill="#FFFFFE">
                    <tspan x="129" y="156">inno</tspan>
                    <tspan x="148.96199" y="156" letter-spacing="0.06608178">v</tspan>
                    <tspan x="153.809581" y="156">ación</tspan>
                </text>
                <text id="Educación" mask="url(#mask-2)" font-family="AcherusGrotesque-Black, Acherus Grotesque" font-size="8.9878" font-weight="700" letter-spacing="0.2" fill="#FFFFFE">
                    <tspan x="131" y="166">Educación</tspan>
                </text>
                <text id="eXtensión" mask="url(#mask-2)" font-family="AcherusGrotesque-Black, Acherus Grotesque" font-size="8.9878" font-weight="700" letter-spacing="0.2" fill="#FFFFFE">
                    <tspan x="132" y="177">eXtensión</tspan>
                </text>
                <path d="M48.5313,17.4562 C45.2073,17.4562 42.6053,20.1112 42.6053,23.5012 C42.6053,26.8262 45.2073,29.4322 48.5313,29.4322 C51.9223,29.4322 54.5783,26.8262 54.5783,23.5012 C54.5783,20.1692 51.8633,17.4562 48.5313,17.4562" id="Fill-41" fill="#FFFFFE" mask="url(#mask-2)"></path>
                <path d="M51.8193,33.1852 L45.2733,33.1852 C43.3383,33.1852 42.5183,33.8212 42.5183,35.3172 L42.5183,82.6772 C42.5183,84.1672 43.3383,84.8082 45.2733,84.8082 L51.8193,84.8082 C53.7563,84.8082 54.5783,84.1672 54.5783,82.6772 L54.5783,35.3172 C54.5783,33.8212 53.7563,33.1852 51.8193,33.1852" id="Fill-42" fill="#FFFFFE" mask="url(#mask-2)"></path>
                <path d="M97.168,45.1642 C99.229,45.1642 100.107,44.2872 100.107,42.2282 L100.107,36.3012 C100.107,34.2412 99.229,33.3632 97.168,33.3632 L66.717,33.3632 C64.656,33.3632 63.779,34.2412 63.779,36.3012 L63.779,81.8702 C63.779,83.9302 64.656,84.8082 66.717,84.8082 L97.168,84.8082 C99.229,84.8082 100.107,83.9302 100.107,81.8702 L100.107,75.9462 C100.107,73.8862 99.229,73.0052 97.168,73.0052 L75.772,73.0052 L75.772,64.8462 L96.621,64.8462 C98.68,64.8462 99.557,63.9682 99.557,61.9072 L99.557,55.9822 C99.557,53.9232 98.68,53.0422 96.621,53.0422 L75.772,53.0422 L75.772,45.1642 L97.168,45.1642 Z" id="Fill-43" fill="#FFFFFE" mask="url(#mask-2)"></path>
                <path d="M79.7559,0.9689 C79.7559,0.2139 79.9689,-0.0001 80.7249,-0.0001 L84.6389,-0.0001 C85.3929,-0.0001 85.6099,0.2139 85.6099,0.9689 L85.6099,24.1629 C85.6099,24.9149 85.3929,25.1309 84.6389,25.1309 L80.7249,25.1309 C79.9689,25.1309 79.7559,24.9149 79.7559,24.1629 L79.7559,15.2239 L69.6299,15.2239 L69.6299,24.1629 C69.6299,24.9149 69.4149,25.1309 68.6619,25.1309 L64.7479,25.1309 C63.9939,25.1309 63.7789,24.9149 63.7789,24.1629 L63.7789,0.9689 C63.7789,0.2139 63.9939,-0.0001 64.7479,-0.0001 L68.6619,-0.0001 C69.4149,-0.0001 69.6299,0.2139 69.6299,0.9689 L69.6299,10.1619 L79.7559,10.1619 L79.7559,0.9689 Z" id="Fill-44" fill="#FFFFFE" mask="url(#mask-2)"></path>
                <path d="M91,14.7936 L91,0.9686 C91,0.2136 91.216,0.0006 91.971,0.0006 L95.882,0.0006 C96.637,0.0006 96.852,0.2136 96.852,0.9686 L96.852,14.6126 C96.852,18.5266 98.432,20.5376 101.879,20.5376 C105.326,20.5376 106.906,18.5266 106.906,14.6126 L106.906,0.9686 C106.906,0.2136 107.123,0.0006 107.875,0.0006 L111.79,0.0006 C112.543,0.0006 112.759,0.2136 112.759,0.9686 L112.759,14.7936 C112.759,21.9366 107.734,25.5996 101.879,25.5996 C96.028,25.5996 91,21.9366 91,14.7936" id="Fill-45" fill="#FFFFFE" mask="url(#mask-2)"></path>
                <path d="M130.5889,20.2839 C133.1059,20.2839 134.1419,19.4599 134.1419,17.5929 C134.1419,16.0849 132.9939,14.7939 130.5889,14.7939 L125.6679,14.7939 L125.6679,20.2839 L130.5889,20.2839 Z M129.7259,10.1249 C132.2389,10.1249 133.2449,8.8679 133.2449,7.5389 C133.2449,5.6719 132.2389,4.8459 129.7259,4.8459 L125.6679,4.8459 L125.6679,10.1249 L129.7259,10.1249 Z M120.7889,25.1309 C120.0309,25.1309 119.8169,24.9149 119.8169,24.1629 L119.8169,0.9689 C119.8169,0.2139 120.0309,-0.0001 120.7889,-0.0001 L129.9059,-0.0001 C133.9969,-0.0001 139.0609,1.7219 139.0609,7.0019 C139.0609,9.5509 137.6229,11.1659 136.0079,12.2049 L136.0079,12.2419 C137.9109,13.1409 139.9589,14.8639 139.9589,18.1329 C139.9589,23.4089 135.5439,25.1309 130.8019,25.1309 L120.7889,25.1309 Z" id="Fill-46" fill="#FFFFFE" mask="url(#mask-2)"></path>
                <path d="M56.6074,131.0949 C56.2974,131.0949 55.9854,131.0009 55.7144,130.8079 C55.0234,130.3139 54.8634,129.3529 55.3574,128.6609 L75.6824,100.2319 C76.1754,99.5399 77.1364,99.3799 77.8284,99.8739 C78.5194,100.3679 78.6784,101.3289 78.1844,102.0209 L57.8594,130.4499 C57.5604,130.8699 57.0874,131.0949 56.6074,131.0949" id="Fill-47" fill="#FFFFFE" mask="url(#mask-2)"></path>
                <path d="M31.5703,165.8566 C31.1603,165.8566 30.7693,165.6966 30.4793,165.4066 C30.1893,165.1166 30.0293,164.7266 30.0293,164.3166 C30.0293,163.9176 30.1893,163.5166 30.4793,163.2366 C31.0493,162.6566 32.0903,162.6566 32.6493,163.2366 C32.9393,163.5166 33.0993,163.9176 33.0993,164.3166 C33.0993,164.7266 32.9393,165.1166 32.6493,165.4066 C32.3593,165.6966 31.9793,165.8566 31.5703,165.8566" id="Fill-48" fill="#FFFFFE" mask="url(#mask-2)"></path>
                <path d="M43.0703,148.2072 C42.3803,147.7172 42.2193,146.7572 42.7093,146.0662 C43.2093,145.3772 44.1703,145.2172 44.8593,145.7072 C45.5493,146.1962 45.7093,147.1562 45.2193,147.8472 C44.9203,148.2762 44.4393,148.4972 43.9693,148.4972 C43.6603,148.4972 43.3403,148.4062 43.0703,148.2072 M36.8693,156.8872 C36.1793,156.3962 36.0193,155.4362 36.5093,154.7472 C37.0093,154.0572 37.9693,153.8962 38.6603,154.3872 C39.3493,154.8772 39.5093,155.8372 39.0193,156.5262 C38.7193,156.9572 38.2403,157.1772 37.7593,157.1772 C37.4493,157.1772 37.1393,157.0872 36.8693,156.8872" id="Fill-49" fill="#FFFFFE" mask="url(#mask-2)"></path>
                <path d="M50.1602,139.8166 C49.7502,139.8166 49.3692,139.6566 49.0802,139.3666 C48.7892,139.0766 48.6302,138.6856 48.6302,138.2766 C48.6302,137.8756 48.7892,137.4756 49.0802,137.1856 C49.6392,136.6156 50.6802,136.6156 51.2502,137.1856 C51.5392,137.4756 51.6992,137.8756 51.6992,138.2766 C51.6992,138.6856 51.5392,139.0766 51.2502,139.3666 C50.9592,139.6566 50.5702,139.8166 50.1602,139.8166" id="Fill-50" fill="#FFFFFE" mask="url(#mask-2)"></path>
                <path d="M25.5586,142.4562 C25.2496,142.4562 24.9376,142.3632 24.6656,142.1692 C23.9746,141.6752 23.8156,140.7152 24.3096,140.0232 L44.6356,111.5892 C45.1286,110.8982 46.0896,110.7392 46.7816,111.2332 C47.4726,111.7272 47.6316,112.6872 47.1376,113.3782 L26.8116,141.8122 C26.5116,142.2322 26.0386,142.4562 25.5586,142.4562" id="Fill-51" fill="#FFFFFE" mask="url(#mask-2)"></path>
                <path d="M1.5391,175.797 C1.1191,175.797 0.7401,175.637 0.4491,175.337 C0.1601,175.047 0.0001,174.667 0.0001,174.257 C0.0001,173.847 0.1601,173.457 0.4491,173.167 C1.0191,172.597 2.0501,172.597 2.6191,173.167 C2.9101,173.457 3.0701,173.847 3.0701,174.257 C3.0701,174.667 2.9101,175.057 2.6191,175.337 C2.3301,175.637 1.9491,175.797 1.5391,175.797" id="Fill-52" fill="#FFFFFE" mask="url(#mask-2)"></path>
                <path d="M12.6797,158.6466 C11.9907,158.1566 11.8297,157.1966 12.3207,156.5066 C12.8097,155.8166 13.7697,155.6566 14.4697,156.1466 C15.1597,156.6366 15.3207,157.6066 14.8207,158.2966 C14.5197,158.7166 14.0497,158.9366 13.5707,158.9366 C13.2597,158.9366 12.9497,158.8466 12.6797,158.6466 M6.6597,167.0766 C5.9697,166.5866 5.8097,165.6266 6.2997,164.9366 C6.7997,164.2366 7.7597,164.0766 8.4497,164.5766 C9.1397,165.0666 9.2997,166.0266 8.8097,166.7166 C8.5097,167.1366 8.0297,167.3666 7.5497,167.3666 C7.2407,167.3666 6.9297,167.2766 6.6597,167.0766" id="Fill-53" fill="#FFFFFE" mask="url(#mask-2)"></path>
                <path d="M19.5898,150.507 C19.1798,150.507 18.7888,150.347 18.4998,150.057 C18.2088,149.767 18.0498,149.387 18.0498,148.977 C18.0498,148.567 18.2198,148.167 18.4998,147.887 C19.0698,147.317 20.1098,147.307 20.6798,147.887 C20.9588,148.167 21.1298,148.567 21.1298,148.977 C21.1298,149.387 20.9698,149.767 20.6798,150.057 C20.3898,150.347 19.9998,150.507 19.5898,150.507" id="Fill-54" fill="#FFFFFE" mask="url(#mask-2)"></path>
                <path d="M57.5615,163.0549 C57.2515,163.0549 56.9395,162.9619 56.6675,162.7679 C55.9775,162.2739 55.8185,161.3139 56.3125,160.6219 L76.6385,132.1909 C77.1305,131.4999 78.0925,131.3389 78.7835,131.8339 C79.4745,132.3269 79.6345,133.2879 79.1405,133.9799 L58.8145,162.4109 C58.5135,162.8309 58.0405,163.0549 57.5615,163.0549" id="Fill-55" fill="#FFFFFE" mask="url(#mask-2)"></path>
                <path d="M32.5596,197.757 C32.1496,197.757 31.7696,197.597 31.4796,197.307 C31.1896,197.017 31.0296,196.627 31.0296,196.217 C31.0296,195.817 31.1896,195.417 31.4796,195.137 C32.0496,194.567 33.0806,194.567 33.6496,195.137 C33.9396,195.417 34.0996,195.817 34.0996,196.217 C34.0996,196.627 33.9396,197.017 33.6496,197.307 C33.3596,197.597 32.9696,197.757 32.5596,197.757" id="Fill-56" fill="#FFFFFE" mask="url(#mask-2)"></path>
                <path d="M43.7998,180.4865 C43.1098,179.9865 42.9488,179.0265 43.4398,178.3375 C43.9398,177.6465 44.8998,177.4865 45.5898,177.9765 C46.2788,178.4765 46.4398,179.4365 45.9488,180.1275 C45.6498,180.5475 45.1698,180.7665 44.6898,180.7665 C44.3798,180.7665 44.0708,180.6765 43.7998,180.4865 M37.7398,188.9765 C37.0388,188.4865 36.8798,187.5265 37.3798,186.8375 C37.8688,186.1365 38.8298,185.9765 39.5198,186.4765 C40.2088,186.9665 40.3798,187.9265 39.8798,188.6165 C39.5798,189.0365 39.1098,189.2665 38.6298,189.2665 C38.3208,189.2665 38.0098,189.1675 37.7398,188.9765" id="Fill-57" fill="#FFFFFE" mask="url(#mask-2)"></path>
                <path d="M50.7598,172.2765 C50.3498,172.2765 49.9588,172.1165 49.6698,171.8265 C49.3798,171.5365 49.2198,171.1465 49.2198,170.7365 C49.2198,170.3375 49.3898,169.9365 49.6698,169.6465 C50.2498,169.0765 51.2798,169.0765 51.8498,169.6465 C52.1298,169.9365 52.2998,170.3265 52.2998,170.7365 C52.2998,171.1465 52.1398,171.5365 51.8498,171.8265 C51.5598,172.1165 51.1698,172.2765 50.7598,172.2765" id="Fill-58" fill="#FFFFFE" mask="url(#mask-2)"></path>
                <path d="M110.084,99.8332 C109.011,101.3312 108.584,101.7592 107.301,101.7592 L95.617,101.7592 C94.258,101.7592 93.618,101.3312 94.617,99.8332 L121.475,59.1312 L104.843,35.7122 C103.841,34.2122 104.41,33.7862 105.77,33.7862 L117.002,33.7862 C118.286,33.7862 118.785,34.2122 119.782,35.7122 L129.566,49.9932 L160.437,5.2222 C161.507,3.7202 161.936,3.2942 163.222,3.2942 L174.903,3.2942 C176.261,3.2942 176.902,3.7202 175.832,5.2222 L140.27,59.1312 L154.147,81.8342 C155.148,83.3332 154.577,83.7612 153.219,83.7612 L141.989,83.7612 C140.703,83.7612 140.275,83.3332 139.13,81.8342 L132.11,68.2702 L110.084,99.8332 Z" id="Fill-59" fill="#FFFFFE" mask="url(#mask-2)"></path>
            </g>
        </g>
    </g>
</svg>