<?xml version="1.0" encoding="UTF-8"?>
<svg width="67px" height="52px" viewBox="0 0 67 52" version="1.1" xmlns="http://www.w3.org/2000/svg" xmlns:xlink="http://www.w3.org/1999/xlink">
    <!-- Generator: Sketch 52.2 (67145) - http://www.bohemiancoding.com/sketch -->
    <title>logo iex copy</title>
    <desc>Created with Sketch.</desc>
    <defs>
        <polygon id="path-1" points="0 0.215219417 6.0299 0.215219417 6.0299 26.2773165 0 26.2773165"></polygon>
        <polygon id="path-3" points="0 0 5.9864 0 5.9864 6.04593398 0 6.04593398"></polygon>
        <polygon id="path-5" points="0.14915 0.121669903 10.22015 0.121669903 10.22015 12.8091146 0.14915 12.8091146"></polygon>
        <polygon id="path-7" points="0.305809012 0.270198058 41.4253723 0.270198058 41.4253723 49.9805825 0.305809012 49.9805825"></polygon>
    </defs>
    <g id="Home" stroke="none" stroke-width="1" fill="none" fill-rule="evenodd">
        <g id="Home-Iex" transform="translate(-98.000000, -626.000000)">
            <g id="Group" transform="translate(98.000000, 626.000000)">
                <g id="Group-4">
                    <g id="logo-iex-copy">
                        <g id="Group-16">
                            <g id="Group-3" transform="translate(0.000000, 17.043379)">
                                <mask id="mask-2" fill="white">
                                    <use xlink:href="#path-1"></use>
                                </mask>
                                <g id="Clip-2"></g>
                                <path d="M4.6504,0.215219417 L1.3774,0.215219417 C0.4099,0.215219417 -0.0001,0.536306796 -0.0001,1.29156893 L-0.0001,25.2014718 C-0.0001,25.9537049 0.4099,26.2773165 1.3774,26.2773165 L4.6504,26.2773165 C5.6189,26.2773165 6.0299,25.9537049 6.0299,25.2014718 L6.0299,1.29156893 C6.0299,0.536306796 5.6189,0.215219417 4.6504,0.215219417" id="Fill-1" fill="#1A1919" mask="url(#mask-2)"></path>
                            </g>
                            <g id="Group-3" transform="translate(0.000000, 9.592233)">
                                <mask id="mask-4" fill="white">
                                    <use xlink:href="#path-3"></use>
                                </mask>
                                <g id="Clip-2"></g>
                                <path d="M2.9629,0 C1.3009,0 -0.0001,1.34038835 -0.0001,3.05184466 C-0.0001,4.73048544 1.3009,6.04613592 2.9629,6.04613592 C4.6584,6.04613592 5.9864,4.73048544 5.9864,3.05184466 C5.9864,1.3696699 4.6289,0 2.9629,0" id="Fill-1" fill="#1A1919" mask="url(#mask-4)"></path>
                            </g>
                            <path d="M27.3247,23.3062485 C28.3552,23.3062485 28.7942,22.8634913 28.7942,21.8239961 L28.7942,18.8317243 C28.7942,17.7917243 28.3552,17.3484621 27.3247,17.3484621 L12.0992,17.3484621 C11.0687,17.3484621 10.6302,17.7917243 10.6302,18.8317243 L10.6302,41.837433 C10.6302,42.877433 11.0687,43.3206951 12.0992,43.3206951 L27.3247,43.3206951 C28.3552,43.3206951 28.7942,42.877433 28.7942,41.837433 L28.7942,38.8466757 C28.7942,37.8066757 28.3552,37.361899 27.3247,37.361899 L16.6267,37.361899 L16.6267,33.2427922 L27.0512,33.2427922 C28.0807,33.2427922 28.5192,32.7995301 28.5192,31.7590252 L28.5192,28.7677631 C28.5192,27.728268 28.0807,27.2834913 27.0512,27.2834913 L16.6267,27.2834913 L16.6267,23.3062485 L27.3247,23.3062485 Z" id="Fill-4" fill="#1A1919"></path>
                            <path d="M18.61865,0.994058252 C18.61865,0.612893204 18.72515,0.504854369 19.10315,0.504854369 L21.06015,0.504854369 C21.43715,0.504854369 21.54565,0.612893204 21.54565,0.994058252 L21.54565,12.7036505 C21.54565,13.083301 21.43715,13.1923495 21.06015,13.1923495 L19.10315,13.1923495 C18.72515,13.1923495 18.61865,13.083301 18.61865,12.7036505 L18.61865,8.19075728 L13.55565,8.19075728 L13.55565,12.7036505 C13.55565,13.083301 13.44815,13.1923495 13.07165,13.1923495 L11.11465,13.1923495 C10.73765,13.1923495 10.63015,13.083301 10.63015,12.7036505 L10.63015,0.994058252 C10.63015,0.612893204 10.73765,0.504854369 11.11465,0.504854369 L13.07165,0.504854369 C13.44815,0.504854369 13.55565,0.612893204 13.55565,0.994058252 L13.55565,5.63518447 L18.61865,5.63518447 L18.61865,0.994058252 Z" id="Fill-6" fill="#1A1919"></path>
                            <path d="M24.2407,7.97351845 L24.2407,0.993906796 C24.2407,0.612741748 24.3487,0.505207767 24.7262,0.505207767 L26.6817,0.505207767 C27.0592,0.505207767 27.1667,0.612741748 27.1667,0.993906796 L27.1667,7.88213981 C27.1667,9.85813981 27.9567,10.8734019 29.6802,10.8734019 C31.4037,10.8734019 32.1937,9.85813981 32.1937,7.88213981 L32.1937,0.993906796 C32.1937,0.612741748 32.3022,0.505207767 32.6782,0.505207767 L34.6357,0.505207767 C35.0122,0.505207767 35.1202,0.612741748 35.1202,0.993906796 L35.1202,7.97351845 C35.1202,11.5796932 32.6077,13.4289748 29.6802,13.4289748 C26.7547,13.4289748 24.2407,11.5796932 24.2407,7.97351845" id="Fill-8" fill="#1A1919"></path>
                            <g id="Group-12" transform="translate(38.500000, 0.383184)">
                                <mask id="mask-6" fill="white">
                                    <use xlink:href="#path-5"></use>
                                </mask>
                                <g id="Clip-11"></g>
                                <path d="M5.53515,10.3620854 C6.79365,10.3620854 7.31165,9.94608544 7.31165,9.00352233 C7.31165,8.24220194 6.73765,7.59043495 5.53515,7.59043495 L3.07465,7.59043495 L3.07465,10.3620854 L5.53515,10.3620854 Z M5.10365,5.2332699 C6.36015,5.2332699 6.86315,4.59866796 6.86315,3.9277165 C6.86315,2.9851534 6.36015,2.56814369 5.10365,2.56814369 L3.07465,2.56814369 L3.07465,5.2332699 L5.10365,5.2332699 Z M0.63515,12.8091146 C0.25615,12.8091146 0.14915,12.700066 0.14915,12.3204155 L0.14915,0.610823301 C0.14915,0.229658252 0.25615,0.121619417 0.63515,0.121619417 L5.19365,0.121619417 C7.23915,0.121619417 9.77115,0.990978641 9.77115,3.65660971 C9.77115,4.9434835 9.05215,5.7588233 8.24465,6.28336699 L8.24465,6.3020466 C9.19615,6.75591068 10.22015,7.62577476 10.22015,9.27614369 C10.22015,11.9397553 8.01265,12.8091146 5.64165,12.8091146 L0.63515,12.8091146 Z" id="Fill-10" fill="#1A1919" mask="url(#mask-6)"></path>
                            </g>
                            <g id="Group-15" transform="translate(25.500000, 1.897748)">
                                <mask id="mask-8" fill="white">
                                    <use xlink:href="#path-7"></use>
                                </mask>
                                <g id="Clip-14"></g>
                                <path d="M8.2827,49.008334 C7.7462,49.7646058 7.5327,49.9806835 6.8912,49.9806835 L1.0492,49.9806835 C0.3697,49.9806835 0.0497,49.7646058 0.5492,49.008334 L13.9782,28.4597515 L5.6622,16.636567 C5.1612,15.8792854 5.4457,15.6642175 6.1257,15.6642175 L11.7417,15.6642175 C12.3837,15.6642175 12.6332,15.8792854 13.1317,16.636567 L18.0237,23.8463922 L33.4592,1.24355728 C33.9942,0.485266019 34.2087,0.270198058 34.8517,0.270198058 L40.6922,0.270198058 C41.3712,0.270198058 41.6917,0.485266019 41.1567,1.24355728 L23.3757,28.4597515 L30.3142,39.9214602 C30.8147,40.6782369 30.5292,40.8943146 29.8502,40.8943146 L24.2352,40.8943146 C23.5922,40.8943146 23.3782,40.6782369 22.8057,39.9214602 L19.2957,33.0736155 L8.2827,49.008334 Z" id="Fill-13" fill="#1A1919" mask="url(#mask-8)"></path>
                            </g>
                        </g>
                    </g>
                </g>
            </g>
        </g>
    </g>
</svg>