<?xml version="1.0" encoding="UTF-8"?>
<svg width="181px" height="200px" viewBox="0 0 181 200" version="1.1" xmlns="http://www.w3.org/2000/svg" xmlns:xlink="http://www.w3.org/1999/xlink">
    <!-- Generator: Sketch 53 (72520) - https://sketchapp.com -->
    <title>Group 137</title>
    <desc>Created with Sketch.</desc>
    <defs>
        <polygon id="path-1" points="0.175339636 0.0539473684 22.1230705 0.0539473684 22.1230705 25.3076316 0.175339636 25.3076316"></polygon>
        <polygon id="path-3" points="0.560836727 0.0539473684 22.4328767 0.0539473684 22.4328767 25.7780921 0.560836727 25.7780921"></polygon>
    </defs>
    <g id="Home" stroke="none" stroke-width="1" fill="none" fill-rule="evenodd">
        <g id="Home-Iex" transform="translate(-121.000000, -47.000000)">
            <g id="Group-137" transform="translate(121.000000, 47.000000)">
                <polygon id="Fill-1" fill="#FF7D19" points="170.532935 139.672368 178.544324 139.672368 178.544324 137.759868 170.532935 137.759868"></polygon>
                <g id="Group-136" transform="translate(0.000000, 0.603947)">
                    <path d="M116.525825,153.077434 C116.525825,152.887961 116.580455,152.834013 116.769353,152.834013 L117.662505,152.834013 C117.852062,152.834013 117.906033,152.887961 117.906033,153.077434 L117.906033,157.17875 C117.906033,157.368224 117.852062,157.422171 117.662505,157.422171 L116.769353,157.422171 C116.580455,157.422171 116.525825,157.368224 116.525825,157.17875 L116.525825,153.077434 Z M117.202436,150.660987 C117.644076,150.660987 118.005418,151.022171 118.005418,151.463618 C118.005418,151.905724 117.644076,152.247829 117.202436,152.247829 C116.760138,152.247829 116.417884,151.905724 116.417884,151.463618 C116.417884,151.022171 116.760138,150.660987 117.202436,150.660987 L117.202436,150.660987 Z" id="Fill-2" fill="#FF7D19"></path>
                    <path d="M122.308019,153.401908 C122.659488,153.023618 122.983971,152.734803 123.624382,152.734803 C124.65312,152.734803 125.347502,153.203224 125.347502,154.862434 L125.347502,157.178882 C125.347502,157.368355 125.292873,157.422303 125.103975,157.422303 L124.210822,157.422303 C124.021924,157.422303 123.967295,157.368355 123.967295,157.178882 L123.967295,155.132829 C123.967295,154.312434 123.813939,153.961118 123.272913,153.961118 C122.713459,153.961118 122.542331,154.312434 122.542331,155.132829 L122.542331,157.178882 C122.542331,157.368355 122.48836,157.422303 122.298804,157.422303 L121.405651,157.422303 C121.216753,157.422303 121.162782,157.368355 121.162782,157.178882 L121.162782,155.132829 L121.162782,153.077566 C121.162782,152.888092 121.216753,152.834145 121.405651,152.834145 L121.838735,152.834145 C121.982877,152.834145 122.028291,152.905855 122.127677,153.077566 L122.308019,153.401908 Z" id="Fill-4" fill="#FF7D19"></path>
                    <path d="M129.515241,153.401908 C129.86671,153.023618 130.191194,152.734803 130.831605,152.734803 C131.860343,152.734803 132.554725,153.203224 132.554725,154.862434 L132.554725,157.178882 C132.554725,157.368355 132.500096,157.422303 132.311197,157.422303 L131.418045,157.422303 C131.229147,157.422303 131.174517,157.368355 131.174517,157.178882 L131.174517,155.132829 C131.174517,154.312434 131.021161,153.961118 130.480136,153.961118 C129.920681,153.961118 129.749554,154.312434 129.749554,155.132829 L129.749554,157.178882 C129.749554,157.368355 129.695583,157.422303 129.506027,157.422303 L128.612874,157.422303 C128.423976,157.422303 128.370005,157.368355 128.370005,157.178882 L128.370005,155.132829 L128.370005,153.077566 C128.370005,152.888092 128.423976,152.834145 128.612874,152.834145 L129.045957,152.834145 C129.190099,152.834145 129.235514,152.905855 129.334899,153.077566 L129.515241,153.401908 Z" id="Fill-6" fill="#FF7D19"></path>
                    <path d="M138.670682,155.132763 C138.670682,154.447237 138.202056,153.961053 137.642602,153.961053 C137.083147,153.961053 136.614522,154.447237 136.614522,155.132763 C136.614522,155.817632 137.083147,156.322895 137.642602,156.322895 C138.202056,156.322895 138.670682,155.817632 138.670682,155.132763 M137.642602,152.734737 C138.958965,152.734737 140.041675,153.816316 140.041675,155.132763 C140.041675,156.448553 138.958965,157.521579 137.642602,157.521579 C136.32558,157.521579 135.243529,156.448553 135.243529,155.132763 C135.243529,153.816316 136.32558,152.734737 137.642602,152.734737" id="Fill-8" fill="#FF7D19"></path>
                    <path d="M142.216439,153.077434 C142.162468,152.959671 142.23421,152.834013 142.369795,152.834013 L143.343904,152.834013 C143.505817,152.834013 143.560446,152.887961 143.659173,153.077434 L144.660268,154.907039 L144.660268,154.91625 L145.652806,153.077434 C145.752192,152.887961 145.806163,152.834013 145.968075,152.834013 L146.942184,152.834013 C147.113312,152.834013 147.140297,152.986645 147.095541,153.077434 L144.868253,157.295855 C144.778083,157.449803 144.751097,157.539276 144.669483,157.539276 L144.642497,157.539276 C144.561541,157.539276 144.533897,157.449803 144.444384,157.295855 L142.216439,153.077434 Z" id="Fill-10" fill="#FF7D19"></path>
                    <path d="M150.641364,156.007171 C150.641364,156.159803 150.767735,156.494013 151.281775,156.494013 C151.570058,156.494013 151.859,156.31375 152.129513,156.043355 L152.129513,155.655855 C151.805029,155.574276 151.570058,155.511118 151.281775,155.511118 C150.767735,155.511118 150.641364,155.799934 150.641364,156.007171 M149.793625,153.798618 L149.640269,153.194671 C149.595513,153.01375 149.613284,152.950592 149.775855,152.905855 C149.883796,152.878882 150.740091,152.734803 151.371945,152.734803 C153.310949,152.734803 153.509062,153.581513 153.509062,154.943355 L153.509062,157.178882 C153.509062,157.368355 153.455091,157.422303 153.265535,157.422303 L152.751495,157.422303 C152.616567,157.422303 152.561938,157.368355 152.480982,157.178882 L152.390811,156.953224 C152.120298,157.178882 151.741185,157.521645 150.839476,157.521645 C150.081909,157.521645 149.270371,157.052566 149.270371,156.007171 C149.270371,155.033487 150.081909,154.555855 150.929647,154.555855 C151.218589,154.555855 151.795815,154.619013 152.129513,154.726908 C152.129513,154.158487 152.020913,153.907171 151.30876,153.907171 C150.848691,153.907171 150.361636,153.969671 150.054924,154.023618 C149.874582,154.050592 149.838382,153.978882 149.793625,153.798618" id="Fill-12" fill="#FF7D19"></path>
                    <path d="M159.399855,156.016118 C159.53544,155.889803 159.607182,155.925987 159.742768,156.070066 L160.193622,156.566118 C160.310779,156.700987 160.337764,156.745724 160.238379,156.845724 C159.778309,157.295724 159.192528,157.521382 158.569888,157.521382 C157.253524,157.521382 156.180029,156.448355 156.180029,155.132566 C156.180029,153.816118 157.253524,152.735197 158.569888,152.735197 C159.192528,152.735197 159.778309,152.959539 160.238379,153.410855 C160.337764,153.509539 160.310779,153.554934 160.193622,153.690461 L159.742768,154.186513 C159.607182,154.329934 159.53544,154.366118 159.399855,154.240461 C159.120128,153.978618 158.786429,153.960855 158.569888,153.960855 C158.011091,153.960855 157.541808,154.447039 157.541808,155.132566 C157.541808,155.817434 158.011091,156.295724 158.569888,156.295724 C158.786429,156.295724 159.120128,156.277303 159.399855,156.016118" id="Fill-14" fill="#FF7D19"></path>
                    <path d="M163.161627,153.077434 C163.161627,152.887961 163.216256,152.834013 163.405155,152.834013 L164.298307,152.834013 C164.487864,152.834013 164.541835,152.887961 164.541835,153.077434 L164.541835,157.17875 C164.541835,157.368224 164.487864,157.422171 164.298307,157.422171 L163.405155,157.422171 C163.216256,157.422171 163.161627,157.368224 163.161627,157.17875 L163.161627,153.077434 Z M163.838238,150.660987 C164.279878,150.660987 164.64122,151.022171 164.64122,151.463618 C164.64122,151.905724 164.279878,152.247829 163.838238,152.247829 C163.39594,152.247829 163.053685,151.905724 163.053685,151.463618 C163.053685,151.022171 163.39594,150.660987 163.838238,150.660987 L163.838238,150.660987 Z" id="Fill-16" fill="#FF7D19"></path>
                    <path d="M170.36885,152.112434 C170.26025,152.203224 170.134537,152.257171 169.989737,152.257171 L169.23217,152.257171 C169.069599,152.257171 169.034057,152.17625 169.223613,151.968355 L170.350421,150.724934 C170.467577,150.580197 170.585392,150.634145 170.693333,150.805855 L171.027032,151.346645 C171.108646,151.490724 171.108646,151.553224 170.946075,151.68875 L170.36885,152.112434 Z M170.891446,155.132829 C170.891446,154.447303 170.422821,153.961118 169.863366,153.961118 C169.30457,153.961118 168.835286,154.447303 168.835286,155.132829 C168.835286,155.817697 169.30457,156.322303 169.863366,156.322303 C170.422821,156.322303 170.891446,155.817697 170.891446,155.132829 L170.891446,155.132829 Z M169.863366,152.734803 C171.180388,152.734803 172.262439,153.816382 172.262439,155.132829 C172.262439,156.448618 171.180388,157.521645 169.863366,157.521645 C168.547003,157.521645 167.464293,156.448618 167.464293,155.132829 C167.464293,153.816382 168.547003,152.734803 169.863366,152.734803 L169.863366,152.734803 Z" id="Fill-18" fill="#FF7D19"></path>
                    <path d="M176.232328,153.401908 C176.583797,153.023618 176.908281,152.734803 177.548692,152.734803 C178.57743,152.734803 179.271812,153.203224 179.271812,154.862434 L179.271812,157.178882 C179.271812,157.368355 179.217183,157.422303 179.028285,157.422303 L178.135132,157.422303 C177.945576,157.422303 177.891605,157.368355 177.891605,157.178882 L177.891605,155.132829 C177.891605,154.312434 177.738248,153.961118 177.197223,153.961118 C176.637768,153.961118 176.466641,154.312434 176.466641,155.132829 L176.466641,157.178882 C176.466641,157.368355 176.41267,157.422303 176.223114,157.422303 L175.329961,157.422303 C175.141063,157.422303 175.087092,157.368355 175.087092,157.178882 L175.087092,155.132829 L175.087092,153.077566 C175.087092,152.888092 175.141063,152.834145 175.329961,152.834145 L175.763045,152.834145 C175.907187,152.834145 175.952601,152.905855 176.051987,153.077566 L176.232328,153.401908 Z" id="Fill-20" fill="#FF7D19"></path>
                    <path d="M120.810457,168.242434 C120.620901,168.242434 120.56693,168.188487 120.56693,167.999013 L120.56693,162.175329 C120.56693,161.985855 120.620901,161.931908 120.810457,161.931908 L124.905007,161.931908 C125.094563,161.931908 125.148534,161.985855 125.148534,162.175329 L125.148534,162.932566 C125.148534,163.122039 125.094563,163.175987 124.905007,163.175987 L122.037308,163.175987 L122.037308,164.447039 L124.78785,164.447039 C124.977407,164.447039 125.031377,164.500987 125.031377,164.690461 L125.031377,165.447697 C125.031377,165.637171 124.977407,165.691118 124.78785,165.691118 L122.037308,165.691118 L122.037308,166.997697 L124.905007,166.997697 C125.094563,166.997697 125.148534,167.052303 125.148534,167.241776 L125.148534,167.999013 C125.148534,168.188487 125.094563,168.242434 124.905007,168.242434 L120.810457,168.242434 Z" id="Fill-22" fill="#FF7D19"></path>
                    <path d="M131.237505,165.952632 C131.237505,165.267105 130.76888,164.780921 130.209425,164.780921 C129.649971,164.780921 129.181345,165.267105 129.181345,165.952632 C129.181345,166.6375 129.649971,167.142763 130.209425,167.142763 C130.76888,167.142763 131.237505,166.6375 131.237505,165.952632 L131.237505,165.952632 Z M131.228291,161.832895 C131.228291,161.643421 131.282262,161.589474 131.471818,161.589474 L132.364971,161.589474 C132.553869,161.589474 132.608498,161.643421 132.608498,161.832895 L132.608498,167.998684 C132.608498,168.188158 132.553869,168.242105 132.364971,168.242105 L131.950316,168.242105 C131.805516,168.242105 131.76076,168.170395 131.661375,167.998684 L131.481033,167.674342 C131.074935,168.098026 130.570109,168.341447 129.884942,168.341447 C128.694291,168.341447 127.810353,167.223684 127.810353,165.952632 C127.810353,164.636184 128.694291,163.554605 129.884942,163.554605 C130.570109,163.554605 131.093364,163.951316 131.228291,164.168421 L131.228291,161.832895 Z" id="Fill-24" fill="#FF7D19"></path>
                    <path d="M138.625662,167.674474 C138.273535,168.052763 137.949051,168.341579 137.309299,168.341579 C136.28056,168.341579 135.586179,167.8725 135.586179,166.213947 L135.586179,163.8975 C135.586179,163.708026 135.640149,163.654079 135.829706,163.654079 L136.722859,163.654079 C136.911757,163.654079 136.966386,163.708026 136.966386,163.8975 L136.966386,165.943553 C136.966386,166.763947 137.119084,167.115263 137.660768,167.115263 C138.219564,167.115263 138.391349,166.763947 138.391349,165.943553 L138.391349,163.8975 C138.391349,163.708026 138.44532,163.654079 138.634877,163.654079 L139.527371,163.654079 C139.716928,163.654079 139.770899,163.708026 139.770899,163.8975 L139.770899,165.943553 L139.770899,167.998816 C139.770899,168.188289 139.716928,168.242237 139.527371,168.242237 L139.094288,168.242237 C138.950146,168.242237 138.905389,168.170526 138.806004,167.998816 L138.625662,167.674474 Z" id="Fill-26" fill="#FF7D19"></path>
                    <path d="M145.814916,166.836053 C145.950502,166.709737 146.022244,166.745921 146.157829,166.89 L146.608684,167.386053 C146.72584,167.520921 146.752825,167.565658 146.65344,167.665658 C146.193371,168.115658 145.607589,168.341316 144.984949,168.341316 C143.668585,168.341316 142.595091,167.268289 142.595091,165.9525 C142.595091,164.636053 143.668585,163.555132 144.984949,163.555132 C145.607589,163.555132 146.193371,163.779474 146.65344,164.230789 C146.752825,164.329474 146.72584,164.374868 146.608684,164.510395 L146.157829,165.006447 C146.022244,165.149868 145.950502,165.186053 145.814916,165.060395 C145.535189,164.798553 145.201491,164.780789 144.984949,164.780789 C144.426153,164.780789 143.956869,165.266974 143.956869,165.9525 C143.956869,166.637368 144.426153,167.115658 144.984949,167.115658 C145.201491,167.115658 145.535189,167.097237 145.814916,166.836053" id="Fill-28" fill="#FF7D19"></path>
                    <path d="M150.641364,166.827039 C150.641364,166.979671 150.767735,167.313882 151.281775,167.313882 C151.570058,167.313882 151.859,167.133618 152.129513,166.863224 L152.129513,166.475724 C151.805029,166.394145 151.570058,166.330987 151.281775,166.330987 C150.767735,166.330987 150.641364,166.619803 150.641364,166.827039 M149.793625,164.618487 L149.640269,164.014539 C149.595513,163.833618 149.613284,163.770461 149.775855,163.725724 C149.883796,163.69875 150.740091,163.554671 151.371945,163.554671 C153.310949,163.554671 153.509062,164.401382 153.509062,165.763224 L153.509062,167.99875 C153.509062,168.188224 153.455091,168.242171 153.265535,168.242171 L152.751495,168.242171 C152.616567,168.242171 152.561938,168.188224 152.480982,167.99875 L152.390811,167.773092 C152.120298,167.99875 151.741185,168.341513 150.839476,168.341513 C150.081909,168.341513 149.270371,167.872434 149.270371,166.827039 C149.270371,165.853355 150.081909,165.375724 150.929647,165.375724 C151.218589,165.375724 151.795815,165.438882 152.129513,165.546776 C152.129513,164.978355 152.020913,164.727039 151.30876,164.727039 C150.848691,164.727039 150.361636,164.789539 150.054924,164.843487 C149.874582,164.870461 149.838382,164.79875 149.793625,164.618487" id="Fill-30" fill="#FF7D19"></path>
                    <path d="M159.399855,166.836053 C159.53544,166.709737 159.607182,166.745921 159.742768,166.89 L160.193622,167.386053 C160.310779,167.520921 160.337764,167.565658 160.238379,167.665658 C159.778309,168.115658 159.192528,168.341316 158.569888,168.341316 C157.253524,168.341316 156.180029,167.268289 156.180029,165.9525 C156.180029,164.636053 157.253524,163.555132 158.569888,163.555132 C159.192528,163.555132 159.778309,163.779474 160.238379,164.230789 C160.337764,164.329474 160.310779,164.374868 160.193622,164.510395 L159.742768,165.006447 C159.607182,165.149868 159.53544,165.186053 159.399855,165.060395 C159.120128,164.798553 158.786429,164.780789 158.569888,164.780789 C158.011091,164.780789 157.541808,165.266974 157.541808,165.9525 C157.541808,166.637368 158.011091,167.115658 158.569888,167.115658 C158.786429,167.115658 159.120128,167.097237 159.399855,166.836053" id="Fill-32" fill="#FF7D19"></path>
                    <path d="M163.161891,163.897368 C163.161891,163.707895 163.21652,163.653947 163.405418,163.653947 L164.298571,163.653947 C164.488127,163.653947 164.542098,163.707895 164.542098,163.897368 L164.542098,167.998684 C164.542098,168.188158 164.488127,168.242105 164.298571,168.242105 L163.405418,168.242105 C163.21652,168.242105 163.161891,168.188158 163.161891,167.998684 L163.161891,163.897368 Z M163.838501,161.480921 C164.280141,161.480921 164.641483,161.842105 164.641483,162.283553 C164.641483,162.725658 164.280141,163.067763 163.838501,163.067763 C163.396203,163.067763 163.053949,162.725658 163.053949,162.283553 C163.053949,161.842105 163.396203,161.480921 163.838501,161.480921 L163.838501,161.480921 Z" id="Fill-34" fill="#FF7D19"></path>
                    <path d="M170.36885,162.932368 C170.26025,163.023158 170.134537,163.077105 169.989737,163.077105 L169.23217,163.077105 C169.069599,163.077105 169.034057,162.996184 169.223613,162.788289 L170.350421,161.544868 C170.467577,161.400132 170.585392,161.454737 170.693333,161.625789 L171.027032,162.166579 C171.108646,162.310658 171.108646,162.373158 170.946075,162.508684 L170.36885,162.932368 Z M170.891446,165.952763 C170.891446,165.267237 170.422821,164.781053 169.863366,164.781053 C169.30457,164.781053 168.835286,165.267237 168.835286,165.952763 C168.835286,166.637632 169.30457,167.142237 169.863366,167.142237 C170.422821,167.142237 170.891446,166.637632 170.891446,165.952763 L170.891446,165.952763 Z M169.863366,163.554737 C171.180388,163.554737 172.262439,164.636316 172.262439,165.952763 C172.262439,167.268553 171.180388,168.341579 169.863366,168.341579 C168.547003,168.341579 167.464293,167.268553 167.464293,165.952763 C167.464293,164.636316 168.547003,163.554737 169.863366,163.554737 L169.863366,163.554737 Z" id="Fill-36" fill="#FF7D19"></path>
                    <path d="M176.232328,164.221842 C176.583797,163.843553 176.908281,163.554737 177.548692,163.554737 C178.57743,163.554737 179.271812,164.023158 179.271812,165.682368 L179.271812,167.998816 C179.271812,168.188289 179.217183,168.242237 179.028285,168.242237 L178.135132,168.242237 C177.945576,168.242237 177.891605,168.188289 177.891605,167.998816 L177.891605,165.952763 C177.891605,165.132368 177.738248,164.781053 177.197223,164.781053 C176.637768,164.781053 176.466641,165.132368 176.466641,165.952763 L176.466641,167.998816 C176.466641,168.188289 176.41267,168.242237 176.223114,168.242237 L175.329961,168.242237 C175.141063,168.242237 175.087092,168.188289 175.087092,167.998816 L175.087092,165.952763 L175.087092,163.8975 C175.087092,163.708026 175.141063,163.654079 175.329961,163.654079 L175.763045,163.654079 C175.907187,163.654079 175.952601,163.725789 176.051987,163.8975 L176.232328,164.221842 Z" id="Fill-38" fill="#FF7D19"></path>
                    <path d="M124.418544,176.330592 C124.328373,175.952303 124.130261,175.492434 123.543821,175.492434 C122.930395,175.492434 122.723068,175.952303 122.641453,176.330592 L124.418544,176.330592 Z M125.401868,178.214803 C125.50981,178.349671 125.54601,178.422697 125.446624,178.521382 C125.03197,178.935855 124.282959,179.161513 123.615563,179.161513 C122.253784,179.161513 121.180948,178.088487 121.180948,176.772697 C121.180948,175.45625 122.253784,174.374671 123.570806,174.374671 C125.112926,174.374671 125.825737,175.600987 125.825737,176.94375 C125.825737,177.141776 125.789537,177.204934 125.599981,177.204934 L122.605912,177.204934 C122.759268,177.664803 123.164708,177.989145 123.642548,177.989145 C123.850533,177.989145 124.192788,177.980592 124.698272,177.754934 C124.878613,177.674013 124.92337,177.620066 125.049741,177.772697 L125.401868,178.214803 Z" id="Fill-40" fill="#FF7D19"></path>
                    <path d="M129.785885,178.818882 C129.6503,179.008355 129.596329,179.062303 129.434416,179.062303 L128.279965,179.062303 C128.10818,179.062303 128.027224,179.008355 128.153595,178.818882 L130.227525,175.952434 L128.126609,172.995197 C128.000238,172.805724 128.07198,172.751776 128.243765,172.751776 L129.398216,172.751776 C129.560129,172.751776 129.623315,172.805724 129.749685,172.995197 L130.985093,174.798487 L132.221158,172.995197 C132.356085,172.805724 132.410056,172.751776 132.572627,172.751776 L133.727078,172.751776 C133.898205,172.751776 133.97982,172.805724 133.844235,172.995197 L131.751875,175.952434 L133.826464,178.818882 C133.952835,179.008355 133.880435,179.062303 133.708649,179.062303 L132.554856,179.062303 C132.392285,179.062303 132.338315,179.008355 132.194173,178.818882 L130.985093,177.106382 L129.785885,178.818882 Z" id="Fill-42" fill="#FF7D19"></path>
                    <path d="M138.499686,179.161316 C137.309035,179.161316 136.650853,178.413289 136.650853,177.177763 L136.650853,175.556053 L136.434312,175.556053 C136.244755,175.556053 136.190784,175.501447 136.190784,175.311974 L136.190784,174.717237 C136.190784,174.527763 136.244755,174.473816 136.434312,174.473816 L136.650853,174.473816 L136.650853,173.644211 C136.650853,173.454737 136.704824,173.400789 136.894381,173.400789 L137.777661,173.400789 C137.967217,173.400789 138.021188,173.454737 138.021188,173.644211 L138.021188,174.473816 L139.167083,174.473816 C139.355981,174.473816 139.41061,174.527763 139.41061,174.717237 L139.41061,175.311974 C139.41061,175.501447 139.355981,175.556053 139.167083,175.556053 L138.021188,175.556053 L138.021188,177.106711 C138.021188,177.683026 138.265373,177.935658 138.653043,177.935658 C138.78797,177.935658 138.950541,177.917237 139.103897,177.845526 C139.328995,177.737632 139.37441,177.746184 139.41061,177.989605 L139.518552,178.620526 C139.545537,178.791579 139.536981,178.836974 139.392181,178.927105 C139.022283,179.161316 138.616843,179.161316 138.499686,179.161316" id="Fill-44" fill="#FF7D19"></path>
                    <path d="M145.237691,176.330592 C145.14752,175.952303 144.949407,175.492434 144.362967,175.492434 C143.749542,175.492434 143.542215,175.952303 143.461258,176.330592 L145.237691,176.330592 Z M146.221015,178.214803 C146.328956,178.349671 146.365156,178.422697 146.265771,178.521382 C145.851116,178.935855 145.102105,179.161513 144.434709,179.161513 C143.072931,179.161513 142.000095,178.088487 142.000095,176.772697 C142.000095,175.45625 143.072931,174.374671 144.389953,174.374671 C145.932073,174.374671 146.644884,175.600987 146.644884,176.94375 C146.644884,177.141776 146.608684,177.204934 146.419127,177.204934 L143.425058,177.204934 C143.578415,177.664803 143.983855,177.989145 144.461695,177.989145 C144.66968,177.989145 145.011935,177.980592 145.517418,177.754934 C145.69776,177.674013 145.742516,177.620066 145.868887,177.772697 L146.221015,178.214803 Z" id="Fill-46" fill="#FF7D19"></path>
                    <path d="M150.560407,175.041776 C150.911876,174.663487 151.23636,174.374671 151.876771,174.374671 C152.905509,174.374671 153.599891,174.843092 153.599891,176.502303 L153.599891,178.81875 C153.599891,179.008224 153.545262,179.062171 153.356364,179.062171 L152.463211,179.062171 C152.274313,179.062171 152.219684,179.008224 152.219684,178.81875 L152.219684,176.772697 C152.219684,175.952303 152.066327,175.600987 151.525302,175.600987 C150.965847,175.600987 150.79472,175.952303 150.79472,176.772697 L150.79472,178.81875 C150.79472,179.008224 150.740749,179.062171 150.551193,179.062171 L149.65804,179.062171 C149.469142,179.062171 149.415171,179.008224 149.415171,178.81875 L149.415171,176.772697 L149.415171,174.717434 C149.415171,174.527961 149.469142,174.474013 149.65804,174.474013 L150.091124,174.474013 C150.235265,174.474013 150.28068,174.545724 150.380065,174.717434 L150.560407,175.041776 Z" id="Fill-48" fill="#FF7D19"></path>
                    <path d="M158.957952,177.718947 C158.957952,177.511711 158.624253,177.439342 158.065457,177.367632 C157.082133,177.240658 156.297581,176.880789 156.297581,175.897895 C156.297581,174.969605 157.082133,174.374868 158.200384,174.374868 C158.678224,174.374868 159.273221,174.491974 159.968261,174.888026 C160.139388,174.988026 160.103188,175.068947 160.022232,175.230789 L159.760275,175.681447 C159.670763,175.843947 159.606919,175.916316 159.435792,175.798553 C159.156064,175.609737 158.822366,175.429474 158.290555,175.429474 C157.767301,175.429474 157.596173,175.565 157.596173,175.817632 C157.596173,176.024211 157.929872,176.115 158.489326,176.186711 C159.471992,176.312368 160.256544,176.609737 160.256544,177.638026 C160.256544,178.566316 159.453563,179.161053 158.290555,179.161053 C157.812715,179.161053 157.082133,179.026184 156.414737,178.575526 C156.252166,178.467632 156.279152,178.395263 156.360766,178.232763 L156.622064,177.782105 C156.712235,177.620263 156.766206,177.529474 156.946548,177.665 C157.217061,177.863684 157.668573,178.106447 158.200384,178.106447 C158.678224,178.106447 158.957952,177.971579 158.957952,177.718947" id="Fill-50" fill="#FF7D19"></path>
                    <path d="M163.161891,174.717303 C163.161891,174.527829 163.21652,174.473882 163.405418,174.473882 L164.298571,174.473882 C164.488127,174.473882 164.542098,174.527829 164.542098,174.717303 L164.542098,178.818618 C164.542098,179.008092 164.488127,179.062039 164.298571,179.062039 L163.405418,179.062039 C163.21652,179.062039 163.161891,179.008092 163.161891,178.818618 L163.161891,174.717303 Z M163.838501,172.300855 C164.280141,172.300855 164.641483,172.662039 164.641483,173.104145 C164.641483,173.545592 164.280141,173.887697 163.838501,173.887697 C163.396203,173.887697 163.053949,173.545592 163.053949,173.104145 C163.053949,172.662039 163.396203,172.300855 163.838501,172.300855 L163.838501,172.300855 Z" id="Fill-52" fill="#FF7D19"></path>
                    <path d="M170.36885,173.752303 C170.26025,173.843092 170.134537,173.897039 169.989737,173.897039 L169.23217,173.897039 C169.069599,173.897039 169.034057,173.816118 169.223613,173.608224 L170.350421,172.364803 C170.467577,172.220066 170.585392,172.274013 170.693333,172.446382 L171.027032,172.986513 C171.108646,173.130592 171.108646,173.193092 170.946075,173.328618 L170.36885,173.752303 Z M170.891446,176.772697 C170.891446,176.087171 170.422821,175.600987 169.863366,175.600987 C169.30457,175.600987 168.835286,176.087171 168.835286,176.772697 C168.835286,177.457566 169.30457,177.962171 169.863366,177.962171 C170.422821,177.962171 170.891446,177.457566 170.891446,176.772697 L170.891446,176.772697 Z M169.863366,174.374671 C171.180388,174.374671 172.262439,175.45625 172.262439,176.772697 C172.262439,178.088487 171.180388,179.161513 169.863366,179.161513 C168.547003,179.161513 167.464293,178.088487 167.464293,176.772697 C167.464293,175.45625 168.547003,174.374671 169.863366,174.374671 L169.863366,174.374671 Z" id="Fill-54" fill="#FF7D19"></path>
                    <path d="M176.232328,175.041776 C176.583797,174.663487 176.908281,174.374671 177.548692,174.374671 C178.57743,174.374671 179.271812,174.843092 179.271812,176.502303 L179.271812,178.81875 C179.271812,179.008224 179.217183,179.062171 179.028285,179.062171 L178.135132,179.062171 C177.945576,179.062171 177.891605,179.008224 177.891605,178.81875 L177.891605,176.772697 C177.891605,175.952303 177.738248,175.600987 177.197223,175.600987 C176.637768,175.600987 176.466641,175.952303 176.466641,176.772697 L176.466641,178.81875 C176.466641,179.008224 176.41267,179.062171 176.223114,179.062171 L175.329961,179.062171 C175.141063,179.062171 175.087092,179.008224 175.087092,178.81875 L175.087092,176.772697 L175.087092,174.717434 C175.087092,174.527961 175.141063,174.474013 175.329961,174.474013 L175.763045,174.474013 C175.907187,174.474013 175.952601,174.545724 176.051987,174.717434 L176.232328,175.041776 Z" id="Fill-56" fill="#FF7D19"></path>
                    <path d="M93.3701993,114.468553 L93.3701993,109.975789 C93.3701993,109.831711 93.4123229,109.801447 93.5505411,109.801447 L94.0849847,109.801447 C94.2232029,109.801447 94.2653265,109.844211 94.2653265,109.975789 L94.2653265,114.413947 C94.2653265,116.296184 95.2196902,117.086974 96.5867338,117.086974 C97.941272,117.086974 98.8982684,116.296184 98.8982684,114.413947 L98.8982684,109.975789 C98.8982684,109.844211 98.9410502,109.801447 99.077952,109.801447 L99.6202938,109.801447 C99.7578538,109.801447 99.7940538,109.844211 99.7940538,109.975789 L99.7940538,114.468553 C99.7940538,116.727105 98.433592,117.883026 96.5867338,117.883026 C94.7306611,117.883026 93.3701993,116.727105 93.3701993,114.468553" id="Fill-58" fill="#FF7D19"></path>
                    <path d="M104.771751,113.160461 C105.010671,112.711776 105.600402,111.836118 106.710755,111.836118 C107.921809,111.836118 108.954497,112.572303 108.954497,114.392039 L108.954497,117.559803 C108.954497,117.691382 108.911715,117.739408 108.789293,117.739408 L108.276569,117.739408 C108.154148,117.739408 108.107417,117.691382 108.107417,117.559803 L108.107417,114.618355 C108.107417,113.267697 107.429489,112.607171 106.508693,112.607171 C105.524053,112.607171 104.888249,113.557829 104.888249,114.694671 L104.888249,117.559803 C104.888249,117.691382 104.839544,117.739408 104.717122,117.739408 L104.203082,117.739408 C104.078028,117.739408 104.035246,117.691382 104.035246,117.559803 L104.035246,114.737434 L104.035246,112.146645 C104.035246,112.005855 104.078028,111.963092 104.203082,111.963092 L104.487417,111.963092 C104.575613,111.963092 104.621686,112.005855 104.682897,112.146645 L104.771751,113.160461 Z" id="Fill-60" fill="#FF7D19"></path>
                    <path d="M113.394328,112.146645 C113.394328,112.005855 113.428553,111.963092 113.568746,111.963092 L114.063699,111.963092 C114.210473,111.963092 114.244699,112.005855 114.244699,112.146645 L114.244699,117.559803 C114.244699,117.691382 114.201259,117.739408 114.063699,117.739408 L113.568746,117.739408 C113.428553,117.739408 113.394328,117.691382 113.394328,117.559803 L113.394328,112.146645 Z M113.804375,109.480197 C114.131492,109.480197 114.403321,109.740724 114.403321,110.070987 C114.403321,110.397961 114.131492,110.661118 113.804375,110.661118 C113.476601,110.661118 113.214644,110.397961 113.214644,110.070987 C113.214644,109.740724 113.476601,109.480197 113.804375,109.480197 L113.804375,109.480197 Z" id="Fill-62" fill="#FF7D19"></path>
                    <path d="M117.931833,112.146645 C117.886419,112.047961 117.931833,111.963092 118.032535,111.963092 L118.601204,111.963092 C118.726917,111.963092 118.772332,111.995987 118.836833,112.146645 L120.760041,116.278224 L120.760041,116.296645 L122.665477,112.146645 C122.72603,111.995987 122.784608,111.963092 122.891233,111.963092 L123.456612,111.963092 C123.581666,111.963092 123.603386,112.053224 123.570477,112.146645 L120.913397,117.762434 C120.848895,117.866382 120.833757,117.932171 120.765306,117.932171 L120.733055,117.932171 C120.67711,117.932171 120.669212,117.883487 120.59747,117.762434 L117.931833,112.146645 Z" id="Fill-64" fill="#FF7D19"></path>
                    <path d="M131.305693,114.560395 C131.266202,113.539342 130.526406,112.5525 129.367348,112.5525 C128.193151,112.5525 127.339489,113.539342 127.303289,114.560395 L131.305693,114.560395 Z M131.724955,116.821579 C131.807228,116.920263 131.807228,116.983421 131.724955,117.066974 C131.195777,117.585395 130.27498,117.861711 129.434482,117.861711 C127.725842,117.861711 126.404213,116.507763 126.404213,114.853158 C126.404213,113.194605 127.725842,111.836053 129.376562,111.836053 C131.149704,111.836053 132.183049,113.267632 132.183049,114.969605 C132.183049,115.097237 132.161988,115.149868 132.008631,115.149868 L127.28486,115.149868 C127.361209,116.200526 128.321497,117.105789 129.47134,117.105789 C130.024213,117.105789 130.702799,116.941316 131.253697,116.543947 C131.376119,116.476842 131.422191,116.455132 131.510388,116.556447 L131.724955,116.821579 Z" id="Fill-66" fill="#FF7D19"></path>
                    <path d="M136.913731,114.765395 L136.913731,117.559474 C136.913731,117.691053 136.861077,117.739737 136.745895,117.739737 L136.231197,117.739737 C136.106142,117.739737 136.06336,117.691053 136.06336,117.559474 L136.06336,112.146974 C136.06336,112.006184 136.106142,111.962763 136.231197,111.962763 L136.515531,111.962763 C136.607677,111.962763 136.653749,112.006184 136.708379,112.146974 L136.843306,113.276579 C137.076302,112.800263 137.595608,111.836447 139.203546,111.836447 C139.368749,111.836447 139.38652,111.880526 139.368749,111.996316 L139.2924,112.506184 C139.261466,112.641053 139.228557,112.679868 139.090339,112.679868 C137.617328,112.679868 136.913731,113.713421 136.913731,114.765395" id="Fill-68" fill="#FF7D19"></path>
                    <path d="M146.35581,116.1075 C146.35581,115.615395 145.78385,115.352237 144.750505,115.204868 C143.624356,115.055526 142.55481,114.798289 142.55481,113.606184 C142.55481,112.531184 143.390043,111.836447 144.728785,111.836447 C145.322465,111.836447 146.107676,111.983816 146.896177,112.475921 C147.031105,112.552895 147.010043,112.616711 146.951465,112.722632 L146.805348,112.995658 C146.750061,113.108816 146.694774,113.160789 146.557214,113.074605 C145.945105,112.698947 145.514654,112.531184 144.774199,112.531184 C143.820494,112.531184 143.359108,112.942368 143.359108,113.558158 C143.359108,114.180526 143.925145,114.304211 144.951908,114.447632 C146.080032,114.604868 147.171297,114.97 147.171297,116.07 C147.171297,117.106184 146.306447,117.861447 144.845283,117.861447 C144.239756,117.861447 143.349236,117.691053 142.506105,117.136447 C142.405403,117.066711 142.405403,117.005526 142.471879,116.883158 L142.625236,116.599605 C142.686447,116.489079 142.744367,116.433158 142.878636,116.531184 C143.38017,116.883158 144.046908,117.171316 144.79921,117.171316 C145.899032,117.171316 146.35581,116.684474 146.35581,116.1075" id="Fill-70" fill="#FF7D19"></path>
                    <path d="M151.284473,112.146645 C151.284473,112.005855 151.320673,111.963092 151.464815,111.963092 L151.953844,111.963092 C152.1072,111.963092 152.134186,112.005855 152.134186,112.146645 L152.134186,117.559803 C152.134186,117.691382 152.091404,117.739408 151.953844,117.739408 L151.464815,117.739408 C151.320673,117.739408 151.284473,117.691382 151.284473,117.559803 L151.284473,112.146645 Z M151.697153,109.480197 C152.02756,109.480197 152.296099,109.740724 152.296099,110.070987 C152.296099,110.397961 152.02756,110.661118 151.697153,110.661118 C151.366746,110.661118 151.106764,110.397961 151.106764,110.070987 C151.106764,109.740724 151.366746,109.480197 151.697153,109.480197 L151.697153,109.480197 Z" id="Fill-72" fill="#FF7D19"></path>
                    <path d="M161.013519,114.853355 C161.013519,113.719145 160.24937,112.607303 159.068592,112.607303 C157.875967,112.607303 157.130247,113.676382 157.130247,114.841513 C157.130247,116.100066 157.875967,117.103355 159.068592,117.103355 C160.24937,117.103355 161.013519,115.979013 161.013519,114.853355 L161.013519,114.853355 Z M160.997723,109.546118 C160.997723,109.413882 161.043796,109.365197 161.16885,109.365197 L161.680257,109.365197 C161.802679,109.365197 161.848752,109.413882 161.848752,109.546118 L161.848752,117.559276 C161.848752,117.690855 161.802679,117.739539 161.680257,117.739539 L161.420276,117.739539 C161.316283,117.739539 161.27021,117.690855 161.228087,117.559276 L161.135941,116.49875 C160.854239,116.929013 160.236207,117.86125 158.897465,117.86125 C157.310588,117.86125 156.277243,116.488882 156.277243,114.841513 C156.277243,113.188224 157.310588,111.83625 158.897465,111.83625 C160.236207,111.83625 160.860821,112.842171 160.997723,113.160592 L160.997723,109.546118 Z" id="Fill-74" fill="#FF7D19"></path>
                    <path d="M166.648872,115.979013 C166.648872,116.680329 167.159621,117.192171 168.079759,117.192171 C168.862337,117.192171 169.598843,116.657303 169.962817,116.121776 L169.962817,115.184934 C169.385592,114.946118 168.94461,114.774408 168.296301,114.774408 C167.216883,114.774408 166.648872,115.204671 166.648872,115.979013 M166.385599,112.607303 L166.296745,112.265197 C166.263177,112.146776 166.296745,112.091513 166.429039,112.047434 C166.566599,112.005987 167.511748,111.83625 168.385814,111.83625 C170.289934,111.83625 170.815821,112.689539 170.815821,114.560592 L170.815821,117.559276 C170.815821,117.691513 170.763825,117.739539 170.648643,117.739539 L170.314945,117.739539 C170.222799,117.739539 170.177385,117.691513 170.14645,117.559276 L170.097745,116.78625 C169.79169,117.203355 169.04597,117.86125 167.819777,117.86125 C166.728512,117.86125 165.798501,117.192171 165.798501,115.979013 C165.798501,114.737566 166.728512,114.135592 168.122541,114.135592 C168.72741,114.135592 169.385592,114.304013 169.962817,114.541513 C169.962817,113.109276 169.53829,112.589539 168.354879,112.589539 C167.623639,112.589539 167.033908,112.689539 166.605432,112.766513 C166.459316,112.800066 166.425748,112.744803 166.385599,112.607303" id="Fill-76" fill="#FF7D19"></path>
                    <path d="M179.163015,114.853355 C179.163015,113.719145 178.405447,112.607303 177.224669,112.607303 C176.032702,112.607303 175.2804,113.676382 175.2804,114.841513 C175.2804,116.100066 176.032702,117.103355 177.224669,117.103355 C178.405447,117.103355 179.163015,115.979013 179.163015,114.853355 L179.163015,114.853355 Z M179.150509,109.546118 C179.150509,109.413882 179.200531,109.365197 179.322295,109.365197 L179.833044,109.365197 C179.958756,109.365197 180.004171,109.413882 180.004171,109.546118 L180.004171,117.559276 C180.004171,117.690855 179.958756,117.739539 179.833044,117.739539 L179.573062,117.739539 C179.47236,117.739539 179.423655,117.690855 179.380873,117.559276 L179.286095,116.49875 C179.007025,116.929013 178.392942,117.86125 177.0542,117.86125 C175.463375,117.86125 174.430687,116.488882 174.430687,114.841513 C174.430687,113.188224 175.463375,111.83625 177.0542,111.83625 C178.392942,111.83625 179.01624,112.842171 179.150509,113.160592 L179.150509,109.546118 Z" id="Fill-78" fill="#FF7D19"></path>
                    <path d="M109.336571,131.339276 C109.098309,131.339276 109.031175,131.273487 109.031175,131.035987 L109.031175,123.711645 C109.031175,123.475461 109.098309,123.401118 109.336571,123.401118 L114.488819,123.401118 C114.725106,123.401118 114.794215,123.475461 114.794215,123.711645 L114.794215,124.662303 C114.794215,124.905066 114.725106,124.972829 114.488819,124.972829 L110.883957,124.972829 L110.883957,126.571513 L114.338753,126.571513 C114.577673,126.571513 114.64744,126.632697 114.64744,126.878092 L114.64744,127.827434 C114.64744,128.060987 114.577673,128.135987 114.338753,128.135987 L110.883957,128.135987 L110.883957,129.774145 L114.488819,129.774145 C114.725106,129.774145 114.794215,129.847171 114.794215,130.084013 L114.794215,131.035987 C114.794215,131.273487 114.725106,131.339276 114.488819,131.339276 L109.336571,131.339276 Z" id="Fill-80" fill="#FF7D19"></path>
                    <path d="M118.564609,123.279474 C118.564609,123.038684 118.629111,122.970263 118.870006,122.970263 L119.989573,122.970263 C120.227835,122.970263 120.298919,123.038684 120.298919,123.279474 L120.298919,131.036053 C120.298919,131.2775 120.227835,131.339342 119.989573,131.339342 L118.870006,131.339342 C118.629111,131.339342 118.564609,131.273553 118.564609,131.036053 L118.564609,123.279474 Z" id="Fill-82" fill="#FF7D19"></path>
                    <path d="M132.810033,129.811513 C133.604459,129.811513 133.934866,129.549013 133.934866,128.961513 C133.934866,128.487829 133.568917,128.080592 132.810033,128.080592 L131.257383,128.080592 L131.257383,129.811513 L132.810033,129.811513 Z M132.540837,126.599013 C133.33263,126.599013 133.647899,126.207566 133.647899,125.783882 C133.647899,125.195066 133.33263,124.939145 132.540837,124.939145 L131.257383,124.939145 L131.257383,126.599013 L132.540837,126.599013 Z M129.709997,131.339145 C129.477659,131.339145 129.403943,131.277961 129.403943,131.035855 L129.403943,123.712171 C129.403943,123.475329 129.477659,123.400987 129.709997,123.400987 L132.596124,123.400987 C133.889452,123.400987 135.488833,123.949013 135.488833,125.615461 C135.488833,126.422039 135.032713,126.931908 134.525255,127.259539 L134.525255,127.270724 C135.124859,127.552303 135.773168,128.105592 135.773168,129.129934 C135.773168,130.802303 134.379139,131.339145 132.877168,131.339145 L129.709997,131.339145 Z" id="Fill-84" fill="#FF7D19"></path>
                    <path d="M143.178635,128.459737 C143.178635,127.604474 142.591537,126.988026 141.888599,126.988026 C141.181711,126.988026 140.594613,127.604474 140.594613,128.459737 C140.594613,129.324211 141.181711,129.961053 141.888599,129.961053 C142.591537,129.961053 143.178635,129.324211 143.178635,128.459737 M141.888599,125.449868 C143.539319,125.449868 144.906362,126.809079 144.906362,128.459737 C144.906362,130.119605 143.539319,131.465 141.888599,131.465 C140.233929,131.465 138.867544,130.119605 138.867544,128.459737 C138.867544,126.809079 140.233929,125.449868 141.888599,125.449868" id="Fill-86" fill="#FF7D19"></path>
                    <path d="M151.390835,129.654737 C151.390835,129.389605 150.975523,129.301447 150.268635,129.208684 C149.036519,129.050789 148.051879,128.598158 148.051879,127.366579 C148.051879,126.196184 149.036519,125.449474 150.439763,125.449474 C151.042657,125.449474 151.788377,125.595526 152.666392,126.091579 C152.883592,126.220526 152.834228,126.317237 152.734184,126.5225 L152.40641,127.091579 C152.289912,127.292895 152.21093,127.388289 151.999653,127.238289 C151.644893,126.999474 151.222999,126.779079 150.556261,126.779079 C149.893472,126.779079 149.682195,126.940921 149.682195,127.259342 C149.682195,127.5225 150.10409,127.632368 150.803737,127.727105 C152.042435,127.883026 153.030366,128.259342 153.030366,129.552105 C153.030366,130.718553 152.021373,131.465263 150.556261,131.465263 C149.948101,131.465263 149.036519,131.303421 148.196021,130.727763 C147.988693,130.600132 148.024893,130.504737 148.128886,130.298158 L148.461926,129.734342 C148.568552,129.527105 148.635686,129.411974 148.868683,129.585 C149.205013,129.829737 149.770392,130.138289 150.439763,130.138289 C151.042657,130.138289 151.390835,129.973158 151.390835,129.654737" id="Fill-88" fill="#FF7D19"></path>
                    <path d="M157.851811,128.448158 C157.851811,129.319211 158.439568,129.923816 159.145139,129.923816 C159.845444,129.923816 160.435833,129.319211 160.435833,128.448158 C160.435833,127.588947 159.845444,126.957368 159.145139,126.957368 C158.439568,126.957368 157.851811,127.588947 157.851811,128.448158 L157.851811,128.448158 Z M160.423328,130.6975 C160.2522,130.973158 159.6006,131.465263 158.741673,131.465263 C157.234437,131.465263 156.124742,130.110658 156.124742,128.448158 C156.124742,126.852763 157.234437,125.449474 158.741673,125.449474 C159.6006,125.449474 160.23048,125.751447 160.741229,126.286974 L160.970935,125.877763 C161.095989,125.661316 161.151277,125.571842 161.334251,125.571842 L161.853557,125.571842 C162.093135,125.571842 162.16356,125.635658 162.16356,125.877763 L162.16356,133.346842 C162.16356,133.590921 162.093135,133.658684 161.853557,133.658684 L160.729382,133.658684 C160.493753,133.658684 160.423328,133.590921 160.423328,133.346842 L160.423328,130.6975 Z" id="Fill-90" fill="#FF7D19"></path>
                    <path d="M169.727649,130.630658 C169.287325,131.106974 168.880569,131.465526 168.07298,131.465526 C166.780311,131.465526 165.902296,130.875395 165.902296,128.793816 L165.902296,125.877368 C165.902296,125.635263 165.972722,125.572105 166.214275,125.572105 L167.336475,125.572105 C167.574736,125.572105 167.641871,125.635263 167.641871,125.877368 L167.641871,128.448421 C167.641871,129.483947 167.834718,129.924079 168.517253,129.924079 C169.220191,129.924079 169.430809,129.483947 169.430809,128.448421 L169.430809,125.877368 C169.430809,125.635263 169.504525,125.572105 169.736864,125.572105 L170.858405,125.572105 C171.097984,125.572105 171.167751,125.635263 171.167751,125.877368 L171.167751,128.448421 L171.167751,131.035921 C171.167751,131.277368 171.097984,131.339211 170.858405,131.339211 L170.31738,131.339211 C170.134405,131.339211 170.079776,131.251053 169.959987,131.035921 L169.727649,130.630658 Z" id="Fill-92" fill="#FF7D19"></path>
                    <path d="M178.796605,127.904605 C178.680107,127.424342 178.43263,126.852632 177.696125,126.852632 C176.91947,126.852632 176.664754,127.424342 176.558128,127.904605 L178.796605,127.904605 Z M180.034645,130.278289 C180.172205,130.45 180.209063,130.534211 180.089932,130.663816 C179.567336,131.185526 178.628768,131.465132 177.784321,131.465132 C176.07239,131.465132 174.721143,130.119737 174.721143,128.459868 C174.721143,126.809211 176.07239,125.452632 177.732325,125.452632 C179.664747,125.452632 180.566456,126.9875 180.566456,128.677632 C180.566456,128.928947 180.51775,129.007237 180.282121,129.007237 L176.512056,129.007237 C176.704903,129.584868 177.21631,129.9875 177.815256,129.9875 C178.084452,129.9875 178.51227,129.984211 179.141492,129.701316 C179.377121,129.593421 179.429776,129.526974 179.588397,129.725 L180.034645,130.278289 Z" id="Fill-94" fill="#FF7D19"></path>
                    <path d="M49.3482349,27.68875 C46.0059876,27.68875 43.3903731,30.3565132 43.3903731,33.7650658 C43.3903731,37.1051974 46.0059876,39.7216447 49.3482349,39.7216447 C52.7576167,39.7216447 55.4285185,37.1051974 55.4285185,33.7611184 C55.4285185,30.4150658 52.6990385,27.68875 49.3482349,27.68875" id="Fill-96" fill="#FF7D19"></path>
                    <path d="M52.6532291,43.8810526 L46.0740436,43.8843421 C44.1291164,43.8843421 43.3030982,44.5231579 43.3030982,46.0231579 L43.3030982,83.1389474 C43.3030982,84.6363158 44.1291164,85.2777632 46.0740436,85.2777632 L52.6532291,85.2777632 C54.6007891,85.2777632 55.4287818,84.6336842 55.4287818,83.1389474 L55.4287818,46.0231579 C55.4287818,44.5231579 54.6007891,43.8810526 52.6532291,43.8810526" id="Fill-98" fill="#FF7D19"></path>
                    <path d="M98.2503542,45.4390789 C100.320336,45.4390789 101.202958,44.5594737 101.202958,42.4910526 L101.202958,36.5338158 C101.202958,34.4647368 100.320336,33.5818421 98.2503542,33.5818421 L67.6310778,33.5818421 C65.5604378,33.5818421 64.6771578,34.4647368 64.6771578,36.5338158 L64.6771578,82.3252632 C64.6771578,84.3956579 65.5604378,85.2778947 67.6310778,85.2778947 L98.2503542,85.2778947 C100.320336,85.2778947 101.202958,84.3956579 101.202958,82.3252632 L101.202958,76.3719737 C101.202958,74.3042105 100.320336,73.4167105 98.2503542,73.4167105 L76.7350487,73.4167105 L76.7350487,65.22 L97.6961651,65.22 C99.7661469,65.22 100.652718,64.3371053 100.652718,62.2647368 L100.652718,56.3101316 C100.652718,54.2423684 99.7661469,53.3548684 97.6961651,53.3548684 L76.7350487,53.3548684 L76.7350487,45.4390789 L98.2503542,45.4390789 Z" id="Fill-100" fill="#FF7D19"></path>
                    <g id="Group-104" transform="translate(64.501818, 0.000000)">
                        <mask id="mask-2" fill="white">
                            <use xlink:href="#path-1"></use>
                        </mask>
                        <g id="Clip-103"></g>
                        <path d="M16.2389251,1.02605263 C16.2389251,0.271447368 16.4528342,0.0536842105 17.212376,0.0536842105 L21.1476451,0.0536842105 C21.9058705,0.0536842105 22.1230705,0.271447368 22.1230705,1.02605263 L22.1230705,24.3365789 C22.1230705,25.0918421 21.9058705,25.3076316 21.1476451,25.3076316 L17.212376,25.3076316 C16.4528342,25.3076316 16.2389251,25.0918421 16.2389251,24.3365789 L16.2389251,15.3543421 L6.05882691,15.3543421 L6.05882691,24.3365789 C6.05882691,25.0918421 5.84360145,25.3076316 5.08405964,25.3076316 L1.14944873,25.3076316 C0.392539636,25.3076316 0.175339636,25.0918421 0.175339636,24.3365789 L0.175339636,1.02605263 C0.175339636,0.271447368 0.392539636,0.0536842105 1.14944873,0.0536842105 L5.08405964,0.0536842105 C5.84360145,0.0536842105 6.05882691,0.271447368 6.05882691,1.02605263 L6.05882691,10.2655263 L16.2389251,10.2655263 L16.2389251,1.02605263 Z" id="Fill-102" fill="#FF7D19" mask="url(#mask-2)"></path>
                    </g>
                    <g id="Group-107" transform="translate(91.487273, 0.000000)">
                        <mask id="mask-4" fill="white">
                            <use xlink:href="#path-3"></use>
                        </mask>
                        <g id="Clip-106"></g>
                        <path d="M0.560836727,14.9195395 L0.560836727,1.02611842 C0.560836727,0.270855263 0.777378545,0.05375 1.53428764,0.05375 L5.46955673,0.05375 C6.22778218,0.05375 6.444324,0.270855263 6.444324,1.02611842 L6.444324,14.7399342 C6.444324,18.6721711 8.03120036,20.6932237 11.4991604,20.6932237 C14.9631713,20.6932237 16.5493895,18.6721711 16.5493895,14.7399342 L16.5493895,1.02611842 C16.5493895,0.270855263 16.7672476,0.05375 17.5254731,0.05375 L21.4633749,0.05375 C22.2156767,0.05375 22.4328767,0.270855263 22.4328767,1.02611842 L22.4328767,14.9195395 C22.4328767,22.0978289 17.3819895,25.7780921 11.4991604,25.7780921 C5.61633127,25.7780921 0.560836727,22.0978289 0.560836727,14.9195395" id="Fill-105" fill="#FF7D19" mask="url(#mask-4)"></path>
                    </g>
                    <path d="M131.847179,20.4358553 C134.375256,20.4358553 135.418474,19.6115132 135.418474,17.7351974 C135.418474,16.21875 134.265997,14.9194079 131.847179,14.9194079 L126.899627,14.9194079 L126.899627,20.4358553 L131.847179,20.4358553 Z M130.978379,10.2273026 C133.507114,10.2273026 134.519397,8.96611842 134.519397,7.63059211 C134.519397,5.75690789 133.507114,4.92203947 130.978379,4.92203947 L126.899627,4.92203947 L126.899627,10.2273026 L130.978379,10.2273026 Z M121.995514,25.3075658 C121.233997,25.3075658 121.016797,25.0917763 121.016797,24.3365132 L121.016797,1.02598684 C121.016797,0.271381579 121.233997,0.0542763158 121.995514,0.0542763158 L131.162012,0.0542763158 C135.27499,0.0542763158 140.365368,1.78256579 140.365368,7.08914474 C140.365368,9.65032895 138.919343,11.2773026 137.295608,12.3200658 L137.295608,12.3588816 C139.210259,13.2601974 141.267736,14.99375 141.267736,18.2766447 C141.267736,23.5786184 136.830274,25.3075658 132.061088,25.3075658 L121.995514,25.3075658 Z" id="Fill-108" fill="#FF7D19"></path>
                    <path d="M57.4681582,132.350592 C57.0436309,132.350592 56.6164709,132.222961 56.2465727,131.959803 C55.3014236,131.281513 55.0829073,129.968355 55.75886,129.022303 L76.1921145,100.455197 C76.8660927,99.5104605 78.1824564,99.2900658 79.1262891,99.9663816 C80.0727545,100.639408 80.2912709,101.954539 79.6133436,102.900592 L59.1814055,131.467697 C58.7700418,132.041382 58.1237073,132.350592 57.4681582,132.350592" id="Fill-110" fill="#FF7D19"></path>
                    <path d="M32.2910582,167.281316 C32.1534982,167.281316 32.0146218,167.268158 31.8770618,167.241184 C31.7454255,167.213553 31.6144473,167.174079 31.4887345,167.122763 C31.3630218,167.070132 31.2373091,167.003026 31.12476,166.932632 C31.0135273,166.850395 30.9016364,166.758289 30.8022509,166.660263 C30.7022073,166.568816 30.6173018,166.456316 30.5389782,166.3425 C30.4665782,166.233289 30.4001018,166.107632 30.3481055,165.981316 C30.2947927,165.856316 30.2553018,165.725395 30.2289745,165.595132 C30.2033055,165.454342 30.1894836,165.315526 30.1894836,165.178684 C30.1894836,165.041184 30.2033055,164.901053 30.2289745,164.762237 C30.2553018,164.631974 30.2947927,164.499737 30.3481055,164.371447 C30.4001018,164.239868 30.4665782,164.123421 30.54556,164.011579 C30.6173018,163.895132 30.7087891,163.787895 30.8022509,163.689868 C30.9016364,163.589211 31.0069455,163.503684 31.12476,163.423421 C31.2373091,163.351053 31.3630218,163.286579 31.4887345,163.235263 C31.6144473,163.183289 31.7454255,163.140526 31.8829855,163.115526 C32.1534982,163.060921 32.4299345,163.060921 32.7011055,163.115526 C32.8399818,163.140526 32.9716182,163.183289 33.0966727,163.235263 C33.2223855,163.286579 33.34744,163.351053 33.4593309,163.423421 C33.5784618,163.503684 33.6831127,163.589211 33.7824982,163.689868 C33.8753018,163.787895 33.9667891,163.895132 34.0405055,164.011579 C34.1188291,164.123421 34.1839891,164.239868 34.23796,164.371447 C34.2892982,164.499737 34.3294473,164.631974 34.3551164,164.762237 C34.38276,164.901053 34.3946073,165.041184 34.3946073,165.178684 C34.3946073,165.315526 34.38276,165.454342 34.3551164,165.595132 C34.3294473,165.725395 34.2892982,165.856316 34.23796,165.981316 C34.1839891,166.107632 34.1188291,166.233289 34.0464291,166.3425 C33.9667891,166.456316 33.8818836,166.568816 33.7824982,166.660263 C33.3796909,167.064211 32.8518291,167.281316 32.2910582,167.281316" id="Fill-112" fill="#FF7D19"></path>
                    <path d="M40.4151938,153.803421 C39.4720193,153.131053 39.2548193,151.813289 39.9281393,150.8725 C40.6073829,149.921842 41.9165065,149.705395 42.8603393,150.382368 C43.8107538,151.054737 44.0279538,152.366579 43.355292,153.317237 C42.9393211,153.888947 42.2943029,154.191579 41.6413865,154.191579 C41.2129102,154.191579 40.7916738,154.065263 40.4151938,153.803421" id="Fill-114" fill="#FF7D19"></path>
                    <path d="M50.9894771,141.110724 C50.4293644,141.110724 49.9015025,140.892961 49.5000116,140.492961 C49.399968,140.402171 49.3150625,140.289013 49.2367389,140.175197 C49.1636807,140.064671 49.0972044,139.940329 49.0445498,139.814013 C48.9918953,139.686382 48.9537207,139.554803 48.9260771,139.422566 C48.8997498,139.286382 48.8865862,139.148224 48.8865862,139.008092 C48.8865862,138.869934 48.8997498,138.733092 48.9260771,138.59625 C48.9537207,138.463355 48.9918953,138.331776 49.0445498,138.207434 C49.0972044,138.078487 49.1636807,137.953487 49.2426625,137.842961 C49.3150625,137.724539 49.4078662,137.619934 49.5000116,137.518618 C49.9883825,137.030461 50.7196225,136.806776 51.398208,136.947566 C51.5377425,136.97125 51.6687207,137.012039 51.7944335,137.064671 C51.919488,137.118618 52.0452007,137.183092 52.1564335,137.262039 C52.2762225,137.335066 52.3815316,137.427171 52.4789425,137.518618 C52.5730625,137.619934 52.6638916,137.724539 52.737608,137.842961 C52.817248,137.953487 52.8830662,138.078487 52.9344044,138.204145 C52.9883753,138.331776 53.0285244,138.463355 53.0535353,138.59625 C53.0798625,138.729145 53.0936844,138.869934 53.0936844,139.008092 C53.0936844,139.148224 53.0798625,139.286382 53.0535353,139.422566 C53.0285244,139.554803 52.9883753,139.686382 52.9344044,139.814013 C52.8830662,139.940329 52.817248,140.061382 52.7441898,140.175197 C52.6638916,140.289013 52.5730625,140.402171 52.4730189,140.492961 C52.3736335,140.590987 52.2696407,140.682434 52.1564335,140.762697 C52.0452007,140.835066 51.919488,140.899539 51.7944335,140.954145 C51.6687207,141.003487 51.5377425,141.045592 51.4061062,141.070592 C51.2665716,141.094276 51.1290116,141.110724 50.9894771,141.110724" id="Fill-116" fill="#FF7D19"></path>
                    <path d="M26.2543462,143.762829 C25.8304771,143.762829 25.4033171,143.637829 25.0327607,143.372039 C24.0876116,142.697039 23.8690953,141.384539 24.545048,140.439803 L44.9789607,111.868092 C45.6542553,110.923355 46.9679862,110.703618 47.9131353,111.38125 C48.8589425,112.053618 49.0774589,113.368092 48.4015062,114.314803 L27.9675935,142.883224 C27.5562298,143.460197 26.9098953,143.762829 26.2543462,143.762829" id="Fill-118" fill="#FF7D19"></path>
                    <path d="M2.10374655,177.264737 C1.96487018,177.264737 1.826652,177.250921 1.68843382,177.223947 C1.55613927,177.197632 1.42450291,177.159474 1.29944836,177.106842 C1.17373564,177.054868 1.04802291,176.987763 0.936132,176.908158 C0.823582909,176.835132 0.711692,176.741711 0.612964727,176.642368 C0.216739273,176.248289 0.000197454545,175.721974 0.000197454545,175.162763 C0.000197454545,174.608158 0.225295636,174.066711 0.612964727,173.671316 C0.711692,173.574605 0.817659273,173.487763 0.936132,173.414079 C1.04802291,173.338421 1.16649564,173.271316 1.29944836,173.218026 C1.42450291,173.165395 1.55613927,173.124605 1.68843382,173.097632 C2.37425927,172.958816 3.09891745,173.186447 3.59255382,173.671316 C3.98285564,174.066711 4.20532109,174.608158 4.20532109,175.162763 C4.20532109,175.721974 3.98812109,176.248289 3.59255382,176.642368 C3.49448473,176.741711 3.38127745,176.835132 3.27004473,176.908158 C3.15223018,176.987763 3.03309927,177.054868 2.90738655,177.106842 C2.782332,177.159474 2.65069564,177.197632 2.51971745,177.223947 C2.38084109,177.250921 2.24064836,177.264737 2.10374655,177.264737" id="Fill-120" fill="#FF7D19"></path>
                    <path d="M9.95565818,164.170461 C9.01248364,163.498092 8.78870182,162.180329 9.46728727,161.235592 C10.1392909,160.288224 11.4523636,160.067829 12.4014618,160.749408 C13.3446364,161.421776 13.5618364,162.732961 12.8891745,163.680329 C12.4797855,164.255329 11.8341091,164.557961 11.1759273,164.557961 C10.7540327,164.557961 10.3255564,164.432961 9.95565818,164.170461" id="Fill-122" fill="#FF7D19"></path>
                    <path d="M20.2532418,151.858684 C19.6924709,151.858684 19.1652673,151.641579 18.7631182,151.238947 C18.6650491,151.140921 18.5794855,151.034342 18.4998455,150.923816 C18.4267873,150.804737 18.3609691,150.685 18.3089727,150.559342 C18.2550018,150.435 18.2155109,150.303421 18.1898418,150.165921 C18.1641727,150.035 18.1516673,149.896184 18.1516673,149.759342 C18.1516673,149.618553 18.1641727,149.481711 18.1898418,149.342895 C18.2155109,149.208684 18.2550018,149.076447 18.3089727,148.954737 C18.3609691,148.820526 18.4267873,148.702105 18.5057691,148.592237 C18.5794855,148.469868 18.6709727,148.365263 18.7631182,148.267895 C19.5470127,147.483684 20.9581545,147.483684 21.7440236,148.267895 C21.8355109,148.365263 21.9276564,148.469868 22.0007145,148.592237 C22.0803545,148.702105 22.1461727,148.820526 22.1981691,148.954737 C22.2501655,149.076447 22.2916309,149.208684 22.3179582,149.342895 C22.3436273,149.481711 22.3567909,149.618553 22.3567909,149.759342 C22.3567909,149.896184 22.3436273,150.035 22.3179582,150.165921 C22.2916309,150.303421 22.2501655,150.435 22.1981691,150.559342 C22.1461727,150.685 22.0803545,150.804737 22.0072964,150.923816 C21.9276564,151.034342 21.8355109,151.140921 21.7440236,151.238947 C21.3418745,151.641579 20.8146709,151.858684 20.2532418,151.858684" id="Fill-124" fill="#FF7D19"></path>
                    <path d="M58.4258785,164.462105 C58.0033258,164.462105 57.5761658,164.334474 57.2049513,164.068684 C56.2598022,163.397632 56.0412858,162.081842 56.7172385,161.137105 L77.1511513,132.57 C77.8284204,131.626579 79.1401767,131.403553 80.085984,132.081842 C81.0324495,132.758158 81.2496495,134.071974 80.5743549,135.015395 L60.139784,163.5825 C59.7284204,164.1575 59.0814276,164.462105 58.4258785,164.462105" id="Fill-126" fill="#FF7D19"></path>
                    <path d="M33.2941273,199.342105 C33.1552509,199.342105 33.0170327,199.322368 32.8781564,199.295395 C32.74652,199.271711 32.6155418,199.231579 32.4904873,199.176974 C32.3647745,199.123684 32.2449855,199.065789 32.1278291,198.9875 C32.0146218,198.913158 31.9033891,198.821053 31.8119018,198.721711 C31.4090945,198.327632 31.1905782,197.798026 31.1905782,197.238158 C31.1905782,197.100658 31.2037418,196.963816 31.2300691,196.823684 C31.2636364,196.692105 31.3037855,196.559868 31.3557818,196.428289 C31.4090945,196.303947 31.4670145,196.184211 31.5486291,196.065789 C31.6262945,195.955921 31.7118582,195.846711 31.8119018,195.75 C32.5898727,194.965132 34.0003564,194.965132 34.7849091,195.75 C34.8829782,195.846711 34.9692,195.955921 35.0409418,196.065789 C35.12124,196.184211 35.1864,196.303947 35.2403709,196.428289 C35.2923673,196.559868 35.3325164,196.692105 35.3575273,196.823684 C35.3845127,196.963816 35.3976764,197.100658 35.3976764,197.238158 C35.3976764,197.798026 35.17916,198.327632 34.7849091,198.721711 C34.6848655,198.821053 34.5736327,198.913158 34.4624,198.9875 C34.3491927,199.065789 34.2241382,199.133553 34.0997418,199.176974 C33.9746873,199.231579 33.8417345,199.271711 33.7100982,199.295395 C33.5712218,199.322368 33.4330036,199.342105 33.2941273,199.342105" id="Fill-128" fill="#FF7D19"></path>
                    <path d="M41.2183073,186.141184 C40.2764491,185.468816 40.0592491,184.151711 40.7319109,183.206974 C41.4052309,182.264211 42.7222527,182.048421 43.6654273,182.722105 C44.6072855,183.394474 44.8330418,184.710921 44.15314,185.651711 C43.7450673,186.226711 43.0980745,186.535263 42.4379182,186.535263 C42.0160236,186.535263 41.5882055,186.403026 41.2183073,186.141184" id="Fill-130" fill="#FF7D19"></path>
                    <path d="M51.5894756,173.729803 C51.0293629,173.729803 50.5028175,173.506776 50.0986938,173.112039 C50.0072065,173.010724 49.9150611,172.907434 49.8360793,172.794276 C49.7643375,172.677829 49.6978611,172.559408 49.6445484,172.434408 C49.592552,172.30875 49.5530611,172.177171 49.527392,172.036382 C49.4997484,171.904803 49.4872429,171.767961 49.4872429,171.62125 C49.4872429,171.067303 49.7103665,170.526513 50.0986938,170.139013 C50.5883811,169.652171 51.3202793,169.427171 51.9988647,169.567303 C52.1370829,169.590987 52.2700356,169.63375 52.3950902,169.686382 C52.5208029,169.737697 52.6438829,169.802171 52.7570902,169.875855 C52.8749047,169.955461 52.9802138,170.040987 53.0802575,170.139013 C53.1710865,170.239671 53.2645484,170.34625 53.3362902,170.456118 C53.4159302,170.575197 53.4817484,170.692961 53.5363775,170.825855 C53.5877156,170.951513 53.6272065,171.08375 53.6535338,171.214671 C53.6792029,171.352829 53.6930247,171.489671 53.6930247,171.62125 C53.6930247,171.767961 53.6792029,171.904803 53.6535338,172.036382 C53.6272065,172.177171 53.5877156,172.30875 53.5363775,172.434408 C53.4817484,172.559408 53.4159302,172.677829 53.342872,172.794276 C53.2645484,172.907434 53.1776684,173.010724 53.0802575,173.112039 C52.6781084,173.506776 52.1502465,173.729803 51.5894756,173.729803" id="Fill-132" fill="#FF7D19"></path>
                    <path d="M112.415743,100.098947 C111.003285,102.076579 110.437907,102.639737 108.743747,102.639737 L96.6878305,102.639737 C94.8995505,102.639737 94.0485215,102.076579 95.3694924,100.098947 L123.817427,61.0331579 L106.297943,36.5272368 C104.979605,34.5496053 105.735198,33.9851316 107.523478,33.9851316 L119.579394,33.9851316 C121.273554,33.9851316 121.934369,34.5496053 123.251391,36.5272368 L131.728114,48.9798684 L161.402241,5.90684211 C162.814041,3.92921053 163.380078,3.36407895 165.076871,3.36407895 L177.132787,3.36407895 C178.921725,3.36407895 179.768805,3.92921053 178.355689,5.90684211 L139.732263,61.0331579 L155.362765,82.3022368 C156.680445,84.2746053 155.928801,84.8410526 154.136572,84.8410526 L142.083947,84.8410526 C140.387154,84.8410526 139.821776,84.2746053 138.313881,82.3022368 L131.728114,73.0811842 L112.415743,100.098947 Z" id="Fill-134" fill="#FF7D19"></path>
                </g>
            </g>
        </g>
    </g>
</svg>